SplineFontDB: 3.2
FontName: Mohave-Regular
FullName: Mohave Regular
FamilyName: Mohave
Weight: Regular
Copyright: Copyright \\(c\\) 2018 by Gumpita Rahayu. All rights reserved.
Version: 002.002
ItalicAngle: 0
UnderlinePosition: -80
UnderlineWidth: 58
Ascent: 780
Descent: 220
InvalidEm: 0
sfntRevision: 0x00020083
LayerCount: 2
Layer: 0 0 "Back" 1
Layer: 1 0 "Fore" 0
XUID: [1021 95 -1249603758 11602520]
StyleMap: 0x0040
FSType: 0
OS2Version: 3
OS2_WeightWidthSlopeOnly: 0
OS2_UseTypoMetrics: 0
CreationTime: 1525442530
ModificationTime: 1629831186
PfmFamily: 81
TTFWeight: 400
TTFWidth: 5
LineGap: 0
VLineGap: 0
Panose: 0 0 5 0 0 0 0 0 0 0
OS2TypoAscent: 780
OS2TypoAOffset: 0
OS2TypoDescent: -220
OS2TypoDOffset: 0
OS2TypoLinegap: 0
OS2WinAscent: 980
OS2WinAOffset: 0
OS2WinDescent: 220
OS2WinDOffset: 0
HheadAscent: 980
HheadAOffset: 0
HheadDescent: -220
HheadDOffset: 0
OS2SubXSize: 650
OS2SubYSize: 600
OS2SubXOff: 0
OS2SubYOff: 75
OS2SupXSize: 650
OS2SupYSize: 600
OS2SupXOff: 0
OS2SupYOff: 350
OS2StrikeYSize: 58
OS2StrikeYPos: 326
OS2CapHeight: 750
OS2XHeight: 544
OS2Vendor: 'TOKO'
OS2CodePages: 20000093.00000000
OS2UnicodeRanges: 00000007.00000001.00000000.00000000
Lookup: 1 0 0 "'aalt' Access All Alternates in Latin lookup 0" { "'aalt' Access All Alternates in Latin lookup 0 subtable"  } ['aalt' ('DFLT' <'dflt' > 'latn' <'CAT ' 'MOL ' 'ROM ' 'dflt' > ) ]
Lookup: 3 0 0 "'aalt' Access All Alternates in Latin lookup 1" { "'aalt' Access All Alternates in Latin lookup 1 subtable"  } ['aalt' ('DFLT' <'dflt' > 'latn' <'CAT ' 'MOL ' 'ROM ' 'dflt' > ) ]
Lookup: 6 0 0 "'ccmp' Glyph Composition/Decomposition in Latin lookup 2" { "'ccmp' Glyph Composition/Decomposition in Latin lookup 2 contextual 0"  "'ccmp' Glyph Composition/Decomposition in Latin lookup 2 contextual 1"  } ['ccmp' ('DFLT' <'dflt' > 'latn' <'CAT ' 'MOL ' 'ROM ' 'dflt' > ) ]

StartChar: .notdef
Encoding: 65536 -1 0
Width: 504
Flags: MW
HStem: 0 66<148 356 148 422> 684 66<148 356 148 148>
LayerCount: 2
Fore
SplineSet
82 0 m 1
 82 750 l 1
 422 750 l 1
 422 0 l 1
 82 0 l 1
148 66 m 1
 356 66 l 1
 356 684 l 1
 148 684 l 1
 148 66 l 1
EndSplineSet
Validated: 1
EndChar

StartChar: A
Encoding: 65 65 2
Width: 489
GlyphClass: 2
Flags: HMW
HStem: 0 21G<40 127 40 40 362 449 362 362> 145 84<172 318 172 333 157 318> 730 20G<200 290 290 290>
AnchorPoint: "Anchor-1" 245 0 basechar 0
LayerCount: 2
Fore
SplineSet
290 750 m 1
 449 0 l 1
 362 0 l 1
 333 145 l 1
 157 145 l 1
 127 0 l 1
 40 0 l 1
 200 750 l 1
 290 750 l 1
172 229 m 1
 318 229 l 1
 245 600 l 1
 172 229 l 1
EndSplineSet
Validated: 1
Substitution2: "Single Substitution lookup 28 subtable" ordfeminine
Substitution2: "'aalt' Access All Alternates in Latin lookup 0 subtable" ordfeminine
EndChar

StartChar: Aacute
Encoding: 193 193 3
Width: 459
GlyphClass: 2
Flags: MW
HStem: 0 21G<25 112 25 25 347 434 347 347> 145 84<157 303 157 318 142 303> 730 20G<185 275 275 275>
AnchorPoint: "Anchor-1" 230 0 basechar 0
LayerCount: 2
Fore
SplineSet
349 986 m 1
 260 814 l 1
 198 814 l 1
 264 986 l 1
 349 986 l 1
275 750 m 1
 434 0 l 1
 347 0 l 1
 318 145 l 1
 142 145 l 1
 112 0 l 1
 25 0 l 1
 185 750 l 1
 275 750 l 1
157 229 m 1
 303 229 l 1
 230 600 l 1
 157 229 l 1
EndSplineSet
Validated: 1
EndChar

StartChar: Abreve
Encoding: 258 258 4
Width: 459
GlyphClass: 2
Flags: MW
HStem: 0 21G<25 112 25 25 347 434 347 347> 145 84<157 303 157 318 142 303> 730 20G<185 275 275 275> 868 52<214.5 245.5 214.5 262.5> 966 20G<117 175 175 175 284 341 341 341>
AnchorPoint: "Anchor-1" 230 0 basechar 0
LayerCount: 2
Fore
SplineSet
230 868 m 0
 165 868 117 911 117 976 c 2
 117 986 l 1
 175 986 l 1
 175 976 l 2
 175 942 199 920 230 920 c 0
 261 920 284 942 284 976 c 2
 284 986 l 1
 341 986 l 1
 341 976 l 2
 341 911 295 868 230 868 c 0
275 750 m 1
 434 0 l 1
 347 0 l 1
 318 145 l 1
 142 145 l 1
 112 0 l 1
 25 0 l 1
 185 750 l 1
 275 750 l 1
157 229 m 1
 303 229 l 1
 230 600 l 1
 157 229 l 1
EndSplineSet
Validated: 1
EndChar

StartChar: Acircumflex
Encoding: 194 194 5
Width: 459
GlyphClass: 2
Flags: MW
HStem: 0 21G<25 112 25 25 347 434 347 347> 145 84<157 303 157 318 142 303> 730 20G<185 275 275 275> 840 146<84 263 84 263 196 296 196 375> 932 54<230 230>
AnchorPoint: "Anchor-1" 230 0 basechar 0
LayerCount: 2
Fore
SplineSet
230 932 m 1xe8
 163 840 l 1
 84 840 l 1xf0
 196 986 l 1
 263 986 l 1xe8
 375 840 l 1
 296 840 l 1xf0
 230 932 l 1xe8
275 750 m 1
 434 0 l 1
 347 0 l 1
 318 145 l 1
 142 145 l 1
 112 0 l 1
 25 0 l 1
 185 750 l 1
 275 750 l 1
157 229 m 1
 303 229 l 1
 230 600 l 1
 157 229 l 1
EndSplineSet
Validated: 1
EndChar

StartChar: Adieresis
Encoding: 196 196 6
Width: 459
GlyphClass: 2
Flags: MW
HStem: 0 21G<25 112 25 25 347 434 347 347> 145 84<157 303 157 318 142 303> 730 20G<185 275 275 275> 869 117<125 197 125 197 125 268 268 339>
AnchorPoint: "Anchor-1" 230 0 basechar 0
LayerCount: 2
Fore
SplineSet
197 986 m 1
 197 869 l 1
 125 869 l 1
 125 986 l 1
 197 986 l 1
339 986 m 1
 339 869 l 1
 268 869 l 1
 268 986 l 1
 339 986 l 1
275 750 m 1
 434 0 l 1
 347 0 l 1
 318 145 l 1
 142 145 l 1
 112 0 l 1
 25 0 l 1
 185 750 l 1
 275 750 l 1
157 229 m 1
 303 229 l 1
 230 600 l 1
 157 229 l 1
EndSplineSet
Validated: 1
EndChar

StartChar: Agrave
Encoding: 192 192 7
Width: 459
GlyphClass: 2
Flags: MW
HStem: 0 21G<25 112 25 25 347 434 347 347> 145 84<157 303 157 318 142 303> 730 20G<185 275 275 275>
AnchorPoint: "Anchor-1" 230 0 basechar 0
LayerCount: 2
Fore
SplineSet
263 814 m 1
 201 814 l 1
 111 986 l 1
 197 986 l 1
 263 814 l 1
275 750 m 1
 434 0 l 1
 347 0 l 1
 318 145 l 1
 142 145 l 1
 112 0 l 1
 25 0 l 1
 185 750 l 1
 275 750 l 1
157 229 m 1
 303 229 l 1
 230 600 l 1
 157 229 l 1
EndSplineSet
Validated: 1
EndChar

StartChar: Amacron
Encoding: 256 256 8
Width: 459
GlyphClass: 2
Flags: MW
HStem: 0 21G<25 112 25 25 347 434 347 347> 145 84<157 303 157 318 142 303> 730 20G<185 275 275 275> 831 63<119 340 119 340>
AnchorPoint: "Anchor-1" 230 0 basechar 0
LayerCount: 2
Fore
SplineSet
340 894 m 1
 340 831 l 1
 119 831 l 1
 119 894 l 1
 340 894 l 1
275 750 m 1
 434 0 l 1
 347 0 l 1
 318 145 l 1
 142 145 l 1
 112 0 l 1
 25 0 l 1
 185 750 l 1
 275 750 l 1
157 229 m 1
 303 229 l 1
 230 600 l 1
 157 229 l 1
EndSplineSet
Validated: 1
EndChar

StartChar: Aogonek
Encoding: 260 260 9
Width: 459
GlyphClass: 2
Flags: MW
HStem: -213 62<378 436 421 436 421 436> 0 23 145 84<157 303 157 318 142 303> 730 20G<185 275 275 275>
AnchorPoint: "Anchor-1" 230 0 basechar 0
LayerCount: 2
Fore
SplineSet
421 -151 m 2
 436 -151 l 1
 436 -213 l 1
 417 -213 l 2
 339 -213 294 -172 294 -112 c 0
 294 -68 315 -32 355 0 c 1
 347 0 l 1
 318 145 l 1
 142 145 l 1
 112 0 l 1
 25 0 l 1
 185 750 l 1
 275 750 l 1
 434 0 l 1
 416 0 l 1
 378 -31 357 -62 357 -99 c 0
 357 -130 380 -151 421 -151 c 2
157 229 m 1
 303 229 l 1
 230 600 l 1
 157 229 l 1
EndSplineSet
Validated: 1
EndChar

StartChar: Aring
Encoding: 197 197 10
Width: 459
GlyphClass: 2
Flags: MW
HStem: 0 21G<25 112 25 25 347 434 347 347> 145 84<157 303 157 318 142 303> 730 20G<185 275 275 275> 779 53<220 240.5 220 255.5> 914 53<220 240.5>
AnchorPoint: "Anchor-1" 230 0 basechar 0
LayerCount: 2
Fore
SplineSet
230 779 m 0
 180 779 136 817 136 873 c 0
 136 929 180 967 230 967 c 0
 281 967 324 929 324 873 c 0
 324 817 281 779 230 779 c 0
230 914 m 0
 210 914 189 898 189 873 c 0
 189 848 210 832 230 832 c 0
 251 832 272 848 272 873 c 0
 272 898 251 914 230 914 c 0
275 750 m 1
 434 0 l 1
 347 0 l 1
 318 145 l 1
 142 145 l 1
 112 0 l 1
 25 0 l 1
 185 750 l 1
 275 750 l 1
157 229 m 1
 303 229 l 1
 230 600 l 1
 157 229 l 1
EndSplineSet
Validated: 1
EndChar

StartChar: Atilde
Encoding: 195 195 11
Width: 459
GlyphClass: 2
Flags: MW
HStem: 0 21G<25 112 25 25 347 434 347 347> 145 84<157 303 157 318 142 303> 730 20G<185 275 275 275> 835 54<277.5 281.5 267 311.5> 885 54<175 178.5 144.5 189>
AnchorPoint: "Anchor-1" 230 0 basechar 0
LayerCount: 2
Fore
SplineSet
163 859 m 2xf0
 163 840 l 1
 98 840 l 1
 98 863 l 2
 98 914 126 939 163 939 c 0xe8
 194 939 216 925 231 914 c 0
 247 901 259 889 275 889 c 0
 288 889 294 903 294 916 c 2
 294 937 l 1
 358 937 l 1
 358 910 l 2
 358 860 330 835 293 835 c 0xf0
 262 835 244 847 227 859 c 0
 209 872 196 885 182 885 c 0xe8
 168 885 163 871 163 859 c 2xf0
275 750 m 1
 434 0 l 1
 347 0 l 1
 318 145 l 1
 142 145 l 1
 112 0 l 1
 25 0 l 1
 185 750 l 1
 275 750 l 1
157 229 m 1
 303 229 l 1
 230 600 l 1
 157 229 l 1
EndSplineSet
Validated: 1
EndChar

StartChar: AE
Encoding: 198 198 12
Width: 648
Flags: MW
HStem: 0 84<385 606 385 606> 145 84<158 301 158 301 142 301> 336 84<385 579 385 579> 666 84<248 301 248 248 385 606 385 385>
LayerCount: 2
Fore
SplineSet
25 0 m 1
 185 750 l 1
 606 750 l 1
 606 666 l 1
 385 666 l 1
 385 420 l 1
 579 420 l 1
 579 336 l 1
 385 336 l 1
 385 84 l 1
 606 84 l 1
 606 0 l 1
 301 0 l 1
 301 145 l 1
 142 145 l 1
 112 0 l 1
 25 0 l 1
158 229 m 1
 301 229 l 1
 301 666 l 1
 248 666 l 1
 158 229 l 1
EndSplineSet
Validated: 1
EndChar

StartChar: B
Encoding: 66 66 13
Width: 471
Flags: HMW
HStem: 0 84<143.998 254.998 143.998 254.998> 341 84<143.998 244.998 244.998 254.998 143.998 244.998> 666 84<143.998 143.998 143.998 244.998>
LayerCount: 2
Fore
SplineSet
364 388 m 1
 399 358 421 311 421 253 c 2
 421 172 l 2
 421 69 355 0 255 0 c 2
 60 0 l 1
 60 750 l 1
 245 750 l 2
 345 750 411 681 411 578 c 2
 411 514 l 2
 411 462 393 418 364 388 c 1
144 666 m 1
 144 425 l 1
 245 425 l 2
 295 425 327 461 327 514 c 2
 327 578 l 2
 327 631 295 666 245 666 c 2
 144 666 l 1
337 172 m 2
 337 253 l 2
 337 306 305 341 255 341 c 2
 144 341 l 1
 144 84 l 1
 255 84 l 2
 305 84 337 119 337 172 c 2
EndSplineSet
Validated: 1
EndChar

StartChar: C
Encoding: 67 67 14
Width: 457
GlyphClass: 2
Flags: HMW
HStem: -16 84<199.5 257 199.5 282> 682 84<199.5 257>
AnchorPoint: "Anchor-1" 228 0 basechar 0
LayerCount: 2
Fore
SplineSet
407 196 m 1
 407 169 l 2
 407 58 336 -16 228 -16 c 0
 120 -16 50 58 50 169 c 2
 50 581 l 2
 50 692 120 766 228 766 c 0
 336 766 407 692 407 581 c 2
 407 554 l 1
 323 554 l 1
 323 581 l 2
 323 642 286 682 228 682 c 0
 171 682 134 642 134 581 c 2
 134 169 l 2
 134 108 171 68 228 68 c 0
 286 68 323 108 323 169 c 2
 323 196 l 1
 407 196 l 1
EndSplineSet
Validated: 1
EndChar

StartChar: Cacute
Encoding: 262 262 15
Width: 476
GlyphClass: 2
Flags: MW
HStem: -16 84<224.5 282 224.5 307> 682 84<224.5 282>
AnchorPoint: "Anchor-1" 253 0 basechar 0
LayerCount: 2
Fore
SplineSet
221 814 m 1
 287 986 l 1
 372 986 l 1
 283 814 l 1
 221 814 l 1
432 196 m 1
 432 169 l 2
 432 58 361 -16 253 -16 c 0
 145 -16 75 58 75 169 c 2
 75 581 l 2
 75 692 145 766 253 766 c 0
 361 766 432 692 432 581 c 2
 432 554 l 1
 348 554 l 1
 348 581 l 2
 348 642 311 682 253 682 c 0
 196 682 159 642 159 581 c 2
 159 169 l 2
 159 108 196 68 253 68 c 0
 311 68 348 108 348 169 c 2
 348 196 l 1
 432 196 l 1
EndSplineSet
Validated: 1
EndChar

StartChar: Ccaron
Encoding: 268 268 16
Width: 476
GlyphClass: 2
Flags: MW
HStem: -16 84<224.5 282 224.5 307> 682 84<224.5 282> 840 54<219 253 253 253 253 286> 840 146<107 219 107 286>
AnchorPoint: "Anchor-1" 253 0 basechar 0
LayerCount: 2
Fore
SplineSet
219 840 m 1xd0
 107 986 l 1
 186 986 l 1xd0
 253 894 l 1xe0
 319 986 l 1
 398 986 l 1
 286 840 l 1
 219 840 l 1xd0
432 196 m 1
 432 169 l 2
 432 58 361 -16 253 -16 c 0
 145 -16 75 58 75 169 c 2
 75 581 l 2
 75 692 145 766 253 766 c 0
 361 766 432 692 432 581 c 2
 432 554 l 1
 348 554 l 1
 348 581 l 2
 348 642 311 682 253 682 c 0
 196 682 159 642 159 581 c 2
 159 169 l 2
 159 108 196 68 253 68 c 0
 311 68 348 108 348 169 c 2
 348 196 l 1
 432 196 l 1
EndSplineSet
Validated: 1
EndChar

StartChar: Ccedilla
Encoding: 199 199 17
Width: 476
GlyphClass: 2
Flags: MW
HStem: -225 61<224 292 224 292> -14 82<226 226> 682 84<224.5 282>
AnchorPoint: "Anchor-1" 253 0 basechar 0
LayerCount: 2
Fore
SplineSet
432 554 m 1
 348 554 l 1
 348 581 l 2
 348 642 311 682 253 682 c 0
 196 682 159 642 159 581 c 2
 159 169 l 2
 159 108 196 68 253 68 c 0
 311 68 348 108 348 169 c 2
 348 196 l 1
 432 196 l 1
 432 169 l 2
 432 70 376 1 288 -13 c 1
 288 -47 l 1
 350 -40 390 -84 390 -132 c 0
 390 -188 351 -225 292 -225 c 2
 224 -225 l 1
 224 -164 l 1
 292 -164 l 2
 313 -164 328 -151 328 -132 c 0
 328 -113 313 -99 292 -99 c 2
 254 -99 l 1
 226 -81 l 1
 226 -14 l 1
 133 -3 75 68 75 169 c 2
 75 581 l 2
 75 692 145 766 253 766 c 0
 361 766 432 692 432 581 c 2
 432 554 l 1
EndSplineSet
Validated: 33
EndChar

StartChar: Ccircumflex
Encoding: 264 264 18
Width: 476
GlyphClass: 2
Flags: MW
HStem: -16 84<224.5 282 224.5 307> 682 84<224.5 282> 840 146<107 286 107 286 219 319 219 398> 932 54<253 253>
AnchorPoint: "Anchor-1" 253 0 basechar 0
LayerCount: 2
Fore
SplineSet
107 840 m 1xe0
 219 986 l 1
 286 986 l 1
 398 840 l 1
 319 840 l 1xe0
 253 932 l 1xd0
 186 840 l 1
 107 840 l 1xe0
432 196 m 1
 432 169 l 2
 432 58 361 -16 253 -16 c 0
 145 -16 75 58 75 169 c 2
 75 581 l 2
 75 692 145 766 253 766 c 0
 361 766 432 692 432 581 c 2
 432 554 l 1
 348 554 l 1
 348 581 l 2
 348 642 311 682 253 682 c 0
 196 682 159 642 159 581 c 2
 159 169 l 2
 159 108 196 68 253 68 c 0
 311 68 348 108 348 169 c 2
 348 196 l 1
 432 196 l 1
EndSplineSet
Validated: 1
EndChar

StartChar: Cdotaccent
Encoding: 266 266 19
Width: 476
GlyphClass: 2
Flags: MW
HStem: -16 84<224.5 282 224.5 307> 682 84<224.5 282> 839 117<217 289 217 289>
AnchorPoint: "Anchor-1" 253 0 basechar 0
LayerCount: 2
Fore
SplineSet
217 839 m 1
 217 956 l 1
 289 956 l 1
 289 839 l 1
 217 839 l 1
432 196 m 1
 432 169 l 2
 432 58 361 -16 253 -16 c 0
 145 -16 75 58 75 169 c 2
 75 581 l 2
 75 692 145 766 253 766 c 0
 361 766 432 692 432 581 c 2
 432 554 l 1
 348 554 l 1
 348 581 l 2
 348 642 311 682 253 682 c 0
 196 682 159 642 159 581 c 2
 159 169 l 2
 159 108 196 68 253 68 c 0
 311 68 348 108 348 169 c 2
 348 196 l 1
 432 196 l 1
EndSplineSet
Validated: 1
EndChar

StartChar: D
Encoding: 68 68 20
Width: 451
GlyphClass: 2
Flags: HMW
HStem: 0 84<134 222 134 222> 666 84<134 222 134 134>
AnchorPoint: "Anchor-1" 218 0 basechar 0
LayerCount: 2
Fore
SplineSet
50 0 m 1
 50 750 l 1
 222 750 l 2
 330 750 401 676 401 565 c 2
 401 185 l 2
 401 74 330 0 222 0 c 2
 50 0 l 1
134 84 m 1
 222 84 l 2
 280 84 317 124 317 185 c 2
 317 565 l 2
 317 626 280 666 222 666 c 2
 134 666 l 1
 134 84 l 1
EndSplineSet
Validated: 1
EndChar

StartChar: Eth
Encoding: 208 208 21
Width: 507
GlyphClass: 2
Flags: MW
HStem: 0 84<170 258 170 258> 340 70<9 86 9 86 170 246> 666 84<170 258 170 170>
AnchorPoint: "Anchor-1" 254 0 basechar 0
LayerCount: 2
Fore
SplineSet
258 750 m 2
 366 750 437 676 437 565 c 2
 437 185 l 2
 437 74 366 0 258 0 c 2
 86 0 l 1
 86 340 l 1
 9 340 l 1
 9 410 l 1
 86 410 l 1
 86 750 l 1
 258 750 l 2
353 185 m 2
 353 565 l 2
 353 626 316 666 258 666 c 2
 170 666 l 1
 170 410 l 1
 246 410 l 1
 246 340 l 1
 170 340 l 1
 170 84 l 1
 258 84 l 2
 316 84 353 124 353 185 c 2
EndSplineSet
Validated: 1
EndChar

StartChar: Dcaron
Encoding: 270 270 22
Width: 507
GlyphClass: 2
Flags: MW
HStem: 0 84<170 258 170 258> 666 84<170 258 170 170> 840 54<220 254 254 254 254 287> 840 146<108 220 108 287>
AnchorPoint: "Anchor-1" 254 0 basechar 0
LayerCount: 2
Fore
SplineSet
220 840 m 1xd0
 108 986 l 1
 187 986 l 1xd0
 254 894 l 1xe0
 320 986 l 1
 399 986 l 1
 287 840 l 1
 220 840 l 1xd0
86 0 m 1
 86 750 l 1
 258 750 l 2
 366 750 437 676 437 565 c 2
 437 185 l 2
 437 74 366 0 258 0 c 2
 86 0 l 1
170 84 m 1
 258 84 l 2
 316 84 353 124 353 185 c 2
 353 565 l 2
 353 626 316 666 258 666 c 2
 170 666 l 1
 170 84 l 1
EndSplineSet
Validated: 1
EndChar

StartChar: Dcroat
Encoding: 272 272 23
Width: 507
GlyphClass: 2
Flags: MW
HStem: 0 84<170 258 170 258> 340 70<9 86 9 86 170 246> 666 84<170 258 170 170>
AnchorPoint: "Anchor-1" 254 0 basechar 0
LayerCount: 2
Fore
SplineSet
258 750 m 2
 366 750 437 676 437 565 c 2
 437 185 l 2
 437 74 366 0 258 0 c 2
 86 0 l 1
 86 340 l 1
 9 340 l 1
 9 410 l 1
 86 410 l 1
 86 750 l 1
 258 750 l 2
353 185 m 2
 353 565 l 2
 353 626 316 666 258 666 c 2
 170 666 l 1
 170 410 l 1
 246 410 l 1
 246 340 l 1
 170 340 l 1
 170 84 l 1
 258 84 l 2
 316 84 353 124 353 185 c 2
EndSplineSet
Validated: 1
EndChar

StartChar: E
Encoding: 69 69 24
Width: 413
GlyphClass: 2
Flags: HMW
HStem: 0 84<144 363 144 363> 336 84<144 336 144 336> 666 84<144 363 144 144>
AnchorPoint: "Anchor-1" 212 0 basechar 0
LayerCount: 2
Fore
SplineSet
363 750 m 1
 363 666 l 1
 144 666 l 1
 144 420 l 1
 336 420 l 1
 336 336 l 1
 144 336 l 1
 144 84 l 1
 363 84 l 1
 363 0 l 1
 60 0 l 1
 60 750 l 1
 363 750 l 1
EndSplineSet
Validated: 1
EndChar

StartChar: Eacute
Encoding: 201 201 25
Width: 431
GlyphClass: 2
Flags: MW
HStem: 0 84<170 389 170 389> 336 84<170 362 170 362> 666 84<170 389 170 170>
AnchorPoint: "Anchor-1" 238 0 basechar 0
LayerCount: 2
Fore
SplineSet
180 814 m 1
 246 986 l 1
 331 986 l 1
 242 814 l 1
 180 814 l 1
389 750 m 1
 389 666 l 1
 170 666 l 1
 170 420 l 1
 362 420 l 1
 362 336 l 1
 170 336 l 1
 170 84 l 1
 389 84 l 1
 389 0 l 1
 86 0 l 1
 86 750 l 1
 389 750 l 1
EndSplineSet
Validated: 1
EndChar

StartChar: Ebreve
Encoding: 276 276 26
Width: 431
GlyphClass: 2
Flags: MW
HStem: 0 84<170 389 170 389> 336 84<170 362 170 362> 666 84<170 389 170 170> 868 52<196.5 227.5 196.5 244.5> 966 20G<99 157 157 157 266 323 323 323>
AnchorPoint: "Anchor-1" 238 0 basechar 0
LayerCount: 2
Fore
SplineSet
212 868 m 0
 147 868 99 911 99 976 c 2
 99 986 l 1
 157 986 l 1
 157 976 l 2
 157 942 181 920 212 920 c 0
 243 920 266 942 266 976 c 2
 266 986 l 1
 323 986 l 1
 323 976 l 2
 323 911 277 868 212 868 c 0
389 750 m 1
 389 666 l 1
 170 666 l 1
 170 420 l 1
 362 420 l 1
 362 336 l 1
 170 336 l 1
 170 84 l 1
 389 84 l 1
 389 0 l 1
 86 0 l 1
 86 750 l 1
 389 750 l 1
EndSplineSet
Validated: 1
EndChar

StartChar: Ecaron
Encoding: 282 282 27
Width: 431
GlyphClass: 2
Flags: MW
HStem: 0 84<170 389 170 389> 336 84<170 362 170 362> 666 84<170 389 170 170> 840 54<178 212 212 212 212 245> 840 146<66 178 66 245>
AnchorPoint: "Anchor-1" 238 0 basechar 0
LayerCount: 2
Fore
SplineSet
178 840 m 1xe8
 66 986 l 1
 145 986 l 1xe8
 212 894 l 1xf0
 278 986 l 1
 357 986 l 1
 245 840 l 1
 178 840 l 1xe8
389 750 m 1
 389 666 l 1
 170 666 l 1
 170 420 l 1
 362 420 l 1
 362 336 l 1
 170 336 l 1
 170 84 l 1
 389 84 l 1
 389 0 l 1
 86 0 l 1
 86 750 l 1
 389 750 l 1
EndSplineSet
Validated: 1
EndChar

StartChar: Ecircumflex
Encoding: 202 202 28
Width: 431
GlyphClass: 2
Flags: MW
HStem: 0 84<170 389 170 389> 336 84<170 362 170 362> 666 84<170 389 170 170> 840 146<66 245 66 245 178 278 178 357> 932 54<212 212>
AnchorPoint: "Anchor-1" 238 0 basechar 0
LayerCount: 2
Fore
SplineSet
66 840 m 1xf0
 178 986 l 1
 245 986 l 1
 357 840 l 1
 278 840 l 1xf0
 212 932 l 1xe8
 145 840 l 1
 66 840 l 1xf0
389 750 m 1
 389 666 l 1
 170 666 l 1
 170 420 l 1
 362 420 l 1
 362 336 l 1
 170 336 l 1
 170 84 l 1
 389 84 l 1
 389 0 l 1
 86 0 l 1
 86 750 l 1
 389 750 l 1
EndSplineSet
Validated: 1
EndChar

StartChar: Edieresis
Encoding: 203 203 29
Width: 431
GlyphClass: 2
Flags: MW
HStem: 0 84<170 389 170 389> 336 84<170 362 170 362> 666 84<170 389 170 170> 869 117<107 179 107 179 250 321 107 250>
AnchorPoint: "Anchor-1" 238 0 basechar 0
LayerCount: 2
Fore
SplineSet
107 869 m 1
 107 986 l 1
 179 986 l 1
 179 869 l 1
 107 869 l 1
250 869 m 1
 250 986 l 1
 321 986 l 1
 321 869 l 1
 250 869 l 1
389 750 m 1
 389 666 l 1
 170 666 l 1
 170 420 l 1
 362 420 l 1
 362 336 l 1
 170 336 l 1
 170 84 l 1
 389 84 l 1
 389 0 l 1
 86 0 l 1
 86 750 l 1
 389 750 l 1
EndSplineSet
Validated: 1
EndChar

StartChar: Edotaccent
Encoding: 278 278 30
Width: 431
GlyphClass: 2
Flags: MW
HStem: 0 84<170 389 170 389> 336 84<170 362 170 362> 666 84<170 389 170 170> 839 117<176 248 176 248>
AnchorPoint: "Anchor-1" 238 0 basechar 0
LayerCount: 2
Fore
SplineSet
176 839 m 1
 176 956 l 1
 248 956 l 1
 248 839 l 1
 176 839 l 1
389 750 m 1
 389 666 l 1
 170 666 l 1
 170 420 l 1
 362 420 l 1
 362 336 l 1
 170 336 l 1
 170 84 l 1
 389 84 l 1
 389 0 l 1
 86 0 l 1
 86 750 l 1
 389 750 l 1
EndSplineSet
Validated: 1
EndChar

StartChar: Egrave
Encoding: 200 200 31
Width: 431
GlyphClass: 2
Flags: MW
HStem: 0 84<170 389 170 389> 336 84<170 362 170 362> 666 84<170 389 170 170>
AnchorPoint: "Anchor-1" 238 0 basechar 0
LayerCount: 2
Fore
SplineSet
183 814 m 1
 93 986 l 1
 179 986 l 1
 245 814 l 1
 183 814 l 1
389 750 m 1
 389 666 l 1
 170 666 l 1
 170 420 l 1
 362 420 l 1
 362 336 l 1
 170 336 l 1
 170 84 l 1
 389 84 l 1
 389 0 l 1
 86 0 l 1
 86 750 l 1
 389 750 l 1
EndSplineSet
Validated: 1
EndChar

StartChar: Emacron
Encoding: 274 274 32
Width: 431
GlyphClass: 2
Flags: MW
HStem: 0 84<170 389 170 389> 336 84<170 362 170 362> 666 84<170 389 170 170> 831 63<101 322 101 322>
AnchorPoint: "Anchor-1" 238 0 basechar 0
LayerCount: 2
Fore
SplineSet
101 894 m 1
 322 894 l 1
 322 831 l 1
 101 831 l 1
 101 894 l 1
389 750 m 1
 389 666 l 1
 170 666 l 1
 170 420 l 1
 362 420 l 1
 362 336 l 1
 170 336 l 1
 170 84 l 1
 389 84 l 1
 389 0 l 1
 86 0 l 1
 86 750 l 1
 389 750 l 1
EndSplineSet
Validated: 1
EndChar

StartChar: Eogonek
Encoding: 280 280 33
Width: 431
GlyphClass: 2
Flags: MW
HStem: -213 62<234 292 277 292 277 292> 0 84<170 211 272 389 272 272> 336 84<170 362 170 362> 666 84<170 389 170 170>
AnchorPoint: "Anchor-1" 238 0 basechar 0
LayerCount: 2
Fore
SplineSet
389 666 m 1
 170 666 l 1
 170 420 l 1
 362 420 l 1
 362 336 l 1
 170 336 l 1
 170 84 l 1
 389 84 l 1
 389 0 l 1
 272 0 l 1
 234 -31 213 -62 213 -99 c 0
 213 -130 236 -151 277 -151 c 2
 292 -151 l 1
 292 -213 l 1
 273 -213 l 2
 195 -213 150 -172 150 -112 c 0
 150 -68 171 -32 211 0 c 1
 86 0 l 1
 86 750 l 1
 389 750 l 1
 389 666 l 1
EndSplineSet
Validated: 1
EndChar

StartChar: F
Encoding: 70 70 34
Width: 403
Flags: HMW
HStem: 0 21G<60 60 60 144> 285 84<144 336 144 336> 666 84<144 363 144 144>
LayerCount: 2
Fore
SplineSet
60 0 m 1
 60 750 l 1
 363 750 l 1
 363 666 l 1
 144 666 l 1
 144 369 l 1
 336 369 l 1
 336 285 l 1
 144 285 l 1
 144 0 l 1
 60 0 l 1
EndSplineSet
Validated: 1
EndChar

StartChar: G
Encoding: 71 71 35
Width: 457
GlyphClass: 2
Flags: HMW
HStem: -16 84<199.5 257 199.5 282> 278 84<228 323 228 407> 682 84<199.5 257>
AnchorPoint: "Anchor-1" 228 0 basechar 0
LayerCount: 2
Fore
SplineSet
228 -16 m 0
 120 -16 50 58 50 169 c 2
 50 581 l 2
 50 692 120 766 228 766 c 0
 336 766 407 692 407 581 c 2
 407 554 l 1
 323 554 l 1
 323 581 l 2
 323 642 286 682 228 682 c 0
 171 682 134 642 134 581 c 2
 134 169 l 2
 134 108 171 68 228 68 c 0
 286 68 323 108 323 169 c 2
 323 278 l 1
 228 278 l 1
 228 362 l 1
 407 362 l 1
 407 169 l 2
 407 58 336 -16 228 -16 c 0
EndSplineSet
Validated: 1
Substitution2: "'ss03' Style Set 3 in Latin lookup 24 subtable" G.ss03
Substitution2: "'salt' Stylistic Alternatives in Latin lookup 21 subtable" G.ss03
Substitution2: "'aalt' Access All Alternates in Latin lookup 0 subtable" G.ss03
EndChar

StartChar: Gbreve
Encoding: 286 286 36
Width: 494
GlyphClass: 2
Flags: MW
HStem: -16 84<224.5 282 224.5 307> 278 84<253 348 253 432> 682 84<224.5 282> 868 52<237.5 268.5 237.5 285.5> 966 20G<140 198 198 198 307 364 364 364>
AnchorPoint: "Anchor-1" 253 0 basechar 0
LayerCount: 2
Fore
SplineSet
253 868 m 0
 188 868 140 911 140 976 c 2
 140 986 l 1
 198 986 l 1
 198 976 l 2
 198 942 222 920 253 920 c 0
 284 920 307 942 307 976 c 2
 307 986 l 1
 364 986 l 1
 364 976 l 2
 364 911 318 868 253 868 c 0
253 -16 m 0
 145 -16 75 58 75 169 c 2
 75 581 l 2
 75 692 145 766 253 766 c 0
 361 766 432 692 432 581 c 2
 432 554 l 1
 348 554 l 1
 348 581 l 2
 348 642 311 682 253 682 c 0
 196 682 159 642 159 581 c 2
 159 169 l 2
 159 108 196 68 253 68 c 0
 311 68 348 108 348 169 c 2
 348 278 l 1
 253 278 l 1
 253 362 l 1
 432 362 l 1
 432 169 l 2
 432 58 361 -16 253 -16 c 0
EndSplineSet
Validated: 1
Substitution2: "'ss03' Style Set 3 in Latin lookup 24 subtable" Gbreve.ss03
Substitution2: "'salt' Stylistic Alternatives in Latin lookup 21 subtable" Gbreve.ss03
Substitution2: "'aalt' Access All Alternates in Latin lookup 0 subtable" Gbreve.ss03
EndChar

StartChar: Gcircumflex
Encoding: 284 284 37
Width: 494
GlyphClass: 2
Flags: MW
HStem: -16 84<224.5 282 224.5 307> 278 84<253 348 253 432> 682 84<224.5 282> 840 146<107 286 107 286 219 319 219 398> 932 54<253 253>
AnchorPoint: "Anchor-1" 253 0 basechar 0
LayerCount: 2
Fore
SplineSet
107 840 m 1xf0
 219 986 l 1
 286 986 l 1xe8
 398 840 l 1
 319 840 l 1xf0
 253 932 l 1xe8
 186 840 l 1
 107 840 l 1xf0
253 -16 m 0
 145 -16 75 58 75 169 c 2
 75 581 l 2
 75 692 145 766 253 766 c 0
 361 766 432 692 432 581 c 2
 432 554 l 1
 348 554 l 1
 348 581 l 2
 348 642 311 682 253 682 c 0
 196 682 159 642 159 581 c 2
 159 169 l 2
 159 108 196 68 253 68 c 0
 311 68 348 108 348 169 c 2
 348 278 l 1
 253 278 l 1
 253 362 l 1
 432 362 l 1
 432 169 l 2
 432 58 361 -16 253 -16 c 0
EndSplineSet
Validated: 1
Substitution2: "'ss03' Style Set 3 in Latin lookup 24 subtable" Gcircumflex.ss03
Substitution2: "'salt' Stylistic Alternatives in Latin lookup 21 subtable" Gcircumflex.ss03
Substitution2: "'aalt' Access All Alternates in Latin lookup 0 subtable" Gcircumflex.ss03
EndChar

StartChar: Gcommaaccent
Encoding: 290 290 38
Width: 494
GlyphClass: 2
Flags: MW
HStem: -220 159<191 307 215 246> -16 84<224.5 282 224.5 307> 278 84<253 348 253 432> 682 84<224.5 282>
AnchorPoint: "Anchor-1" 253 0 basechar 0
LayerCount: 2
Fore
SplineSet
253 -16 m 0
 145 -16 75 58 75 169 c 2
 75 581 l 2
 75 692 145 766 253 766 c 0
 361 766 432 692 432 581 c 2
 432 554 l 1
 348 554 l 1
 348 581 l 2
 348 642 311 682 253 682 c 0
 196 682 159 642 159 581 c 2
 159 169 l 2
 159 108 196 68 253 68 c 0
 311 68 348 108 348 169 c 2
 348 278 l 1
 253 278 l 1
 253 362 l 1
 432 362 l 1
 432 169 l 2
 432 58 361 -16 253 -16 c 0
191 -220 m 1
 215 -61 l 1
 307 -61 l 1
 246 -220 l 1
 191 -220 l 1
EndSplineSet
Validated: 1
Substitution2: "'ss03' Style Set 3 in Latin lookup 24 subtable" Gcommaaccent.ss03
Substitution2: "'salt' Stylistic Alternatives in Latin lookup 21 subtable" Gcommaaccent.ss03
Substitution2: "'aalt' Access All Alternates in Latin lookup 0 subtable" Gcommaaccent.ss03
EndChar

StartChar: Gdotaccent
Encoding: 288 288 39
Width: 494
GlyphClass: 2
Flags: MW
HStem: -16 84<224.5 282 224.5 307> 278 84<253 348 253 432> 682 84<224.5 282> 839 117<217 289 217 289>
AnchorPoint: "Anchor-1" 253 0 basechar 0
LayerCount: 2
Fore
SplineSet
217 839 m 1
 217 956 l 1
 289 956 l 1
 289 839 l 1
 217 839 l 1
253 -16 m 0
 145 -16 75 58 75 169 c 2
 75 581 l 2
 75 692 145 766 253 766 c 0
 361 766 432 692 432 581 c 2
 432 554 l 1
 348 554 l 1
 348 581 l 2
 348 642 311 682 253 682 c 0
 196 682 159 642 159 581 c 2
 159 169 l 2
 159 108 196 68 253 68 c 0
 311 68 348 108 348 169 c 2
 348 278 l 1
 253 278 l 1
 253 362 l 1
 432 362 l 1
 432 169 l 2
 432 58 361 -16 253 -16 c 0
EndSplineSet
Validated: 1
Substitution2: "'ss03' Style Set 3 in Latin lookup 24 subtable" Gdotaccent.ss03
Substitution2: "'salt' Stylistic Alternatives in Latin lookup 21 subtable" Gdotaccent.ss03
Substitution2: "'aalt' Access All Alternates in Latin lookup 0 subtable" Gdotaccent.ss03
EndChar

StartChar: H
Encoding: 72 72 40
Width: 463
GlyphClass: 2
Flags: HMW
HStem: 0 21G<60.0002 60.0002 60.0002 144 319 319 319 403> 285 84<144 319 144 319> 730 20G<60.0002 144 144 144 319 403 403 403>
AnchorPoint: "Anchor-1" 232 0 basechar 0
LayerCount: 2
Fore
SplineSet
60 0 m 1
 60 750 l 1
 144 750 l 1
 144 369 l 1
 319 369 l 1
 319 750 l 1
 403 750 l 1
 403 0 l 1
 319 0 l 1
 319 285 l 1
 144 285 l 1
 144 0 l 1
 60 0 l 1
EndSplineSet
Validated: 1
EndChar

StartChar: Hbar
Encoding: 294 294 41
Width: 515
GlyphClass: 2
Flags: MW
HStem: 0 21G<86 170 86 86 345 429 345 345> 285 84<170 345 170 345> 509 70<33 86 33 86 170 345 429 483> 730 20G<86 170 170 170 345 429 429 429>
AnchorPoint: "Anchor-1" 258 0 basechar 0
LayerCount: 2
Fore
SplineSet
483 579 m 1
 483 509 l 1
 429 509 l 1
 429 0 l 1
 345 0 l 1
 345 285 l 1
 170 285 l 1
 170 0 l 1
 86 0 l 1
 86 509 l 1
 33 509 l 1
 33 579 l 1
 86 579 l 1
 86 750 l 1
 170 750 l 1
 170 579 l 1
 345 579 l 1
 345 750 l 1
 429 750 l 1
 429 579 l 1
 483 579 l 1
345 369 m 1
 345 509 l 1
 170 509 l 1
 170 369 l 1
 345 369 l 1
EndSplineSet
Validated: 1
EndChar

StartChar: Hcircumflex
Encoding: 292 292 42
Width: 515
GlyphClass: 2
Flags: MW
HStem: 0 21G<86 86 86 170 345 345 345 429> 285 84<170 345 170 345> 730 20G<86 170 170 170 345 429 429 429> 840 146<112 291 112 291 224 324 224 403> 932 54<258 258>
AnchorPoint: "Anchor-1" 258 0 basechar 0
LayerCount: 2
Fore
SplineSet
112 840 m 1xf0
 224 986 l 1
 291 986 l 1
 403 840 l 1
 324 840 l 1xf0
 258 932 l 1xe8
 191 840 l 1
 112 840 l 1xf0
86 0 m 1
 86 750 l 1
 170 750 l 1
 170 369 l 1
 345 369 l 1
 345 750 l 1
 429 750 l 1
 429 0 l 1
 345 0 l 1
 345 285 l 1
 170 285 l 1
 170 0 l 1
 86 0 l 1
EndSplineSet
Validated: 1
EndChar

StartChar: I
Encoding: 73 73 43
Width: 224
GlyphClass: 2
Flags: HMW
HStem: 0 21G<69.9994 153.999 69.9994 69.9994> 730 20G<69.9994 153.999 153.999 153.999>
AnchorPoint: "Anchor-1" 112 0 basechar 0
LayerCount: 2
Fore
SplineSet
154 0 m 1
 70 0 l 1
 70 750 l 1
 154 750 l 1
 154 0 l 1
EndSplineSet
Validated: 1
EndChar

StartChar: IJ
Encoding: 306 306 44
Width: 584
GlyphClass: 2
Flags: MW
HStem: -6 84<273 326 273 326> 0 21G<86 170 86 86> 730 20G<86 170 170 170 421 505 505 505>
AnchorPoint: "Anchor-1" 431 0 basechar 0
LayerCount: 2
Fore
SplineSet
170 0 m 1x60
 86 0 l 1
 86 750 l 1
 170 750 l 1
 170 0 l 1x60
273 -6 m 1xa0
 273 78 l 1
 326 78 l 2
 383 78 421 118 421 179 c 2
 421 750 l 1
 505 750 l 1
 505 179 l 2
 505 68 434 -6 326 -6 c 2
 273 -6 l 1xa0
EndSplineSet
Validated: 1
Substitution2: "'ss04' Style Set 4 in Latin lookup 25 subtable" IJ.ss04
Substitution2: "'salt' Stylistic Alternatives in Latin lookup 21 subtable" IJ.ss04
Substitution2: "'aalt' Access All Alternates in Latin lookup 0 subtable" IJ.ss04
EndChar

StartChar: Iacute
Encoding: 205 205 45
Width: 256
GlyphClass: 2
Flags: MW
HStem: 0 21G<86 170 86 86> 730 20G<86 170 170 170>
AnchorPoint: "Anchor-1" 128 0 basechar 0
LayerCount: 2
Fore
SplineSet
96 814 m 1
 162 986 l 1
 247 986 l 1
 158 814 l 1
 96 814 l 1
170 0 m 1
 86 0 l 1
 86 750 l 1
 170 750 l 1
 170 0 l 1
EndSplineSet
Validated: 1
EndChar

StartChar: Icircumflex
Encoding: 206 206 46
Width: 256
GlyphClass: 2
Flags: MW
HStem: 0 21G<86 170 86 86> 730 20G<86 170 170 170> 840 146<-18 161 -18 161 94 194 94 273> 932 54<128 128>
AnchorPoint: "Anchor-1" 128 0 basechar 0
LayerCount: 2
Fore
SplineSet
-18 840 m 1xe0
 94 986 l 1
 161 986 l 1xd0
 273 840 l 1
 194 840 l 1xe0
 128 932 l 1xd0
 61 840 l 1
 -18 840 l 1xe0
170 0 m 1
 86 0 l 1
 86 750 l 1
 170 750 l 1
 170 0 l 1
EndSplineSet
Validated: 1
EndChar

StartChar: Idieresis
Encoding: 207 207 47
Width: 256
GlyphClass: 2
Flags: MW
HStem: 0 21G<86 170 86 86> 730 20G<86 170 170 170> 869 117<23 95 23 95 166 237 23 166>
AnchorPoint: "Anchor-1" 128 0 basechar 0
LayerCount: 2
Fore
SplineSet
23 869 m 1
 23 986 l 1
 95 986 l 1
 95 869 l 1
 23 869 l 1
166 869 m 1
 166 986 l 1
 237 986 l 1
 237 869 l 1
 166 869 l 1
170 0 m 1
 86 0 l 1
 86 750 l 1
 170 750 l 1
 170 0 l 1
EndSplineSet
Validated: 1
EndChar

StartChar: Idotaccent
Encoding: 304 304 48
Width: 256
GlyphClass: 2
Flags: MW
HStem: 0 21G<86 170 86 86> 730 20G<86 170 170 170> 839 117<92 164 92 164>
AnchorPoint: "Anchor-1" 128 0 basechar 0
LayerCount: 2
Fore
SplineSet
92 839 m 1
 92 956 l 1
 164 956 l 1
 164 839 l 1
 92 839 l 1
170 0 m 1
 86 0 l 1
 86 750 l 1
 170 750 l 1
 170 0 l 1
EndSplineSet
Validated: 1
EndChar

StartChar: Igrave
Encoding: 204 204 49
Width: 256
GlyphClass: 2
Flags: MW
HStem: 0 21G<86 170 86 86> 730 20G<86 170 170 170>
AnchorPoint: "Anchor-1" 128 0 basechar 0
LayerCount: 2
Fore
SplineSet
99 814 m 1
 9 986 l 1
 95 986 l 1
 161 814 l 1
 99 814 l 1
170 0 m 1
 86 0 l 1
 86 750 l 1
 170 750 l 1
 170 0 l 1
EndSplineSet
Validated: 1
EndChar

StartChar: Imacron
Encoding: 298 298 50
Width: 256
GlyphClass: 2
Flags: MW
HStem: 0 21G<86 170 86 86> 730 20G<86 170 170 170> 831 63<17 238 17 238>
AnchorPoint: "Anchor-1" 128 0 basechar 0
LayerCount: 2
Fore
SplineSet
17 894 m 1
 238 894 l 1
 238 831 l 1
 17 831 l 1
 17 894 l 1
170 0 m 1
 86 0 l 1
 86 750 l 1
 170 750 l 1
 170 0 l 1
EndSplineSet
Validated: 1
EndChar

StartChar: Iogonek
Encoding: 302 302 51
Width: 256
GlyphClass: 2
Flags: MW
HStem: -213 62<106 164 149 164 149 164> -20 20G<144 144 144 170> 3 21G<86 86> 730 20G<86 170 170 170>
AnchorPoint: "Anchor-1" 128 0 basechar 0
LayerCount: 2
Fore
SplineSet
144 0 m 1
 106 -31 85 -62 85 -99 c 0
 85 -130 108 -151 149 -151 c 2
 164 -151 l 1
 164 -213 l 1
 145 -213 l 2
 67 -213 22 -172 22 -112 c 0
 22 -66 44 -30 86 3 c 1
 86 750 l 1
 170 750 l 1
 170 0 l 1
 144 0 l 1
EndSplineSet
Validated: 1
EndChar

StartChar: Itilde
Encoding: 296 296 52
Width: 256
GlyphClass: 2
Flags: MW
HStem: 0 21G<86 170 86 86> 730 20G<86 170 170 170> 835 54<175.5 179.5 165 209.5> 885 54<73 76.5 42.5 87>
AnchorPoint: "Anchor-1" 128 0 basechar 0
LayerCount: 2
Fore
SplineSet
191 835 m 0xe0
 160 835 142 847 125 859 c 0
 107 872 94 885 80 885 c 0
 66 885 61 871 61 859 c 2
 61 840 l 1
 -4 840 l 1
 -4 863 l 2
 -4 914 24 939 61 939 c 0xd0
 92 939 114 925 129 914 c 0
 145 901 157 889 173 889 c 0
 186 889 192 903 192 916 c 2
 192 937 l 1
 256 937 l 1
 256 910 l 2
 256 860 228 835 191 835 c 0xe0
170 0 m 1
 86 0 l 1
 86 750 l 1
 170 750 l 1
 170 0 l 1
EndSplineSet
Validated: 1
EndChar

StartChar: J
Encoding: 74 74 53
Width: 322
GlyphClass: 2
Flags: HMW
HStem: -6 84<30.0005 83.0005 30.0005 83.0005> 730 20G<178.001 262.001 262.001 262.001>
AnchorPoint: "Anchor-1" 188 0 basechar 0
LayerCount: 2
Fore
SplineSet
30 -6 m 1
 30 78 l 1
 83 78 l 2
 140 78 178 118 178 179 c 2
 178 750 l 1
 262 750 l 1
 262 179 l 2
 262 68 191 -6 83 -6 c 2
 30 -6 l 1
EndSplineSet
Validated: 1
Substitution2: "'ss04' Style Set 4 in Latin lookup 25 subtable" J.ss04
Substitution2: "'salt' Stylistic Alternatives in Latin lookup 21 subtable" J.ss04
Substitution2: "'aalt' Access All Alternates in Latin lookup 0 subtable" J.ss04
EndChar

StartChar: Jcircumflex
Encoding: 308 308 54
Width: 328
GlyphClass: 2
Flags: MW
HStem: -6 84<17 70 17 70> 730 20G<165 249 249 249> 840 146<59 238 59 238 171 271 171 350> 932 54<205 205>
AnchorPoint: "Anchor-1" 175 0 basechar 0
LayerCount: 2
Fore
SplineSet
59 840 m 1xe0
 171 986 l 1
 238 986 l 1xd0
 350 840 l 1
 271 840 l 1xe0
 205 932 l 1xd0
 138 840 l 1
 59 840 l 1xe0
17 -6 m 1
 17 78 l 1
 70 78 l 2
 127 78 165 118 165 179 c 2
 165 750 l 1
 249 750 l 1
 249 179 l 2
 249 68 178 -6 70 -6 c 2
 17 -6 l 1
EndSplineSet
Validated: 1
Substitution2: "'ss04' Style Set 4 in Latin lookup 25 subtable" Jcircumflex.ss04
Substitution2: "'salt' Stylistic Alternatives in Latin lookup 21 subtable" Jcircumflex.ss04
Substitution2: "'aalt' Access All Alternates in Latin lookup 0 subtable" Jcircumflex.ss04
EndChar

StartChar: K
Encoding: 75 75 55
Width: 474
GlyphClass: 2
Flags: HMW
HStem: 0 21G<60 144 60 60 353 444 353 353> 730 20G<60 144 144 144 339 429 429 429>
AnchorPoint: "Anchor-1" 212 0 basechar 0
LayerCount: 2
Fore
SplineSet
238 469 m 1
 444 0 l 1
 353 0 l 1
 181 385 l 1
 144 331 l 1
 144 0 l 1
 60 0 l 1
 60 750 l 1
 144 750 l 1
 144 469 l 1
 339 750 l 1
 429 750 l 1
 238 469 l 1
EndSplineSet
Validated: 1
EndChar

StartChar: Kcommaaccent
Encoding: 310 310 56
Width: 492
GlyphClass: 2
Flags: MW
HStem: -220 159<176 292 200 231> 0 21G<86 170 86 86 379 470 379 379> 730 20G<86 170 170 170 365 455 455 455>
AnchorPoint: "Anchor-1" 238 0 basechar 0
LayerCount: 2
Fore
SplineSet
264 469 m 1
 470 0 l 1
 379 0 l 1
 207 385 l 1
 170 331 l 1
 170 0 l 1
 86 0 l 1
 86 750 l 1
 170 750 l 1
 170 469 l 1
 365 750 l 1
 455 750 l 1
 264 469 l 1
176 -220 m 1
 200 -61 l 1
 292 -61 l 1
 231 -220 l 1
 176 -220 l 1
EndSplineSet
Validated: 1
EndChar

StartChar: L
Encoding: 76 76 57
Width: 393
GlyphClass: 2
Flags: HMW
HStem: 0 84<144 343 144 343> 730 20G<60 144 144 144>
AnchorPoint: "Anchor-1" 157 0 basechar 0
LayerCount: 2
Fore
SplineSet
144 750 m 1
 144 84 l 1
 343 84 l 1
 343 0 l 1
 60 0 l 1
 60 750 l 1
 144 750 l 1
EndSplineSet
Validated: 1
EndChar

StartChar: Lacute
Encoding: 313 313 58
Width: 389
GlyphClass: 2
Flags: MW
HStem: 0 84<170 369 170 369> 730 20G<86 170 170 170>
AnchorPoint: "Anchor-1" 183 0 basechar 0
LayerCount: 2
Fore
SplineSet
151 814 m 1
 217 986 l 1
 302 986 l 1
 213 814 l 1
 151 814 l 1
170 750 m 1
 170 84 l 1
 369 84 l 1
 369 0 l 1
 86 0 l 1
 86 750 l 1
 170 750 l 1
EndSplineSet
Validated: 1
EndChar

StartChar: Lcaron
Encoding: 317 317 59
Width: 389
GlyphClass: 2
Flags: MW
HStem: 0 84<170 369 170 369> 730 20G<86 170 170 170> 840 54<149 183 183 183 183 216> 840 146<37 149 37 216>
AnchorPoint: "Anchor-1" 183 0 basechar 0
LayerCount: 2
Fore
SplineSet
149 840 m 1xd0
 37 986 l 1
 116 986 l 1xd0
 183 894 l 1xe0
 249 986 l 1
 328 986 l 1
 216 840 l 1
 149 840 l 1xd0
170 750 m 1
 170 84 l 1
 369 84 l 1
 369 0 l 1
 86 0 l 1
 86 750 l 1
 170 750 l 1
EndSplineSet
Validated: 1
EndChar

StartChar: Lcommaaccent
Encoding: 315 315 60
Width: 389
GlyphClass: 2
Flags: MW
HStem: -220 159<121 237 145 176> 0 84<170 369 170 369> 730 20G<86 170 170 170>
AnchorPoint: "Anchor-1" 183 0 basechar 0
LayerCount: 2
Fore
SplineSet
170 750 m 1
 170 84 l 1
 369 84 l 1
 369 0 l 1
 86 0 l 1
 86 750 l 1
 170 750 l 1
121 -220 m 1
 145 -61 l 1
 237 -61 l 1
 176 -220 l 1
 121 -220 l 1
EndSplineSet
Validated: 1
EndChar

StartChar: Ldot
Encoding: 319 319 61
Width: 388
GlyphClass: 2
Flags: MW
HStem: 0 84<170 369 170 369> 316 120<239 316 239 316> 730 20G<86 170 170 170>
AnchorPoint: "Anchor-1" 183 0 basechar 0
LayerCount: 2
Fore
SplineSet
170 750 m 1
 170 84 l 1
 369 84 l 1
 369 0 l 1
 86 0 l 1
 86 750 l 1
 170 750 l 1
239 316 m 1
 239 436 l 1
 316 436 l 1
 316 316 l 1
 239 316 l 1
EndSplineSet
Validated: 1
Ligature2: "Ligature Substitution lookup 27 subtable" L periodcentered
EndChar

StartChar: Lslash
Encoding: 321 321 62
Width: 389
GlyphClass: 2
Flags: MW
HStem: 0 84<170 369 170 369> 287 177 730 20G<86 170 170 170>
AnchorPoint: "Anchor-1" 183 0 basechar 0
LayerCount: 2
Fore
SplineSet
170 84 m 1
 369 84 l 1
 369 0 l 1
 86 0 l 1
 86 322 l 1
 -13 287 l 1
 -13 364 l 1
 86 399 l 1
 86 750 l 1
 170 750 l 1
 170 429 l 1
 268 464 l 1
 268 387 l 1
 170 352 l 1
 170 84 l 1
EndSplineSet
Validated: 1
EndChar

StartChar: M
Encoding: 77 77 63
Width: 600
Flags: HMW
HStem: 0 21G<60 140 60 60 268 331 268 268 460 540 460 460> 730 20G<60 144 144 144 456 540 540 540>
LayerCount: 2
Fore
SplineSet
456 750 m 1
 540 750 l 1
 540 0 l 1
 460 0 l 1
 460 488 l 1
 331 0 l 1
 268 0 l 1
 140 488 l 1
 140 0 l 1
 60 0 l 1
 60 750 l 1
 144 750 l 1
 300 154 l 1
 456 750 l 1
EndSplineSet
Validated: 1
EndChar

StartChar: N
Encoding: 78 78 64
Width: 473
GlyphClass: 2
Flags: HMW
HStem: 0 21G<60 140 60 60 342 413 342 342> 730 20G<60 131 131 131 333 413 413 413>
AnchorPoint: "Anchor-1" 237 0 basechar 0
LayerCount: 2
Fore
SplineSet
333 750 m 1
 413 750 l 1
 413 0 l 1
 342 0 l 1
 140 531 l 1
 140 0 l 1
 60 0 l 1
 60 750 l 1
 131 750 l 1
 333 219 l 1
 333 750 l 1
EndSplineSet
Validated: 1
EndChar

StartChar: Nacute
Encoding: 323 323 65
Width: 525
GlyphClass: 2
Flags: MW
HStem: 0 21G<86 166 86 86 368 439 368 368> 730 20G<86 157 157 157 359 439 439 439>
AnchorPoint: "Anchor-1" 263 0 basechar 0
LayerCount: 2
Fore
SplineSet
382 986 m 1
 293 814 l 1
 231 814 l 1
 297 986 l 1
 382 986 l 1
359 750 m 1
 439 750 l 1
 439 0 l 1
 368 0 l 1
 166 531 l 1
 166 0 l 1
 86 0 l 1
 86 750 l 1
 157 750 l 1
 359 219 l 1
 359 750 l 1
EndSplineSet
Validated: 1
EndChar

StartChar: Ncaron
Encoding: 327 327 66
Width: 525
GlyphClass: 2
Flags: MW
HStem: 0 21G<86 166 86 86 368 439 368 368> 730 20G<86 157 157 157 359 439 439 439> 840 54<263 263 263 296 229 263> 840 146<117 296 117 229>
AnchorPoint: "Anchor-1" 263 0 basechar 0
LayerCount: 2
Fore
SplineSet
296 840 m 1xd0
 229 840 l 1
 117 986 l 1
 196 986 l 1xd0
 263 894 l 1xe0
 329 986 l 1
 408 986 l 1
 296 840 l 1xd0
359 750 m 1
 439 750 l 1
 439 0 l 1
 368 0 l 1
 166 531 l 1
 166 0 l 1
 86 0 l 1
 86 750 l 1
 157 750 l 1
 359 219 l 1
 359 750 l 1
EndSplineSet
Validated: 1
EndChar

StartChar: Ncommaaccent
Encoding: 325 325 67
Width: 525
GlyphClass: 2
Flags: MW
HStem: -220 159<201 317 225 256> 0 21G<86 166 86 86 368 439 368 368> 730 20G<86 157 157 157 359 439 439 439>
AnchorPoint: "Anchor-1" 263 0 basechar 0
LayerCount: 2
Fore
SplineSet
359 750 m 1
 439 750 l 1
 439 0 l 1
 368 0 l 1
 166 531 l 1
 166 0 l 1
 86 0 l 1
 86 750 l 1
 157 750 l 1
 359 219 l 1
 359 750 l 1
201 -220 m 1
 225 -61 l 1
 317 -61 l 1
 256 -220 l 1
 201 -220 l 1
EndSplineSet
Validated: 1
EndChar

StartChar: Ntilde
Encoding: 209 209 68
Width: 525
GlyphClass: 2
Flags: MW
HStem: 0 21G<86 166 86 86 368 439 368 368> 730 20G<86 157 157 157 359 439 439 439> 835 54<310.5 314.5 300 344.5> 885 54<208 211.5 177.5 222>
AnchorPoint: "Anchor-1" 263 0 basechar 0
LayerCount: 2
Fore
SplineSet
196 859 m 2xe0
 196 840 l 1
 131 840 l 1
 131 863 l 2
 131 914 159 939 196 939 c 0xd0
 227 939 249 925 264 914 c 0
 280 901 292 889 308 889 c 0
 321 889 327 903 327 916 c 2
 327 937 l 1
 391 937 l 1
 391 910 l 2
 391 860 363 835 326 835 c 0xe0
 295 835 277 847 260 859 c 0
 242 872 229 885 215 885 c 0xd0
 201 885 196 871 196 859 c 2xe0
359 750 m 1
 439 750 l 1
 439 0 l 1
 368 0 l 1
 166 531 l 1
 166 0 l 1
 86 0 l 1
 86 750 l 1
 157 750 l 1
 359 219 l 1
 359 750 l 1
EndSplineSet
Validated: 1
EndChar

StartChar: O
Encoding: 79 79 69
Width: 457
GlyphClass: 2
Flags: HMW
HStem: -16 84<199.5 257 199.5 282> 682 84<199.5 257>
AnchorPoint: "Anchor-1" 228 0 basechar 0
LayerCount: 2
Fore
SplineSet
228 -16 m 0
 120 -16 50 58 50 169 c 2
 50 581 l 2
 50 692 120 766 228 766 c 0
 336 766 407 692 407 581 c 2
 407 169 l 2
 407 58 336 -16 228 -16 c 0
228 68 m 0
 286 68 323 108 323 169 c 2
 323 581 l 2
 323 642 286 682 228 682 c 0
 171 682 134 642 134 581 c 2
 134 169 l 2
 134 108 171 68 228 68 c 0
EndSplineSet
Validated: 1
Substitution2: "Single Substitution lookup 28 subtable" ordmasculine
Substitution2: "'aalt' Access All Alternates in Latin lookup 0 subtable" ordmasculine
EndChar

StartChar: Oacute
Encoding: 211 211 70
Width: 507
GlyphClass: 2
Flags: MW
HStem: -16 84<224.5 282 224.5 307> 682 84<224.5 282>
AnchorPoint: "Anchor-1" 253 0 basechar 0
LayerCount: 2
Fore
SplineSet
221 814 m 1
 287 986 l 1
 372 986 l 1
 283 814 l 1
 221 814 l 1
253 -16 m 0
 145 -16 75 58 75 169 c 2
 75 581 l 2
 75 692 145 766 253 766 c 0
 361 766 432 692 432 581 c 2
 432 169 l 2
 432 58 361 -16 253 -16 c 0
253 68 m 0
 311 68 348 108 348 169 c 2
 348 581 l 2
 348 642 311 682 253 682 c 0
 196 682 159 642 159 581 c 2
 159 169 l 2
 159 108 196 68 253 68 c 0
EndSplineSet
Validated: 1
EndChar

StartChar: Obreve
Encoding: 334 334 71
Width: 507
GlyphClass: 2
Flags: MW
HStem: -16 84<224.5 282 224.5 307> 682 84<224.5 282> 868 52<237.5 268.5 237.5 285.5> 966 20G<140 198 198 198 307 364 364 364>
AnchorPoint: "Anchor-1" 253 0 basechar 0
LayerCount: 2
Fore
SplineSet
253 868 m 0
 188 868 140 911 140 976 c 2
 140 986 l 1
 198 986 l 1
 198 976 l 2
 198 942 222 920 253 920 c 0
 284 920 307 942 307 976 c 2
 307 986 l 1
 364 986 l 1
 364 976 l 2
 364 911 318 868 253 868 c 0
253 -16 m 0
 145 -16 75 58 75 169 c 2
 75 581 l 2
 75 692 145 766 253 766 c 0
 361 766 432 692 432 581 c 2
 432 169 l 2
 432 58 361 -16 253 -16 c 0
253 68 m 0
 311 68 348 108 348 169 c 2
 348 581 l 2
 348 642 311 682 253 682 c 0
 196 682 159 642 159 581 c 2
 159 169 l 2
 159 108 196 68 253 68 c 0
EndSplineSet
Validated: 1
EndChar

StartChar: Ocircumflex
Encoding: 212 212 72
Width: 507
GlyphClass: 2
Flags: MW
HStem: -16 84<224.5 282 224.5 307> 682 84<224.5 282> 840 146<107 286 107 286 219 319 219 398> 932 54<253 253>
AnchorPoint: "Anchor-1" 253 0 basechar 0
LayerCount: 2
Fore
SplineSet
107 840 m 1xe0
 219 986 l 1
 286 986 l 1
 398 840 l 1
 319 840 l 1xe0
 253 932 l 1xd0
 186 840 l 1
 107 840 l 1xe0
253 -16 m 0
 145 -16 75 58 75 169 c 2
 75 581 l 2
 75 692 145 766 253 766 c 0
 361 766 432 692 432 581 c 2
 432 169 l 2
 432 58 361 -16 253 -16 c 0
253 68 m 0
 311 68 348 108 348 169 c 2
 348 581 l 2
 348 642 311 682 253 682 c 0
 196 682 159 642 159 581 c 2
 159 169 l 2
 159 108 196 68 253 68 c 0
EndSplineSet
Validated: 1
EndChar

StartChar: Odieresis
Encoding: 214 214 73
Width: 507
GlyphClass: 2
Flags: MW
HStem: -16 84<224.5 282 224.5 307> 682 84<224.5 282> 869 117<148 220 148 220 291 362 148 291>
AnchorPoint: "Anchor-1" 253 0 basechar 0
LayerCount: 2
Fore
SplineSet
148 869 m 1
 148 986 l 1
 220 986 l 1
 220 869 l 1
 148 869 l 1
291 869 m 1
 291 986 l 1
 362 986 l 1
 362 869 l 1
 291 869 l 1
253 -16 m 0
 145 -16 75 58 75 169 c 2
 75 581 l 2
 75 692 145 766 253 766 c 0
 361 766 432 692 432 581 c 2
 432 169 l 2
 432 58 361 -16 253 -16 c 0
253 68 m 0
 311 68 348 108 348 169 c 2
 348 581 l 2
 348 642 311 682 253 682 c 0
 196 682 159 642 159 581 c 2
 159 169 l 2
 159 108 196 68 253 68 c 0
EndSplineSet
Validated: 1
EndChar

StartChar: Ograve
Encoding: 210 210 74
Width: 507
GlyphClass: 2
Flags: MW
HStem: -16 84<224.5 282 224.5 307> 682 84<224.5 282>
AnchorPoint: "Anchor-1" 253 0 basechar 0
LayerCount: 2
Fore
SplineSet
224 814 m 1
 134 986 l 1
 220 986 l 1
 286 814 l 1
 224 814 l 1
253 -16 m 0
 145 -16 75 58 75 169 c 2
 75 581 l 2
 75 692 145 766 253 766 c 0
 361 766 432 692 432 581 c 2
 432 169 l 2
 432 58 361 -16 253 -16 c 0
253 68 m 0
 311 68 348 108 348 169 c 2
 348 581 l 2
 348 642 311 682 253 682 c 0
 196 682 159 642 159 581 c 2
 159 169 l 2
 159 108 196 68 253 68 c 0
EndSplineSet
Validated: 1
EndChar

StartChar: Ohungarumlaut
Encoding: 336 336 75
Width: 507
GlyphClass: 2
Flags: MW
HStem: -16 84<224.5 282 224.5 307> 682 84<224.5 282>
AnchorPoint: "Anchor-1" 253 0 basechar 0
LayerCount: 2
Fore
SplineSet
143 814 m 1
 209 986 l 1
 294 986 l 1
 205 814 l 1
 143 814 l 1
293 814 m 1
 359 986 l 1
 444 986 l 1
 355 814 l 1
 293 814 l 1
253 -16 m 0
 145 -16 75 58 75 169 c 2
 75 581 l 2
 75 692 145 766 253 766 c 0
 361 766 432 692 432 581 c 2
 432 169 l 2
 432 58 361 -16 253 -16 c 0
253 68 m 0
 311 68 348 108 348 169 c 2
 348 581 l 2
 348 642 311 682 253 682 c 0
 196 682 159 642 159 581 c 2
 159 169 l 2
 159 108 196 68 253 68 c 0
EndSplineSet
Validated: 1
EndChar

StartChar: Omacron
Encoding: 332 332 76
Width: 507
GlyphClass: 2
Flags: MW
HStem: -16 84<224.5 282 224.5 307> 682 84<224.5 282> 831 63<142 363 142 363>
AnchorPoint: "Anchor-1" 253 0 basechar 0
LayerCount: 2
Fore
SplineSet
142 894 m 1
 363 894 l 1
 363 831 l 1
 142 831 l 1
 142 894 l 1
253 -16 m 0
 145 -16 75 58 75 169 c 2
 75 581 l 2
 75 692 145 766 253 766 c 0
 361 766 432 692 432 581 c 2
 432 169 l 2
 432 58 361 -16 253 -16 c 0
253 68 m 0
 311 68 348 108 348 169 c 2
 348 581 l 2
 348 642 311 682 253 682 c 0
 196 682 159 642 159 581 c 2
 159 169 l 2
 159 108 196 68 253 68 c 0
EndSplineSet
Validated: 1
EndChar

StartChar: Oslash
Encoding: 216 216 77
Width: 507
GlyphClass: 2
Flags: MW
HStem: -34 21G<24 82 24 24> -16 84<230.5 282 230.5 307> 682 84<224.5 276>
AnchorPoint: "Anchor-1" 253 0 basechar 0
LayerCount: 2
Fore
SplineSet
483 783 m 1xa0
 420 655 l 1
 428 633 432 608 432 581 c 2
 432 169 l 2
 432 58 361 -16 253 -16 c 0x60
 196 -16 150 5 118 40 c 1
 82 -34 l 1
 24 -34 l 1
 87 95 l 1
 79 117 75 142 75 169 c 2
 75 581 l 2
 75 692 145 766 253 766 c 0
 310 766 357 745 389 709 c 1
 425 783 l 1
 483 783 l 1xa0
159 581 m 2
 159 241 l 1
 343 616 l 1
 332 657 299 682 253 682 c 0
 196 682 159 642 159 581 c 2
348 169 m 2
 348 508 l 1
 164 133 l 1
 176 93 208 68 253 68 c 0
 311 68 348 108 348 169 c 2
EndSplineSet
Validated: 1
EndChar

StartChar: Otilde
Encoding: 213 213 78
Width: 507
GlyphClass: 2
Flags: MW
HStem: -16 84<224.5 282 224.5 307> 682 84<224.5 282> 835 54<300.5 304.5 290 334.5> 885 54<198 201.5 167.5 212>
AnchorPoint: "Anchor-1" 253 0 basechar 0
LayerCount: 2
Fore
SplineSet
316 835 m 0xe0
 285 835 267 847 250 859 c 0
 232 872 219 885 205 885 c 0
 191 885 186 871 186 859 c 2
 186 840 l 1
 121 840 l 1
 121 863 l 2
 121 914 149 939 186 939 c 0xd0
 217 939 239 925 254 914 c 0
 270 901 282 889 298 889 c 0
 311 889 317 903 317 916 c 2
 317 937 l 1
 381 937 l 1
 381 910 l 2
 381 860 353 835 316 835 c 0xe0
253 -16 m 0
 145 -16 75 58 75 169 c 2
 75 581 l 2
 75 692 145 766 253 766 c 0
 361 766 432 692 432 581 c 2
 432 169 l 2
 432 58 361 -16 253 -16 c 0
253 68 m 0
 311 68 348 108 348 169 c 2
 348 581 l 2
 348 642 311 682 253 682 c 0
 196 682 159 642 159 581 c 2
 159 169 l 2
 159 108 196 68 253 68 c 0
EndSplineSet
Validated: 1
EndChar

StartChar: OE
Encoding: 338 338 79
Width: 727
GlyphClass: 2
Flags: MW
HStem: -16 84<224.5 279.5> 0 84<465 685 465 685> 336 84<465 658 465 658> 666 84<465 685 465 465> 682 84<224.5 279.5 199 282>
AnchorPoint: "Anchor-1" 254 0 basechar 0
LayerCount: 2
Fore
SplineSet
253 -16 m 0xb0
 145 -16 75 58 75 169 c 2
 75 581 l 2
 75 692 145 766 253 766 c 0x68
 306 766 350 748 381 717 c 1
 381 750 l 1
 685 750 l 1
 685 666 l 1
 465 666 l 1
 465 420 l 1
 658 420 l 1
 658 336 l 1
 465 336 l 1
 465 84 l 1
 685 84 l 1
 685 0 l 1
 381 0 l 1x70
 381 33 l 1
 350 2 306 -16 253 -16 c 0xb0
253 68 m 0
 311 68 348 108 348 169 c 2
 348 581 l 2
 348 642 311 682 253 682 c 0x68
 196 682 159 642 159 581 c 2
 159 169 l 2
 159 108 196 68 253 68 c 0
EndSplineSet
Validated: 1
EndChar

StartChar: P
Encoding: 80 80 80
Width: 451
GlyphClass: 2
Flags: HMW
HStem: 0 21G<60 60 60 144> 321 84<144 245 144 245> 666 84<144 245 144 144>
AnchorPoint: "Anchor-1" 205 0 basechar 0
LayerCount: 2
Fore
SplineSet
60 0 m 1
 60 750 l 1
 245 750 l 2
 345 750 411 681 411 578 c 2
 411 494 l 2
 411 390 345 321 245 321 c 2
 144 321 l 1
 144 0 l 1
 60 0 l 1
144 405 m 1
 245 405 l 2
 295 405 327 441 327 494 c 2
 327 578 l 2
 327 631 295 666 245 666 c 2
 144 666 l 1
 144 405 l 1
EndSplineSet
Validated: 1
EndChar

StartChar: Thorn
Encoding: 222 222 81
Width: 474
Flags: MW
HStem: 0 21G<86 86 86 170> 210 84<170 271 170 271> 555 84<170 271 170 271>
LayerCount: 2
Fore
SplineSet
86 0 m 1
 86 750 l 1
 170 750 l 1
 170 639 l 1
 271 639 l 2
 371 639 437 570 437 466 c 2
 437 382 l 2
 437 279 371 210 271 210 c 2
 170 210 l 1
 170 0 l 1
 86 0 l 1
170 294 m 1
 271 294 l 2
 321 294 353 329 353 382 c 2
 353 466 l 2
 353 519 321 555 271 555 c 2
 170 555 l 1
 170 294 l 1
EndSplineSet
Validated: 1
EndChar

StartChar: Q
Encoding: 81 81 82
Width: 477
Flags: HMW
HStem: -16 84<209.5 240.5 209.5 245> 682 84<209.5 267>
LayerCount: 2
Fore
SplineSet
417 169 m 2
 417 105 394 54 353 21 c 1
 387 -91 l 1
 302 -91 l 1
 278 -12 l 1
 265 -15 252 -16 238 -16 c 0
 130 -16 60 58 60 169 c 2
 60 581 l 2
 60 692 130 766 238 766 c 0
 346 766 417 692 417 581 c 2
 417 169 l 2
293 219 m 1
 323 120 l 1
 330 134 333 150 333 169 c 2
 333 581 l 2
 333 642 296 682 238 682 c 0
 181 682 144 642 144 581 c 2
 144 169 l 2
 144 108 181 68 238 68 c 0
 243 68 248 68 253 69 c 1
 207 219 l 1
 293 219 l 1
EndSplineSet
Validated: 1
EndChar

StartChar: R
Encoding: 82 82 83
Width: 471
GlyphClass: 2
Flags: HMW
HStem: 0 21G<60 144 60 60 327 411 327 327> 301 84<144 245 144 245> 666 84<144 245 144 144>
AnchorPoint: "Anchor-1" 229 0 basechar 0
LayerCount: 2
Fore
SplineSet
411 474 m 2
 411 414 389 366 350 335 c 1
 389 311 411 270 411 220 c 2
 411 0 l 1
 327 0 l 1
 327 220 l 2
 327 269 295 301 245 301 c 2
 144 301 l 1
 144 0 l 1
 60 0 l 1
 60 750 l 1
 245 750 l 2
 345 750 411 681 411 578 c 2
 411 474 l 2
245 385 m 2
 295 385 327 421 327 474 c 2
 327 578 l 2
 327 631 295 666 245 666 c 2
 144 666 l 1
 144 385 l 1
 245 385 l 2
EndSplineSet
Validated: 1
EndChar

StartChar: Racute
Encoding: 340 340 84
Width: 510
GlyphClass: 2
Flags: MW
HStem: 0 21G<86 170 86 86 353 437 353 353> 301 84<170 271 170 271> 666 84<170 271 170 170>
AnchorPoint: "Anchor-1" 255 0 basechar 0
LayerCount: 2
Fore
SplineSet
374 986 m 1
 285 814 l 1
 223 814 l 1
 289 986 l 1
 374 986 l 1
437 474 m 2
 437 414 415 366 376 335 c 1
 415 311 437 270 437 220 c 2
 437 0 l 1
 353 0 l 1
 353 220 l 2
 353 269 321 301 271 301 c 2
 170 301 l 1
 170 0 l 1
 86 0 l 1
 86 750 l 1
 271 750 l 2
 371 750 437 681 437 578 c 2
 437 474 l 2
271 385 m 2
 321 385 353 421 353 474 c 2
 353 578 l 2
 353 631 321 666 271 666 c 2
 170 666 l 1
 170 385 l 1
 271 385 l 2
EndSplineSet
Validated: 1
EndChar

StartChar: Rcaron
Encoding: 344 344 85
Width: 510
GlyphClass: 2
Flags: MW
HStem: 0 21G<86 170 86 86 353 437 353 353> 301 84<170 271 170 271> 666 84<170 271 170 170> 840 54<255 255 255 288 221 255> 840 146<109 288 109 221>
AnchorPoint: "Anchor-1" 255 0 basechar 0
LayerCount: 2
Fore
SplineSet
288 840 m 1xe8
 221 840 l 1
 109 986 l 1
 188 986 l 1xe8
 255 894 l 1xf0
 321 986 l 1
 400 986 l 1
 288 840 l 1xe8
437 474 m 2
 437 414 415 366 376 335 c 1
 415 311 437 270 437 220 c 2
 437 0 l 1
 353 0 l 1
 353 220 l 2
 353 269 321 301 271 301 c 2
 170 301 l 1
 170 0 l 1
 86 0 l 1
 86 750 l 1
 271 750 l 2
 371 750 437 681 437 578 c 2
 437 474 l 2
271 385 m 2
 321 385 353 421 353 474 c 2
 353 578 l 2
 353 631 321 666 271 666 c 2
 170 666 l 1
 170 385 l 1
 271 385 l 2
EndSplineSet
Validated: 1
EndChar

StartChar: Rcommaaccent
Encoding: 342 342 86
Width: 510
GlyphClass: 2
Flags: MW
HStem: -220 159<193 309 217 248> 0 21G<86 170 86 86 353 437 353 353> 301 84<170 271 170 271> 666 84<170 271 170 170>
AnchorPoint: "Anchor-1" 255 0 basechar 0
LayerCount: 2
Fore
SplineSet
437 474 m 2
 437 414 415 366 376 335 c 1
 415 311 437 270 437 220 c 2
 437 0 l 1
 353 0 l 1
 353 220 l 2
 353 269 321 301 271 301 c 2
 170 301 l 1
 170 0 l 1
 86 0 l 1
 86 750 l 1
 271 750 l 2
 371 750 437 681 437 578 c 2
 437 474 l 2
271 385 m 2
 321 385 353 421 353 474 c 2
 353 578 l 2
 353 631 321 666 271 666 c 2
 170 666 l 1
 170 385 l 1
 271 385 l 2
193 -220 m 1
 217 -61 l 1
 309 -61 l 1
 248 -220 l 1
 193 -220 l 1
EndSplineSet
Validated: 1
EndChar

StartChar: S
Encoding: 83 83 87
Width: 458
GlyphClass: 2
Flags: HMW
HStem: -16 84<200 257.5 200 283> 329 84<200 257.5> 682 84<200 257.5>
AnchorPoint: "Anchor-1" 229 0 basechar 0
LayerCount: 2
Fore
SplineSet
229 -16 m 0
 121 -16 50 58 50 169 c 2
 50 196 l 1
 134 196 l 1
 134 169 l 2
 134 108 171 68 229 68 c 0
 286 68 324 108 324 169 c 2
 324 228 l 2
 324 289 286 329 229 329 c 0
 121 329 50 403 50 514 c 2
 50 581 l 2
 50 692 121 766 229 766 c 0
 337 766 408 692 408 581 c 2
 408 554 l 1
 324 554 l 1
 324 581 l 2
 324 642 286 682 229 682 c 0
 171 682 134 642 134 581 c 2
 134 514 l 2
 134 454 171 413 229 413 c 0
 337 413 408 339 408 228 c 2
 408 169 l 2
 408 58 337 -16 229 -16 c 0
EndSplineSet
Validated: 1
EndChar

StartChar: Sacute
Encoding: 346 346 88
Width: 471
GlyphClass: 2
Flags: MW
HStem: -16 84<207 264.5 207 290> 329 84<207 264.5> 682 84<207 264.5>
AnchorPoint: "Anchor-1" 236 0 basechar 0
LayerCount: 2
Fore
SplineSet
204 814 m 1
 270 986 l 1
 355 986 l 1
 266 814 l 1
 204 814 l 1
236 -16 m 0
 128 -16 57 58 57 169 c 2
 57 196 l 1
 141 196 l 1
 141 169 l 2
 141 108 178 68 236 68 c 0
 293 68 331 108 331 169 c 2
 331 228 l 2
 331 289 293 329 236 329 c 0
 128 329 57 403 57 514 c 2
 57 581 l 2
 57 692 128 766 236 766 c 0
 344 766 415 692 415 581 c 2
 415 554 l 1
 331 554 l 1
 331 581 l 2
 331 642 293 682 236 682 c 0
 178 682 141 642 141 581 c 2
 141 514 l 2
 141 454 178 413 236 413 c 0
 344 413 415 339 415 228 c 2
 415 169 l 2
 415 58 344 -16 236 -16 c 0
EndSplineSet
Validated: 1
EndChar

StartChar: Scaron
Encoding: 352 352 89
Width: 471
GlyphClass: 2
Flags: MW
HStem: -16 84<207 264.5 207 290> 329 84<207 264.5> 682 84<207 264.5> 840 54<202 236 236 236 236 269> 840 146<90 202 90 269>
AnchorPoint: "Anchor-1" 236 0 basechar 0
LayerCount: 2
Fore
SplineSet
202 840 m 1xe8
 90 986 l 1
 169 986 l 1xe8
 236 894 l 1xf0
 302 986 l 1
 381 986 l 1
 269 840 l 1
 202 840 l 1xe8
236 -16 m 0
 128 -16 57 58 57 169 c 2
 57 196 l 1
 141 196 l 1
 141 169 l 2
 141 108 178 68 236 68 c 0
 293 68 331 108 331 169 c 2
 331 228 l 2
 331 289 293 329 236 329 c 0
 128 329 57 403 57 514 c 2
 57 581 l 2
 57 692 128 766 236 766 c 0
 344 766 415 692 415 581 c 2
 415 554 l 1
 331 554 l 1
 331 581 l 2
 331 642 293 682 236 682 c 0
 178 682 141 642 141 581 c 2
 141 514 l 2
 141 454 178 413 236 413 c 0
 344 413 415 339 415 228 c 2
 415 169 l 2
 415 58 344 -16 236 -16 c 0
EndSplineSet
Validated: 1
EndChar

StartChar: Scedilla
Encoding: 350 350 90
Width: 471
GlyphClass: 2
Flags: MW
HStem: -225 61<207 275 207 275> -14 82<209 209> 329 84<207 264.5> 682 84<207 264.5>
AnchorPoint: "Anchor-1" 236 0 basechar 0
LayerCount: 2
Fore
SplineSet
415 554 m 1
 331 554 l 1
 331 581 l 2
 331 642 293 682 236 682 c 0
 178 682 141 642 141 581 c 2
 141 514 l 2
 141 454 178 413 236 413 c 0
 344 413 415 339 415 228 c 2
 415 169 l 2
 415 70 359 1 271 -13 c 1
 271 -47 l 1
 333 -40 373 -84 373 -132 c 0
 373 -188 334 -225 275 -225 c 2
 207 -225 l 1
 207 -164 l 1
 275 -164 l 2
 296 -164 311 -151 311 -132 c 0
 311 -113 296 -99 275 -99 c 2
 237 -99 l 1
 209 -81 l 1
 209 -14 l 1
 116 -3 57 68 57 169 c 2
 57 196 l 1
 141 196 l 1
 141 169 l 2
 141 108 178 68 236 68 c 0
 293 68 331 108 331 169 c 2
 331 228 l 2
 331 289 293 329 236 329 c 0
 128 329 57 403 57 514 c 2
 57 581 l 2
 57 692 128 766 236 766 c 0
 344 766 415 692 415 581 c 2
 415 554 l 1
EndSplineSet
Validated: 33
Substitution2: "'locl' Localized Forms in Latin lookup 5 subtable" Scommaaccent
Substitution2: "'locl' Localized Forms in Latin lookup 4 subtable" Scommaaccent
Substitution2: "'aalt' Access All Alternates in Latin lookup 0 subtable" Scommaaccent
EndChar

StartChar: Scircumflex
Encoding: 348 348 91
Width: 471
GlyphClass: 2
Flags: MW
HStem: -16 84<207 264.5 207 290> 329 84<207 264.5> 682 84<207 264.5> 840 146<90 269 90 269 202 302 202 381> 932 54<236 236>
AnchorPoint: "Anchor-1" 236 0 basechar 0
LayerCount: 2
Fore
SplineSet
90 840 m 1xf0
 202 986 l 1
 269 986 l 1
 381 840 l 1
 302 840 l 1xf0
 236 932 l 1xe8
 169 840 l 1
 90 840 l 1xf0
236 -16 m 0
 128 -16 57 58 57 169 c 2
 57 196 l 1
 141 196 l 1
 141 169 l 2
 141 108 178 68 236 68 c 0
 293 68 331 108 331 169 c 2
 331 228 l 2
 331 289 293 329 236 329 c 0
 128 329 57 403 57 514 c 2
 57 581 l 2
 57 692 128 766 236 766 c 0
 344 766 415 692 415 581 c 2
 415 554 l 1
 331 554 l 1
 331 581 l 2
 331 642 293 682 236 682 c 0
 178 682 141 642 141 581 c 2
 141 514 l 2
 141 454 178 413 236 413 c 0
 344 413 415 339 415 228 c 2
 415 169 l 2
 415 58 344 -16 236 -16 c 0
EndSplineSet
Validated: 1
EndChar

StartChar: Scommaaccent
Encoding: 536 536 92
Width: 471
GlyphClass: 2
Flags: MW
HStem: -220 159<174 290 198 229> -16 84<207 264.5 207 290> 329 84<207 264.5> 682 84<207 264.5>
AnchorPoint: "Anchor-1" 236 0 basechar 0
LayerCount: 2
Fore
SplineSet
236 -16 m 0
 128 -16 57 58 57 169 c 2
 57 196 l 1
 141 196 l 1
 141 169 l 2
 141 108 178 68 236 68 c 0
 293 68 331 108 331 169 c 2
 331 228 l 2
 331 289 293 329 236 329 c 0
 128 329 57 403 57 514 c 2
 57 581 l 2
 57 692 128 766 236 766 c 0
 344 766 415 692 415 581 c 2
 415 554 l 1
 331 554 l 1
 331 581 l 2
 331 642 293 682 236 682 c 0
 178 682 141 642 141 581 c 2
 141 514 l 2
 141 454 178 413 236 413 c 0
 344 413 415 339 415 228 c 2
 415 169 l 2
 415 58 344 -16 236 -16 c 0
174 -220 m 1
 198 -61 l 1
 290 -61 l 1
 229 -220 l 1
 174 -220 l 1
EndSplineSet
Validated: 1
EndChar

StartChar: T
Encoding: 84 84 93
Width: 436
GlyphClass: 2
Flags: HMW
HStem: 0 21G<176 176 176 260> 666 84<50 176 50 386 260 260 260 386>
AnchorPoint: "Anchor-1" 215 0 basechar 0
LayerCount: 2
Fore
SplineSet
176 0 m 1
 176 666 l 1
 50 666 l 1
 50 750 l 1
 386 750 l 1
 386 666 l 1
 260 666 l 1
 260 0 l 1
 176 0 l 1
EndSplineSet
Validated: 1
EndChar

StartChar: Tbar
Encoding: 358 358 94
Width: 371
GlyphClass: 2
Flags: MW
HStem: 0 21G<144 228 144 144> 340 70<67 144 67 144 228 304> 666 84<18 144 18 354 228 354 228 228>
AnchorPoint: "Anchor-1" 183 0 basechar 0
LayerCount: 2
Fore
SplineSet
354 666 m 1
 228 666 l 1
 228 410 l 1
 304 410 l 1
 304 340 l 1
 228 340 l 1
 228 0 l 1
 144 0 l 1
 144 340 l 1
 67 340 l 1
 67 410 l 1
 144 410 l 1
 144 666 l 1
 18 666 l 1
 18 750 l 1
 354 750 l 1
 354 666 l 1
EndSplineSet
Validated: 1
EndChar

StartChar: Tcaron
Encoding: 356 356 95
Width: 371
GlyphClass: 2
Flags: MW
HStem: 0 21G<144 144 144 228> 666 84<18 144 18 354 228 228 228 354> 840 54<152 186 186 186 186 219> 840 146<40 152 40 219>
AnchorPoint: "Anchor-1" 183 0 basechar 0
LayerCount: 2
Fore
SplineSet
152 840 m 1xd0
 40 986 l 1
 119 986 l 1xd0
 186 894 l 1xe0
 252 986 l 1
 331 986 l 1
 219 840 l 1
 152 840 l 1xd0
144 0 m 1
 144 666 l 1
 18 666 l 1
 18 750 l 1
 354 750 l 1
 354 666 l 1
 228 666 l 1
 228 0 l 1
 144 0 l 1
EndSplineSet
Validated: 1
EndChar

StartChar: uni0162
Encoding: 354 354 96
Width: 371
GlyphClass: 2
Flags: MW
HStem: -225 61<154 222 154 222> 0 21G<144 156 144 144 218 228 218 218> 666 84<18 144 18 354 228 228 228 354>
AnchorPoint: "Anchor-1" 183 0 basechar 0
LayerCount: 2
Fore
SplineSet
228 0 m 1
 218 0 l 1
 218 -47 l 1
 280 -40 320 -84 320 -132 c 0
 320 -188 281 -225 222 -225 c 2
 154 -225 l 1
 154 -164 l 1
 222 -164 l 2
 243 -164 258 -151 258 -132 c 0
 258 -113 243 -99 222 -99 c 2
 184 -99 l 1
 156 -81 l 1
 156 0 l 1
 144 0 l 1
 144 666 l 1
 18 666 l 1
 18 750 l 1
 354 750 l 1
 354 666 l 1
 228 666 l 1
 228 0 l 1
EndSplineSet
Validated: 33
Substitution2: "'locl' Localized Forms in Latin lookup 5 subtable" uni021A
Substitution2: "'locl' Localized Forms in Latin lookup 4 subtable" uni021A
Substitution2: "'aalt' Access All Alternates in Latin lookup 0 subtable" uni021A
EndChar

StartChar: uni021A
Encoding: 538 538 97
Width: 371
GlyphClass: 2
Flags: MW
HStem: -220 159<121 237 145 176> 0 21G<144 144 144 228> 666 84<18 144 18 354 228 228 228 354>
AnchorPoint: "Anchor-1" 183 0 basechar 0
LayerCount: 2
Fore
SplineSet
144 0 m 1
 144 666 l 1
 18 666 l 1
 18 750 l 1
 354 750 l 1
 354 666 l 1
 228 666 l 1
 228 0 l 1
 144 0 l 1
121 -220 m 1
 145 -61 l 1
 237 -61 l 1
 176 -220 l 1
 121 -220 l 1
EndSplineSet
Validated: 1
EndChar

StartChar: U
Encoding: 85 85 98
Width: 477
GlyphClass: 2
Flags: HMW
HStem: -16 84<209.5 267 209.5 292> 730 20G<60 144 144 144 333 417 417 417>
AnchorPoint: "Anchor-1" 239 0 basechar 0
LayerCount: 2
Fore
SplineSet
417 750 m 1
 417 169 l 2
 417 58 346 -16 238 -16 c 0
 130 -16 60 58 60 169 c 2
 60 750 l 1
 144 750 l 1
 144 169 l 2
 144 108 181 68 238 68 c 0
 296 68 333 108 333 169 c 2
 333 750 l 1
 417 750 l 1
EndSplineSet
Validated: 1
EndChar

StartChar: Uacute
Encoding: 218 218 99
Width: 519
GlyphClass: 2
Flags: MW
HStem: -16 84<230.5 288 230.5 313> 730 20G<81 165 165 165 354 438 438 438>
AnchorPoint: "Anchor-1" 260 0 basechar 0
LayerCount: 2
Fore
SplineSet
228 814 m 1
 294 986 l 1
 379 986 l 1
 290 814 l 1
 228 814 l 1
438 750 m 1
 438 169 l 2
 438 58 367 -16 259 -16 c 0
 151 -16 81 58 81 169 c 2
 81 750 l 1
 165 750 l 1
 165 169 l 2
 165 108 202 68 259 68 c 0
 317 68 354 108 354 169 c 2
 354 750 l 1
 438 750 l 1
EndSplineSet
Validated: 1
EndChar

StartChar: Ubreve
Encoding: 364 364 100
Width: 519
GlyphClass: 2
Flags: MW
HStem: -16 84<230.5 288 230.5 313> 730 20G<81 165 165 165 354 438 438 438> 868 52<244.5 275.5 244.5 292.5> 966 20G<147 205 205 205 314 371 371 371>
AnchorPoint: "Anchor-1" 260 0 basechar 0
LayerCount: 2
Fore
SplineSet
260 868 m 0
 195 868 147 911 147 976 c 2
 147 986 l 1
 205 986 l 1
 205 976 l 2
 205 942 229 920 260 920 c 0
 291 920 314 942 314 976 c 2
 314 986 l 1
 371 986 l 1
 371 976 l 2
 371 911 325 868 260 868 c 0
438 750 m 1
 438 169 l 2
 438 58 367 -16 259 -16 c 0
 151 -16 81 58 81 169 c 2
 81 750 l 1
 165 750 l 1
 165 169 l 2
 165 108 202 68 259 68 c 0
 317 68 354 108 354 169 c 2
 354 750 l 1
 438 750 l 1
EndSplineSet
Validated: 1
EndChar

StartChar: Ucircumflex
Encoding: 219 219 101
Width: 519
GlyphClass: 2
Flags: MW
HStem: -16 84<230.5 288 230.5 313> 730 20G<81 165 165 165 354 438 438 438> 840 146<114 293 114 293 226 326 226 405> 932 54<260 260>
AnchorPoint: "Anchor-1" 260 0 basechar 0
LayerCount: 2
Fore
SplineSet
114 840 m 1xe0
 226 986 l 1
 293 986 l 1
 405 840 l 1
 326 840 l 1xe0
 260 932 l 1xd0
 193 840 l 1
 114 840 l 1xe0
438 750 m 1
 438 169 l 2
 438 58 367 -16 259 -16 c 0
 151 -16 81 58 81 169 c 2
 81 750 l 1
 165 750 l 1
 165 169 l 2
 165 108 202 68 259 68 c 0
 317 68 354 108 354 169 c 2
 354 750 l 1
 438 750 l 1
EndSplineSet
Validated: 1
EndChar

StartChar: Udieresis
Encoding: 220 220 102
Width: 519
GlyphClass: 2
Flags: MW
HStem: -16 84<230.5 288 230.5 313> 730 20G<81 165 165 165 354 438 438 438> 869 117<155 227 155 227 298 369 155 298>
AnchorPoint: "Anchor-1" 260 0 basechar 0
LayerCount: 2
Fore
SplineSet
155 869 m 1
 155 986 l 1
 227 986 l 1
 227 869 l 1
 155 869 l 1
298 869 m 1
 298 986 l 1
 369 986 l 1
 369 869 l 1
 298 869 l 1
438 750 m 1
 438 169 l 2
 438 58 367 -16 259 -16 c 0
 151 -16 81 58 81 169 c 2
 81 750 l 1
 165 750 l 1
 165 169 l 2
 165 108 202 68 259 68 c 0
 317 68 354 108 354 169 c 2
 354 750 l 1
 438 750 l 1
EndSplineSet
Validated: 1
EndChar

StartChar: Ugrave
Encoding: 217 217 103
Width: 519
GlyphClass: 2
Flags: MW
HStem: -16 84<230.5 288 230.5 313> 730 20G<81 165 165 165 354 438 438 438>
AnchorPoint: "Anchor-1" 260 0 basechar 0
LayerCount: 2
Fore
SplineSet
231 814 m 1
 141 986 l 1
 227 986 l 1
 293 814 l 1
 231 814 l 1
438 750 m 1
 438 169 l 2
 438 58 367 -16 259 -16 c 0
 151 -16 81 58 81 169 c 2
 81 750 l 1
 165 750 l 1
 165 169 l 2
 165 108 202 68 259 68 c 0
 317 68 354 108 354 169 c 2
 354 750 l 1
 438 750 l 1
EndSplineSet
Validated: 1
EndChar

StartChar: Uhungarumlaut
Encoding: 368 368 104
Width: 519
GlyphClass: 2
Flags: MW
HStem: -16 84<230.5 288 230.5 313> 730 20G<81 165 165 165 354 438 438 438>
AnchorPoint: "Anchor-1" 260 0 basechar 0
LayerCount: 2
Fore
SplineSet
150 814 m 1
 216 986 l 1
 301 986 l 1
 212 814 l 1
 150 814 l 1
300 814 m 1
 366 986 l 1
 451 986 l 1
 362 814 l 1
 300 814 l 1
438 750 m 1
 438 169 l 2
 438 58 367 -16 259 -16 c 0
 151 -16 81 58 81 169 c 2
 81 750 l 1
 165 750 l 1
 165 169 l 2
 165 108 202 68 259 68 c 0
 317 68 354 108 354 169 c 2
 354 750 l 1
 438 750 l 1
EndSplineSet
Validated: 1
EndChar

StartChar: Umacron
Encoding: 362 362 105
Width: 519
GlyphClass: 2
Flags: MW
HStem: -16 84<230.5 288 230.5 313> 730 20G<81 165 165 165 354 438 438 438> 831 63<149 370 149 370>
AnchorPoint: "Anchor-1" 260 0 basechar 0
LayerCount: 2
Fore
SplineSet
149 894 m 1
 370 894 l 1
 370 831 l 1
 149 831 l 1
 149 894 l 1
438 750 m 1
 438 169 l 2
 438 58 367 -16 259 -16 c 0
 151 -16 81 58 81 169 c 2
 81 750 l 1
 165 750 l 1
 165 169 l 2
 165 108 202 68 259 68 c 0
 317 68 354 108 354 169 c 2
 354 750 l 1
 438 750 l 1
EndSplineSet
Validated: 1
EndChar

StartChar: Uogonek
Encoding: 370 370 106
Width: 519
GlyphClass: 2
Flags: MW
HStem: -213 62<256 314 299 314 299 314> -15 83 -12 23 730 20G<81 165 165 165 354 438 438 438>
AnchorPoint: "Anchor-1" 260 0 basechar 0
LayerCount: 2
Fore
SplineSet
354 750 m 1xb0
 438 750 l 1
 438 169 l 2
 438 64 375 -8 277 -15 c 1xd0
 250 -41 235 -68 235 -99 c 0
 235 -130 258 -151 299 -151 c 2
 314 -151 l 1
 314 -213 l 1
 295 -213 l 2
 217 -213 172 -172 172 -112 c 0
 172 -73 188 -41 219 -12 c 1xb0
 134 4 81 73 81 169 c 2
 81 750 l 1
 165 750 l 1
 165 169 l 2
 165 108 202 68 259 68 c 0xd0
 317 68 354 108 354 169 c 2
 354 750 l 1xb0
EndSplineSet
Validated: 1
EndChar

StartChar: Uring
Encoding: 366 366 107
Width: 519
GlyphClass: 2
Flags: MW
HStem: -16 84<230.5 288 230.5 313> 730 20G<81 165 165 165 354 438 438 438> 779 53<250 270.5 250 285.5> 914 53<250 270.5>
AnchorPoint: "Anchor-1" 260 0 basechar 0
LayerCount: 2
Fore
SplineSet
260 779 m 0
 210 779 166 817 166 873 c 0
 166 929 210 967 260 967 c 0
 311 967 354 929 354 873 c 0
 354 817 311 779 260 779 c 0
260 832 m 0
 281 832 302 848 302 873 c 0
 302 898 281 914 260 914 c 0
 240 914 219 898 219 873 c 0
 219 848 240 832 260 832 c 0
438 750 m 1
 438 169 l 2
 438 58 367 -16 259 -16 c 0
 151 -16 81 58 81 169 c 2
 81 750 l 1
 165 750 l 1
 165 169 l 2
 165 108 202 68 259 68 c 0
 317 68 354 108 354 169 c 2
 354 750 l 1
 438 750 l 1
EndSplineSet
Validated: 1
EndChar

StartChar: Utilde
Encoding: 360 360 108
Width: 519
GlyphClass: 2
Flags: MW
HStem: -16 84<230.5 288 230.5 313> 730 20G<81 165 165 165 354 438 438 438> 835 54<307.5 311.5 297 341.5> 885 54<205 208.5 174.5 219>
AnchorPoint: "Anchor-1" 260 0 basechar 0
LayerCount: 2
Fore
SplineSet
323 835 m 0xe0
 292 835 274 847 257 859 c 0
 239 872 226 885 212 885 c 0
 198 885 193 871 193 859 c 2
 193 840 l 1
 128 840 l 1
 128 863 l 2
 128 914 156 939 193 939 c 0xd0
 224 939 246 925 261 914 c 0
 277 901 289 889 305 889 c 0
 318 889 324 903 324 916 c 2
 324 937 l 1
 388 937 l 1
 388 910 l 2
 388 860 360 835 323 835 c 0xe0
438 750 m 1
 438 169 l 2
 438 58 367 -16 259 -16 c 0
 151 -16 81 58 81 169 c 2
 81 750 l 1
 165 750 l 1
 165 169 l 2
 165 108 202 68 259 68 c 0
 317 68 354 108 354 169 c 2
 354 750 l 1
 438 750 l 1
EndSplineSet
Validated: 1
EndChar

StartChar: V
Encoding: 86 86 109
Width: 479
Flags: HMW
HStem: 0 21G<195 285 195 195> 730 20G<35 122 122 122 357 444 444 444>
LayerCount: 2
Fore
SplineSet
357 750 m 1
 444 750 l 1
 285 0 l 1
 195 0 l 1
 35 750 l 1
 122 750 l 1
 240 170 l 1
 357 750 l 1
EndSplineSet
Validated: 1
EndChar

StartChar: W
Encoding: 87 87 110
Width: 654
GlyphClass: 2
Flags: MW
HStem: 0 21G<140 230 140 140 424 514 424 424> 730 20G<37 123 123 123 290 364 364 364 531 617 617 617>
AnchorPoint: "Anchor-1" 328 0 basechar 0
LayerCount: 2
Fore
SplineSet
531 750 m 1
 617 750 l 1
 514 0 l 1
 424 0 l 1
 328 519 l 1
 230 0 l 1
 140 0 l 1
 37 750 l 1
 123 750 l 1
 195 189 l 1
 290 750 l 1
 364 750 l 1
 459 189 l 1
 531 750 l 1
EndSplineSet
Validated: 1
EndChar

StartChar: Wacute
Encoding: 7810 7810 111
Width: 654
GlyphClass: 2
Flags: MW
HStem: 0 21G<140 230 140 140 424 514 424 424> 730 20G<37 123 123 123 290 364 364 364 531 617 617 617>
AnchorPoint: "Anchor-1" 328 0 basechar 0
LayerCount: 2
Fore
SplineSet
447 986 m 1
 358 814 l 1
 296 814 l 1
 362 986 l 1
 447 986 l 1
531 750 m 1
 617 750 l 1
 514 0 l 1
 424 0 l 1
 328 519 l 1
 230 0 l 1
 140 0 l 1
 37 750 l 1
 123 750 l 1
 195 189 l 1
 290 750 l 1
 364 750 l 1
 459 189 l 1
 531 750 l 1
EndSplineSet
Validated: 1
EndChar

StartChar: Wcircumflex
Encoding: 372 372 112
Width: 654
GlyphClass: 2
Flags: MW
HStem: 0 21G<140 230 140 140 424 514 424 424> 730 20G<37 123 123 123 290 364 364 364 531 617 617 617> 840 146<182 361 182 361 294 394 294 473> 932 54<328 328>
AnchorPoint: "Anchor-1" 328 0 basechar 0
LayerCount: 2
Fore
SplineSet
328 932 m 1xd0
 261 840 l 1
 182 840 l 1xe0
 294 986 l 1
 361 986 l 1xd0
 473 840 l 1
 394 840 l 1xe0
 328 932 l 1xd0
531 750 m 1
 617 750 l 1
 514 0 l 1
 424 0 l 1
 328 519 l 1
 230 0 l 1
 140 0 l 1
 37 750 l 1
 123 750 l 1
 195 189 l 1
 290 750 l 1
 364 750 l 1
 459 189 l 1
 531 750 l 1
EndSplineSet
Validated: 1
EndChar

StartChar: Wdieresis
Encoding: 7812 7812 113
Width: 654
GlyphClass: 2
Flags: MW
HStem: 0 21G<140 230 140 140 424 514 424 424> 730 20G<37 123 123 123 290 364 364 364 531 617 617 617> 869 117<223 295 223 295 223 366 366 437>
AnchorPoint: "Anchor-1" 328 0 basechar 0
LayerCount: 2
Fore
SplineSet
295 986 m 1
 295 869 l 1
 223 869 l 1
 223 986 l 1
 295 986 l 1
437 986 m 1
 437 869 l 1
 366 869 l 1
 366 986 l 1
 437 986 l 1
531 750 m 1
 617 750 l 1
 514 0 l 1
 424 0 l 1
 328 519 l 1
 230 0 l 1
 140 0 l 1
 37 750 l 1
 123 750 l 1
 195 189 l 1
 290 750 l 1
 364 750 l 1
 459 189 l 1
 531 750 l 1
EndSplineSet
Validated: 1
EndChar

StartChar: Wgrave
Encoding: 7808 7808 114
Width: 654
GlyphClass: 2
Flags: MW
HStem: 0 21G<140 230 140 140 424 514 424 424> 730 20G<37 123 123 123 290 364 364 364 531 617 617 617>
AnchorPoint: "Anchor-1" 328 0 basechar 0
LayerCount: 2
Fore
SplineSet
361 814 m 1
 299 814 l 1
 209 986 l 1
 295 986 l 1
 361 814 l 1
531 750 m 1
 617 750 l 1
 514 0 l 1
 424 0 l 1
 328 519 l 1
 230 0 l 1
 140 0 l 1
 37 750 l 1
 123 750 l 1
 195 189 l 1
 290 750 l 1
 364 750 l 1
 459 189 l 1
 531 750 l 1
EndSplineSet
Validated: 1
EndChar

StartChar: X
Encoding: 88 88 115
Width: 487
Flags: HMW
HStem: 0 21G<40 127 40 40 360 447 360 360> 730 20G<40 127 127 127 360 447 447 447>
LayerCount: 2
Fore
SplineSet
447 750 m 1
 287 376 l 1
 447 0 l 1
 360 0 l 1
 244 271 l 1
 127 0 l 1
 40 0 l 1
 200 376 l 1
 40 750 l 1
 127 750 l 1
 244 480 l 1
 360 750 l 1
 447 750 l 1
EndSplineSet
Validated: 1
EndChar

StartChar: Y
Encoding: 89 89 116
Width: 521
GlyphClass: 2
Flags: HMW
HStem: 0 21G<219 303 219 219> 730 20G<40 126 126 126 395 481 481 481>
AnchorPoint: "Anchor-1" 261 0 basechar 0
LayerCount: 2
Fore
SplineSet
395 750 m 1
 481 750 l 1
 303 378 l 1
 303 0 l 1
 219 0 l 1
 219 378 l 1
 40 750 l 1
 126 750 l 1
 261 465 l 1
 395 750 l 1
EndSplineSet
Validated: 1
EndChar

StartChar: Yacute
Encoding: 221 221 117
Width: 469
GlyphClass: 2
Flags: MW
HStem: 0 21G<193 277 193 193> 730 20G<14 100 100 100 369 455 455 455>
AnchorPoint: "Anchor-1" 235 0 basechar 0
LayerCount: 2
Fore
SplineSet
354 986 m 1
 265 814 l 1
 203 814 l 1
 269 986 l 1
 354 986 l 1
369 750 m 1
 455 750 l 1
 277 378 l 1
 277 0 l 1
 193 0 l 1
 193 378 l 1
 14 750 l 1
 100 750 l 1
 235 465 l 1
 369 750 l 1
EndSplineSet
Validated: 1
EndChar

StartChar: Ycircumflex
Encoding: 374 374 118
Width: 469
GlyphClass: 2
Flags: MW
HStem: 0 21G<193 277 193 193> 730 20G<14 100 100 100 369 455 455 455> 840 146<89 268 89 268 201 301 201 380> 932 54<235 235>
AnchorPoint: "Anchor-1" 235 0 basechar 0
LayerCount: 2
Fore
SplineSet
235 932 m 1xd0
 168 840 l 1
 89 840 l 1
 201 986 l 1
 268 986 l 1
 380 840 l 1
 301 840 l 1xe0
 235 932 l 1xd0
369 750 m 1
 455 750 l 1
 277 378 l 1
 277 0 l 1
 193 0 l 1
 193 378 l 1
 14 750 l 1
 100 750 l 1
 235 465 l 1
 369 750 l 1
EndSplineSet
Validated: 1
EndChar

StartChar: Ydieresis
Encoding: 376 376 119
Width: 469
GlyphClass: 2
Flags: MW
HStem: 0 21G<193 277 193 193> 730 20G<14 100 100 100 369 455 455 455> 869 117<130 202 130 202 130 273 273 344>
AnchorPoint: "Anchor-1" 235 0 basechar 0
LayerCount: 2
Fore
SplineSet
202 986 m 1
 202 869 l 1
 130 869 l 1
 130 986 l 1
 202 986 l 1
344 986 m 1
 344 869 l 1
 273 869 l 1
 273 986 l 1
 344 986 l 1
369 750 m 1
 455 750 l 1
 277 378 l 1
 277 0 l 1
 193 0 l 1
 193 378 l 1
 14 750 l 1
 100 750 l 1
 235 465 l 1
 369 750 l 1
EndSplineSet
Validated: 1
EndChar

StartChar: Z
Encoding: 90 90 120
Width: 453
GlyphClass: 2
Flags: HMW
HStem: 0 84<140 403 140 403> 666 84<50 312 50 403>
AnchorPoint: "Anchor-1" 226 0 basechar 0
LayerCount: 2
Fore
SplineSet
403 750 m 1
 403 686 l 1
 140 84 l 1
 403 84 l 1
 403 0 l 1
 50 0 l 1
 50 64 l 1
 312 666 l 1
 50 666 l 1
 50 750 l 1
 403 750 l 1
EndSplineSet
Validated: 1
EndChar

StartChar: Zacute
Encoding: 377 377 121
Width: 422
GlyphClass: 2
Flags: MW
HStem: 0 84<125 388 125 388> 666 84<35 297 35 388>
AnchorPoint: "Anchor-1" 211 0 basechar 0
LayerCount: 2
Fore
SplineSet
330 986 m 1
 241 814 l 1
 179 814 l 1
 245 986 l 1
 330 986 l 1
388 750 m 1
 388 686 l 1
 125 84 l 1
 388 84 l 1
 388 0 l 1
 35 0 l 1
 35 64 l 1
 297 666 l 1
 35 666 l 1
 35 750 l 1
 388 750 l 1
EndSplineSet
Validated: 1
EndChar

StartChar: Zcaron
Encoding: 381 381 122
Width: 422
GlyphClass: 2
Flags: MW
HStem: 0 84<125 388 125 388> 666 84<35 297 35 388> 840 54<211 211 211 244 177 211> 840 146<65 244 65 177>
AnchorPoint: "Anchor-1" 211 0 basechar 0
LayerCount: 2
Fore
SplineSet
244 840 m 1xd0
 177 840 l 1
 65 986 l 1
 144 986 l 1xd0
 211 894 l 1xe0
 277 986 l 1
 356 986 l 1
 244 840 l 1xd0
388 750 m 1
 388 686 l 1
 125 84 l 1
 388 84 l 1
 388 0 l 1
 35 0 l 1
 35 64 l 1
 297 666 l 1
 35 666 l 1
 35 750 l 1
 388 750 l 1
EndSplineSet
Validated: 1
EndChar

StartChar: Zdotaccent
Encoding: 379 379 123
Width: 422
GlyphClass: 2
Flags: MW
HStem: 0 84<125 388 125 388> 666 84<35 297 35 388> 839 117<175 247 175 247>
AnchorPoint: "Anchor-1" 211 0 basechar 0
LayerCount: 2
Fore
SplineSet
247 956 m 1
 247 839 l 1
 175 839 l 1
 175 956 l 1
 247 956 l 1
388 750 m 1
 388 686 l 1
 125 84 l 1
 388 84 l 1
 388 0 l 1
 35 0 l 1
 35 64 l 1
 297 666 l 1
 35 666 l 1
 35 750 l 1
 388 750 l 1
EndSplineSet
Validated: 1
EndChar

StartChar: G.ss03
Encoding: 65537 -1 124
Width: 494
GlyphClass: 2
Flags: MW
HStem: -16 84<224.5 282 224.5 307> 378 84<253 348 253 432> 682 84<224.5 282>
AnchorPoint: "Anchor-1" 253 0 basechar 0
LayerCount: 2
Fore
SplineSet
253 -16 m 0
 145 -16 75 58 75 169 c 2
 75 581 l 2
 75 692 145 766 253 766 c 0
 361 766 432 692 432 581 c 2
 432 554 l 1
 348 554 l 1
 348 581 l 2
 348 642 311 682 253 682 c 0
 196 682 159 642 159 581 c 2
 159 169 l 2
 159 108 196 68 253 68 c 0
 311 68 348 108 348 169 c 2
 348 378 l 1
 253 378 l 1
 253 462 l 1
 432 462 l 1
 432 169 l 2
 432 58 361 -16 253 -16 c 0
EndSplineSet
Validated: 1
EndChar

StartChar: Gbreve.ss03
Encoding: 65538 -1 125
Width: 494
GlyphClass: 2
Flags: MW
HStem: -16 84<224.5 282 224.5 307> 378 84<253 348 253 432> 682 84<224.5 282> 868 52<237.5 268.5 237.5 285.5> 966 20G<140 198 198 198 307 364 364 364>
AnchorPoint: "Anchor-1" 253 0 basechar 0
LayerCount: 2
Fore
SplineSet
253 868 m 0
 188 868 140 911 140 976 c 2
 140 986 l 1
 198 986 l 1
 198 976 l 2
 198 942 222 920 253 920 c 0
 284 920 307 942 307 976 c 2
 307 986 l 1
 364 986 l 1
 364 976 l 2
 364 911 318 868 253 868 c 0
253 -16 m 0
 145 -16 75 58 75 169 c 2
 75 581 l 2
 75 692 145 766 253 766 c 0
 361 766 432 692 432 581 c 2
 432 554 l 1
 348 554 l 1
 348 581 l 2
 348 642 311 682 253 682 c 0
 196 682 159 642 159 581 c 2
 159 169 l 2
 159 108 196 68 253 68 c 0
 311 68 348 108 348 169 c 2
 348 378 l 1
 253 378 l 1
 253 462 l 1
 432 462 l 1
 432 169 l 2
 432 58 361 -16 253 -16 c 0
EndSplineSet
Validated: 1
EndChar

StartChar: Gcircumflex.ss03
Encoding: 65539 -1 126
Width: 494
GlyphClass: 2
Flags: MW
HStem: -16 84<224.5 282 224.5 307> 378 84<253 348 253 432> 682 84<224.5 282> 840 146<107 286 107 286 219 319 219 398> 932 54<253 253>
AnchorPoint: "Anchor-1" 253 0 basechar 0
LayerCount: 2
Fore
SplineSet
107 840 m 1xf0
 219 986 l 1
 286 986 l 1
 398 840 l 1
 319 840 l 1xf0
 253 932 l 1xe8
 186 840 l 1
 107 840 l 1xf0
253 -16 m 0
 145 -16 75 58 75 169 c 2
 75 581 l 2
 75 692 145 766 253 766 c 0
 361 766 432 692 432 581 c 2
 432 554 l 1
 348 554 l 1
 348 581 l 2
 348 642 311 682 253 682 c 0
 196 682 159 642 159 581 c 2
 159 169 l 2
 159 108 196 68 253 68 c 0
 311 68 348 108 348 169 c 2
 348 378 l 1
 253 378 l 1
 253 462 l 1
 432 462 l 1
 432 169 l 2
 432 58 361 -16 253 -16 c 0
EndSplineSet
Validated: 1
EndChar

StartChar: Gcommaaccent.ss03
Encoding: 65540 -1 127
Width: 494
GlyphClass: 2
Flags: MW
HStem: -220 159<191 307 215 246> -16 84<224.5 282 224.5 307> 378 84<253 348 253 432> 682 84<224.5 282>
AnchorPoint: "Anchor-1" 253 0 basechar 0
LayerCount: 2
Fore
SplineSet
253 -16 m 0
 145 -16 75 58 75 169 c 2
 75 581 l 2
 75 692 145 766 253 766 c 0
 361 766 432 692 432 581 c 2
 432 554 l 1
 348 554 l 1
 348 581 l 2
 348 642 311 682 253 682 c 0
 196 682 159 642 159 581 c 2
 159 169 l 2
 159 108 196 68 253 68 c 0
 311 68 348 108 348 169 c 2
 348 378 l 1
 253 378 l 1
 253 462 l 1
 432 462 l 1
 432 169 l 2
 432 58 361 -16 253 -16 c 0
191 -220 m 1
 215 -61 l 1
 307 -61 l 1
 246 -220 l 1
 191 -220 l 1
EndSplineSet
Validated: 1
EndChar

StartChar: Gdotaccent.ss03
Encoding: 65541 -1 128
Width: 494
GlyphClass: 2
Flags: MW
HStem: -16 84<224.5 282 224.5 307> 378 84<253 348 253 432> 682 84<224.5 282> 839 117<217 289 217 289>
AnchorPoint: "Anchor-1" 253 0 basechar 0
LayerCount: 2
Fore
SplineSet
217 839 m 1
 217 956 l 1
 289 956 l 1
 289 839 l 1
 217 839 l 1
253 -16 m 0
 145 -16 75 58 75 169 c 2
 75 581 l 2
 75 692 145 766 253 766 c 0
 361 766 432 692 432 581 c 2
 432 554 l 1
 348 554 l 1
 348 581 l 2
 348 642 311 682 253 682 c 0
 196 682 159 642 159 581 c 2
 159 169 l 2
 159 108 196 68 253 68 c 0
 311 68 348 108 348 169 c 2
 348 378 l 1
 253 378 l 1
 253 462 l 1
 432 462 l 1
 432 169 l 2
 432 58 361 -16 253 -16 c 0
EndSplineSet
Validated: 1
EndChar

StartChar: IJ.ss04
Encoding: 65542 -1 129
Width: 711
GlyphClass: 2
Flags: MW
HStem: -6 84<424 481.5 424 507> 0 21G<86 170 86 86> 730 20G<86 170 170 170 547 631 631 631>
AnchorPoint: "Anchor-1" 558 0 basechar 0
LayerCount: 2
Fore
SplineSet
170 0 m 1x60
 86 0 l 1
 86 750 l 1
 170 750 l 1
 170 0 l 1x60
453 -6 m 0xa0
 345 -6 274 68 274 179 c 2
 274 189 l 1
 358 189 l 1
 358 179 l 2
 358 118 395 78 453 78 c 0
 510 78 547 118 547 179 c 2
 547 750 l 1
 631 750 l 1
 631 179 l 2
 631 68 561 -6 453 -6 c 0xa0
EndSplineSet
Validated: 1
EndChar

StartChar: J.ss04
Encoding: 65543 -1 130
Width: 455
GlyphClass: 2
Flags: MW
HStem: -6 84<168 225.5 168 251> 730 20G<291 375 375 375>
AnchorPoint: "Anchor-1" 302 0 basechar 0
LayerCount: 2
Fore
SplineSet
197 -6 m 0
 89 -6 18 68 18 179 c 2
 18 189 l 1
 102 189 l 1
 102 179 l 2
 102 118 139 78 197 78 c 0
 254 78 291 118 291 179 c 2
 291 750 l 1
 375 750 l 1
 375 179 l 2
 375 68 305 -6 197 -6 c 0
EndSplineSet
Validated: 1
EndChar

StartChar: Jcircumflex.ss04
Encoding: 65544 -1 131
Width: 455
GlyphClass: 2
Flags: MW
HStem: -6 84<168 225.5 168 251> 730 20G<291 375 375 375> 840 146<186 365 186 365 298 398 298 477> 932 54<332 332>
AnchorPoint: "Anchor-1" 302 0 basechar 0
LayerCount: 2
Fore
SplineSet
186 840 m 1xe0
 298 986 l 1
 365 986 l 1
 477 840 l 1
 398 840 l 1xe0
 332 932 l 1xd0
 265 840 l 1
 186 840 l 1xe0
197 -6 m 0
 89 -6 18 68 18 179 c 2
 18 189 l 1
 102 189 l 1
 102 179 l 2
 102 118 139 78 197 78 c 0
 254 78 291 118 291 179 c 2
 291 750 l 1
 375 750 l 1
 375 179 l 2
 375 68 305 -6 197 -6 c 0
EndSplineSet
Validated: 1
EndChar

StartChar: a
Encoding: 97 97 132
Width: 452
GlyphClass: 2
Flags: MW
HStem: -12 76<179.5 217.5> 0 21G<311 391 311 311> 476 80<190 246.5>
AnchorPoint: "Anchor-1" 199 0 basechar 0
LayerCount: 2
Fore
SplineSet
218 556 m 0xa0
 321 556 391 485 391 379 c 2
 391 0 l 1
 311 0 l 1x60
 311 39 l 1
 285 6 244 -12 191 -12 c 0
 92 -12 37 49 37 135 c 0
 37 213 84 249 134 270 c 0
 211 303 311 301 311 370 c 2
 311 382 l 2
 311 438 275 476 218 476 c 0
 162 476 128 438 128 382 c 2
 128 365 l 1
 47 365 l 1
 47 379 l 2
 47 485 116 556 218 556 c 0xa0
209 64 m 0xa0
 273 64 311 101 311 167 c 2
 311 260 l 1
 273 235 223 232 182 217 c 0
 145 204 117 184 117 142 c 0
 117 97 150 64 209 64 c 0xa0
EndSplineSet
Validated: 1
Substitution2: "Single Substitution lookup 28 subtable" ordfeminine
Substitution2: "'ss01' Style Set 1 in Latin lookup 22 subtable" a.ss01
Substitution2: "'salt' Stylistic Alternatives in Latin lookup 21 subtable" a.ss01
AlternateSubs2: "'aalt' Access All Alternates in Latin lookup 1 subtable" ordfeminine a.ss01
EndChar

StartChar: aacute
Encoding: 225 225 133
Width: 452
GlyphClass: 2
Flags: MW
HStem: -12 76<179.5 217.5> 0 21G<311 391 311 311> 476 80<190 246.5>
AnchorPoint: "Anchor-1" 199 0 basechar 0
LayerCount: 2
Fore
SplineSet
337 780 m 1xa0
 248 608 l 1
 186 608 l 1
 252 780 l 1
 337 780 l 1xa0
218 556 m 0
 321 556 391 485 391 379 c 2
 391 0 l 1
 311 0 l 1x60
 311 39 l 1
 285 6 244 -12 191 -12 c 0
 92 -12 37 49 37 135 c 0
 37 213 84 249 134 270 c 0
 211 303 311 301 311 370 c 2
 311 382 l 2
 311 438 275 476 218 476 c 0
 162 476 128 438 128 382 c 2
 128 365 l 1
 47 365 l 1
 47 379 l 2
 47 485 116 556 218 556 c 0
209 64 m 0xa0
 273 64 311 101 311 167 c 2
 311 260 l 1
 273 235 223 232 182 217 c 0
 145 204 117 184 117 142 c 0
 117 97 150 64 209 64 c 0xa0
EndSplineSet
Validated: 1
Substitution2: "'ss01' Style Set 1 in Latin lookup 22 subtable" aacute.ss01
Substitution2: "'salt' Stylistic Alternatives in Latin lookup 21 subtable" aacute.ss01
Substitution2: "'aalt' Access All Alternates in Latin lookup 0 subtable" aacute.ss01
EndChar

StartChar: abreve
Encoding: 259 259 134
Width: 452
GlyphClass: 2
Flags: MW
HStem: -12 76<179.5 217.5> 0 21G<311 391 311 311> 476 80<190 246.5> 662 52<202.5 233.5 202.5 250.5> 760 20G<105 163 163 163 272 329 329 329>
AnchorPoint: "Anchor-1" 199 0 basechar 0
LayerCount: 2
Fore
SplineSet
218 662 m 0xb8
 153 662 105 705 105 770 c 2
 105 780 l 1
 163 780 l 1
 163 770 l 2
 163 736 187 714 218 714 c 0
 249 714 272 736 272 770 c 2
 272 780 l 1
 329 780 l 1
 329 770 l 2
 329 705 283 662 218 662 c 0xb8
218 556 m 0
 321 556 391 485 391 379 c 2
 391 0 l 1
 311 0 l 1x78
 311 39 l 1
 285 6 244 -12 191 -12 c 0
 92 -12 37 49 37 135 c 0
 37 213 84 249 134 270 c 0
 211 303 311 301 311 370 c 2
 311 382 l 2
 311 438 275 476 218 476 c 0
 162 476 128 438 128 382 c 2
 128 365 l 1
 47 365 l 1
 47 379 l 2
 47 485 116 556 218 556 c 0
209 64 m 0xb8
 273 64 311 101 311 167 c 2
 311 260 l 1
 273 235 223 232 182 217 c 0
 145 204 117 184 117 142 c 0
 117 97 150 64 209 64 c 0xb8
EndSplineSet
Validated: 1
Substitution2: "'ss01' Style Set 1 in Latin lookup 22 subtable" abreve.ss01
Substitution2: "'salt' Stylistic Alternatives in Latin lookup 21 subtable" abreve.ss01
Substitution2: "'aalt' Access All Alternates in Latin lookup 0 subtable" abreve.ss01
EndChar

StartChar: acircumflex
Encoding: 226 226 135
Width: 452
GlyphClass: 2
Flags: MW
HStem: -12 76<179.5 217.5> 0 21G<311 391 311 311> 476 80<190 246.5> 634 146<72 251 72 251 184 284 184 363> 726 54<218 218>
AnchorPoint: "Anchor-1" 199 0 basechar 0
LayerCount: 2
Fore
SplineSet
218 726 m 1xa8
 151 634 l 1
 72 634 l 1
 184 780 l 1
 251 780 l 1
 363 634 l 1
 284 634 l 1xb0
 218 726 l 1xa8
218 556 m 0
 321 556 391 485 391 379 c 2
 391 0 l 1
 311 0 l 1x70
 311 39 l 1
 285 6 244 -12 191 -12 c 0
 92 -12 37 49 37 135 c 0
 37 213 84 249 134 270 c 0
 211 303 311 301 311 370 c 2
 311 382 l 2
 311 438 275 476 218 476 c 0
 162 476 128 438 128 382 c 2
 128 365 l 1
 47 365 l 1
 47 379 l 2
 47 485 116 556 218 556 c 0
209 64 m 0xb0
 273 64 311 101 311 167 c 2
 311 260 l 1
 273 235 223 232 182 217 c 0
 145 204 117 184 117 142 c 0
 117 97 150 64 209 64 c 0xb0
EndSplineSet
Validated: 1
Substitution2: "'ss01' Style Set 1 in Latin lookup 22 subtable" acircumflex.ss01
Substitution2: "'salt' Stylistic Alternatives in Latin lookup 21 subtable" acircumflex.ss01
Substitution2: "'aalt' Access All Alternates in Latin lookup 0 subtable" acircumflex.ss01
EndChar

StartChar: adieresis
Encoding: 228 228 136
Width: 452
GlyphClass: 2
Flags: MW
HStem: -12 76<179.5 217.5> 0 21G<311 391 311 311> 476 80<190 246.5> 663 117<113 185 113 185 113 256 256 327>
AnchorPoint: "Anchor-1" 199 0 basechar 0
LayerCount: 2
Fore
SplineSet
185 780 m 1xb0
 185 663 l 1
 113 663 l 1
 113 780 l 1
 185 780 l 1xb0
327 780 m 1
 327 663 l 1
 256 663 l 1
 256 780 l 1
 327 780 l 1
218 556 m 0
 321 556 391 485 391 379 c 2
 391 0 l 1
 311 0 l 1x70
 311 39 l 1
 285 6 244 -12 191 -12 c 0
 92 -12 37 49 37 135 c 0
 37 213 84 249 134 270 c 0
 211 303 311 301 311 370 c 2
 311 382 l 2
 311 438 275 476 218 476 c 0
 162 476 128 438 128 382 c 2
 128 365 l 1
 47 365 l 1
 47 379 l 2
 47 485 116 556 218 556 c 0
209 64 m 0xb0
 273 64 311 101 311 167 c 2
 311 260 l 1
 273 235 223 232 182 217 c 0
 145 204 117 184 117 142 c 0
 117 97 150 64 209 64 c 0xb0
EndSplineSet
Validated: 1
Substitution2: "'ss01' Style Set 1 in Latin lookup 22 subtable" adieresis.ss01
Substitution2: "'salt' Stylistic Alternatives in Latin lookup 21 subtable" adieresis.ss01
Substitution2: "'aalt' Access All Alternates in Latin lookup 0 subtable" adieresis.ss01
EndChar

StartChar: agrave
Encoding: 224 224 137
Width: 452
GlyphClass: 2
Flags: MW
HStem: -12 76<179.5 217.5> 0 21G<311 391 311 311> 476 80<190 246.5>
AnchorPoint: "Anchor-1" 199 0 basechar 0
LayerCount: 2
Fore
SplineSet
251 608 m 1xa0
 189 608 l 1
 99 780 l 1
 185 780 l 1
 251 608 l 1xa0
218 556 m 0
 321 556 391 485 391 379 c 2
 391 0 l 1
 311 0 l 1x60
 311 39 l 1
 285 6 244 -12 191 -12 c 0
 92 -12 37 49 37 135 c 0
 37 213 84 249 134 270 c 0
 211 303 311 301 311 370 c 2
 311 382 l 2
 311 438 275 476 218 476 c 0
 162 476 128 438 128 382 c 2
 128 365 l 1
 47 365 l 1
 47 379 l 2
 47 485 116 556 218 556 c 0
209 64 m 0xa0
 273 64 311 101 311 167 c 2
 311 260 l 1
 273 235 223 232 182 217 c 0
 145 204 117 184 117 142 c 0
 117 97 150 64 209 64 c 0xa0
EndSplineSet
Validated: 1
Substitution2: "'ss01' Style Set 1 in Latin lookup 22 subtable" agrave.ss01
Substitution2: "'salt' Stylistic Alternatives in Latin lookup 21 subtable" agrave.ss01
Substitution2: "'aalt' Access All Alternates in Latin lookup 0 subtable" agrave.ss01
EndChar

StartChar: amacron
Encoding: 257 257 138
Width: 452
GlyphClass: 2
Flags: MW
HStem: -12 76<179.5 217.5> 0 21G<311 391 311 311> 476 80<190 246.5> 625 63<107 328 107 328>
AnchorPoint: "Anchor-1" 199 0 basechar 0
LayerCount: 2
Fore
SplineSet
328 688 m 1xb0
 328 625 l 1
 107 625 l 1
 107 688 l 1
 328 688 l 1xb0
218 556 m 0
 321 556 391 485 391 379 c 2
 391 0 l 1
 311 0 l 1x70
 311 39 l 1
 285 6 244 -12 191 -12 c 0
 92 -12 37 49 37 135 c 0
 37 213 84 249 134 270 c 0
 211 303 311 301 311 370 c 2
 311 382 l 2
 311 438 275 476 218 476 c 0
 162 476 128 438 128 382 c 2
 128 365 l 1
 47 365 l 1
 47 379 l 2
 47 485 116 556 218 556 c 0
209 64 m 0xb0
 273 64 311 101 311 167 c 2
 311 260 l 1
 273 235 223 232 182 217 c 0
 145 204 117 184 117 142 c 0
 117 97 150 64 209 64 c 0xb0
EndSplineSet
Validated: 1
Substitution2: "'ss01' Style Set 1 in Latin lookup 22 subtable" amacron.ss01
Substitution2: "'salt' Stylistic Alternatives in Latin lookup 21 subtable" amacron.ss01
Substitution2: "'aalt' Access All Alternates in Latin lookup 0 subtable" amacron.ss01
EndChar

StartChar: aogonek
Encoding: 261 261 139
Width: 452
GlyphClass: 2
Flags: MW
HStem: -213 62<335 393 378 393 378 393> -12 76<179.5 217.5> 0 39<311 312 311 311> 476 80<190 246.5>
AnchorPoint: "Anchor-1" 199 0 basechar 0
LayerCount: 2
Fore
SplineSet
378 -151 m 2xb0
 393 -151 l 1
 393 -213 l 1
 374 -213 l 2
 296 -213 251 -172 251 -112 c 0
 251 -68 272 -32 312 0 c 1
 311 0 l 1
 311 39 l 1xb0
 285 6 244 -12 191 -12 c 0xd0
 92 -12 37 49 37 135 c 0
 37 213 84 249 134 270 c 0
 211 303 311 301 311 370 c 2
 311 382 l 2
 311 438 275 476 218 476 c 0
 162 476 128 438 128 382 c 2
 128 365 l 1
 47 365 l 1
 47 379 l 2
 47 485 116 556 218 556 c 0
 321 556 391 485 391 379 c 2
 391 0 l 1
 373 0 l 1
 335 -31 314 -62 314 -99 c 0
 314 -130 337 -151 378 -151 c 2xb0
209 64 m 0xd0
 273 64 311 101 311 167 c 2
 311 260 l 1
 273 235 223 232 182 217 c 0
 145 204 117 184 117 142 c 0
 117 97 150 64 209 64 c 0xd0
EndSplineSet
Validated: 1
Substitution2: "'ss01' Style Set 1 in Latin lookup 22 subtable" aogonek.ss01
Substitution2: "'salt' Stylistic Alternatives in Latin lookup 21 subtable" aogonek.ss01
Substitution2: "'aalt' Access All Alternates in Latin lookup 0 subtable" aogonek.ss01
EndChar

StartChar: aring
Encoding: 229 229 140
Width: 452
GlyphClass: 2
Flags: MW
HStem: -12 76<179.5 217.5> 0 21G<311 391 311 311> 476 80<190 246.5> 573 53<208 228.5 208 243.5> 708 53<208 228.5>
AnchorPoint: "Anchor-1" 199 0 basechar 0
LayerCount: 2
Fore
SplineSet
218 573 m 0xb8
 168 573 124 611 124 667 c 0
 124 723 168 761 218 761 c 0
 269 761 312 723 312 667 c 0
 312 611 269 573 218 573 c 0xb8
218 708 m 0
 198 708 177 692 177 667 c 0
 177 642 198 626 218 626 c 0
 239 626 260 642 260 667 c 0
 260 692 239 708 218 708 c 0
218 556 m 0
 321 556 391 485 391 379 c 2
 391 0 l 1
 311 0 l 1x78
 311 39 l 1
 285 6 244 -12 191 -12 c 0
 92 -12 37 49 37 135 c 0
 37 213 84 249 134 270 c 0
 211 303 311 301 311 370 c 2
 311 382 l 2
 311 438 275 476 218 476 c 0
 162 476 128 438 128 382 c 2
 128 365 l 1
 47 365 l 1
 47 379 l 2
 47 485 116 556 218 556 c 0
209 64 m 0xb8
 273 64 311 101 311 167 c 2
 311 260 l 1
 273 235 223 232 182 217 c 0
 145 204 117 184 117 142 c 0
 117 97 150 64 209 64 c 0xb8
EndSplineSet
Validated: 1
Substitution2: "'ss01' Style Set 1 in Latin lookup 22 subtable" aring.ss01
Substitution2: "'salt' Stylistic Alternatives in Latin lookup 21 subtable" aring.ss01
Substitution2: "'aalt' Access All Alternates in Latin lookup 0 subtable" aring.ss01
EndChar

StartChar: atilde
Encoding: 227 227 141
Width: 452
GlyphClass: 2
Flags: MW
HStem: -12 76<179.5 217.5> 0 21G<311 391 311 311> 476 80<190 246.5> 629 54<265.5 269.5 255 299.5> 679 54<163 166.5 132.5 177>
AnchorPoint: "Anchor-1" 199 0 basechar 0
LayerCount: 2
Fore
SplineSet
151 653 m 2xb0
 151 634 l 1
 86 634 l 1
 86 657 l 2
 86 708 114 733 151 733 c 0xa8
 182 733 204 719 219 708 c 0
 235 695 247 683 263 683 c 0
 276 683 282 697 282 710 c 2
 282 731 l 1
 346 731 l 1
 346 704 l 2
 346 654 318 629 281 629 c 0xb0
 250 629 232 641 215 653 c 0
 197 666 184 679 170 679 c 0xa8
 156 679 151 665 151 653 c 2xb0
218 556 m 0
 321 556 391 485 391 379 c 2
 391 0 l 1
 311 0 l 1x70
 311 39 l 1
 285 6 244 -12 191 -12 c 0
 92 -12 37 49 37 135 c 0
 37 213 84 249 134 270 c 0
 211 303 311 301 311 370 c 2
 311 382 l 2
 311 438 275 476 218 476 c 0
 162 476 128 438 128 382 c 2
 128 365 l 1
 47 365 l 1
 47 379 l 2
 47 485 116 556 218 556 c 0
209 64 m 0xb0
 273 64 311 101 311 167 c 2
 311 260 l 1
 273 235 223 232 182 217 c 0
 145 204 117 184 117 142 c 0
 117 97 150 64 209 64 c 0xb0
EndSplineSet
Validated: 1
Substitution2: "'ss01' Style Set 1 in Latin lookup 22 subtable" atilde.ss01
Substitution2: "'salt' Stylistic Alternatives in Latin lookup 21 subtable" atilde.ss01
Substitution2: "'aalt' Access All Alternates in Latin lookup 0 subtable" atilde.ss01
EndChar

StartChar: ae
Encoding: 230 230 142
Width: 704
Flags: MW
HStem: -12 80<455 511 455 534.5> 258 76<391 574 391 654 391 574> 476 80<190 246 167 246.5 455 511>
LayerCount: 2
Fore
SplineSet
654 258 m 1
 391 258 l 1
 391 162 l 2
 391 106 427 68 483 68 c 0
 539 68 574 106 574 162 c 2
 574 176 l 1
 654 176 l 1
 654 166 l 2
 654 59 586 -12 483 -12 c 0
 417 -12 364 17 335 67 c 1
 304 12 248 -12 191 -12 c 0
 92 -12 37 49 37 135 c 0
 37 213 84 249 134 270 c 0
 211 303 311 301 311 370 c 2
 311 382 l 2
 311 438 275 476 218 476 c 0
 162 476 128 438 128 382 c 2
 128 365 l 1
 47 365 l 1
 47 379 l 2
 47 485 116 556 218 556 c 0
 274 556 321 535 351 498 c 1
 381 535 427 556 483 556 c 0
 586 556 654 485 654 379 c 2
 654 258 l 1
391 382 m 2
 391 334 l 1
 574 334 l 1
 574 382 l 2
 574 438 539 476 483 476 c 0
 427 476 391 438 391 382 c 2
311 167 m 2
 311 260 l 1
 273 235 223 232 182 217 c 0
 145 204 117 184 117 142 c 0
 117 97 150 64 209 64 c 0
 273 64 311 101 311 167 c 2
EndSplineSet
Validated: 1
EndChar

StartChar: b
Encoding: 98 98 143
Width: 468
Flags: MW
HStem: -12 80<233.5 268.5 211 299.5> 0 68<69 268.5> 476 80<233.5 268.5> 730 20G<69 150 150 150>
LayerCount: 2
Fore
SplineSet
256 556 m 0xb0
 343 556 412 499 412 382 c 2
 412 162 l 2
 412 45 343 -12 256 -12 c 0xb0
 211 -12 174 5 150 34 c 1
 150 0 l 1
 69 0 l 1x70
 69 750 l 1
 150 750 l 1
 150 510 l 1
 174 539 211 556 256 556 c 0xb0
331 162 m 2
 331 382 l 2
 331 438 297 476 240 476 c 0
 182 476 150 438 150 382 c 2
 150 161 l 2
 150 105 182 68 240 68 c 0
 297 68 331 106 331 162 c 2
EndSplineSet
Validated: 1
EndChar

StartChar: c
Encoding: 99 99 144
Width: 433
GlyphClass: 2
Flags: MW
HStem: -12 80<197.5 254 197.5 277> 476 80<197.5 254>
AnchorPoint: "Anchor-1" 226 0 basechar 0
LayerCount: 2
Fore
SplineSet
397 176 m 1
 397 166 l 2
 397 59 328 -12 226 -12 c 0
 123 -12 53 59 53 166 c 2
 53 379 l 2
 53 485 123 556 226 556 c 0
 328 556 397 485 397 379 c 2
 397 369 l 1
 316 369 l 1
 316 382 l 2
 316 438 282 476 226 476 c 0
 169 476 134 438 134 382 c 2
 134 162 l 2
 134 106 169 68 226 68 c 0
 282 68 316 106 316 162 c 2
 316 176 l 1
 397 176 l 1
EndSplineSet
Validated: 1
EndChar

StartChar: cacute
Encoding: 263 263 145
Width: 433
GlyphClass: 2
Flags: MW
HStem: -12 80<197.5 254 197.5 277> 476 80<197.5 254>
AnchorPoint: "Anchor-1" 226 0 basechar 0
LayerCount: 2
Fore
SplineSet
194 608 m 1
 260 780 l 1
 345 780 l 1
 256 608 l 1
 194 608 l 1
397 176 m 1
 397 166 l 2
 397 59 328 -12 226 -12 c 0
 123 -12 53 59 53 166 c 2
 53 379 l 2
 53 485 123 556 226 556 c 0
 328 556 397 485 397 379 c 2
 397 369 l 1
 316 369 l 1
 316 382 l 2
 316 438 282 476 226 476 c 0
 169 476 134 438 134 382 c 2
 134 162 l 2
 134 106 169 68 226 68 c 0
 282 68 316 106 316 162 c 2
 316 176 l 1
 397 176 l 1
EndSplineSet
Validated: 1
EndChar

StartChar: ccaron
Encoding: 269 269 146
Width: 433
GlyphClass: 2
Flags: MW
HStem: -12 80<197.5 254 197.5 277> 476 80<197.5 254> 634 54<192 226 226 226 226 259> 634 146<80 192 80 259>
AnchorPoint: "Anchor-1" 226 0 basechar 0
LayerCount: 2
Fore
SplineSet
192 634 m 1xd0
 80 780 l 1
 159 780 l 1xd0
 226 688 l 1xe0
 292 780 l 1
 371 780 l 1
 259 634 l 1
 192 634 l 1xd0
397 176 m 1
 397 166 l 2
 397 59 328 -12 226 -12 c 0
 123 -12 53 59 53 166 c 2
 53 379 l 2
 53 485 123 556 226 556 c 0
 328 556 397 485 397 379 c 2
 397 369 l 1
 316 369 l 1
 316 382 l 2
 316 438 282 476 226 476 c 0
 169 476 134 438 134 382 c 2
 134 162 l 2
 134 106 169 68 226 68 c 0
 282 68 316 106 316 162 c 2
 316 176 l 1
 397 176 l 1
EndSplineSet
Validated: 1
EndChar

StartChar: ccedilla
Encoding: 231 231 147
Width: 433
GlyphClass: 2
Flags: MW
HStem: -225 61<197 265 197 265> -10 78<199 199> 476 80<197.5 254>
AnchorPoint: "Anchor-1" 226 0 basechar 0
LayerCount: 2
Fore
SplineSet
397 369 m 1
 316 369 l 1
 316 382 l 2
 316 438 282 476 226 476 c 0
 169 476 134 438 134 382 c 2
 134 162 l 2
 134 106 169 68 226 68 c 0
 282 68 316 106 316 162 c 2
 316 176 l 1
 397 176 l 1
 397 166 l 2
 397 72 343 5 261 -9 c 1
 261 -47 l 1
 323 -40 363 -84 363 -132 c 0
 363 -188 324 -225 265 -225 c 2
 197 -225 l 1
 197 -164 l 1
 265 -164 l 2
 286 -164 301 -151 301 -132 c 0
 301 -113 286 -99 265 -99 c 2
 227 -99 l 1
 199 -81 l 1
 199 -10 l 1
 111 1 53 69 53 166 c 2
 53 379 l 2
 53 485 123 556 226 556 c 0
 328 556 397 485 397 379 c 2
 397 369 l 1
EndSplineSet
Validated: 33
EndChar

StartChar: ccircumflex
Encoding: 265 265 148
Width: 433
GlyphClass: 2
Flags: MW
HStem: -12 80<197.5 254 197.5 277> 476 80<197.5 254> 634 146<80 259 80 259 192 292 192 371> 726 54<226 226>
AnchorPoint: "Anchor-1" 226 0 basechar 0
LayerCount: 2
Fore
SplineSet
80 634 m 1xe0
 192 780 l 1
 259 780 l 1xd0
 371 634 l 1
 292 634 l 1xe0
 226 726 l 1xd0
 159 634 l 1
 80 634 l 1xe0
397 176 m 1
 397 166 l 2
 397 59 328 -12 226 -12 c 0
 123 -12 53 59 53 166 c 2
 53 379 l 2
 53 485 123 556 226 556 c 0
 328 556 397 485 397 379 c 2
 397 369 l 1
 316 369 l 1
 316 382 l 2
 316 438 282 476 226 476 c 0
 169 476 134 438 134 382 c 2
 134 162 l 2
 134 106 169 68 226 68 c 0
 282 68 316 106 316 162 c 2
 316 176 l 1
 397 176 l 1
EndSplineSet
Validated: 1
EndChar

StartChar: cdotaccent
Encoding: 267 267 149
Width: 433
GlyphClass: 2
Flags: MW
HStem: -12 80<197.5 254 197.5 277> 476 80<197.5 254> 633 117<190 262 190 262>
AnchorPoint: "Anchor-1" 226 0 basechar 0
LayerCount: 2
Fore
SplineSet
190 633 m 1
 190 750 l 1
 262 750 l 1
 262 633 l 1
 190 633 l 1
397 176 m 1
 397 166 l 2
 397 59 328 -12 226 -12 c 0
 123 -12 53 59 53 166 c 2
 53 379 l 2
 53 485 123 556 226 556 c 0
 328 556 397 485 397 379 c 2
 397 369 l 1
 316 369 l 1
 316 382 l 2
 316 438 282 476 226 476 c 0
 169 476 134 438 134 382 c 2
 134 162 l 2
 134 106 169 68 226 68 c 0
 282 68 316 106 316 162 c 2
 316 176 l 1
 397 176 l 1
EndSplineSet
Validated: 1
EndChar

StartChar: d
Encoding: 100 100 150
Width: 468
GlyphClass: 2
Flags: MW
HStem: -12 80<199 234.5> 0 68<199 398 199 318> 476 80<199 234.5 168 256> 730 20G<318 398 398 398>
AnchorPoint: "Anchor-1" 235 0 basechar 0
LayerCount: 2
Fore
SplineSet
318 750 m 1xb0
 398 750 l 1
 398 0 l 1
 318 0 l 1x70
 318 34 l 1
 293 5 257 -12 212 -12 c 0
 124 -12 56 45 56 162 c 2
 56 382 l 2
 56 499 124 556 212 556 c 0
 257 556 293 539 318 509 c 1
 318 750 l 1xb0
227 68 m 0xb0
 285 68 318 105 318 161 c 2
 318 382 l 2
 318 438 285 476 227 476 c 0
 171 476 136 438 136 382 c 2
 136 162 l 2
 136 106 171 68 227 68 c 0xb0
EndSplineSet
Validated: 1
EndChar

StartChar: eth
Encoding: 240 240 151
Width: 468
Flags: MW
HStem: -12 80<199 234.5> 0 68<199 398 199 318> 476 80<199 234.5 168 256> 684 66<204 227 204 245>
LayerCount: 2
Fore
SplineSet
453 690 m 1xb0
 453 631 l 1
 396 616 l 1
 397 608 398 599 398 590 c 2
 398 0 l 1
 318 0 l 1x70
 318 34 l 1
 293 5 257 -12 212 -12 c 0
 124 -12 56 45 56 162 c 2
 56 382 l 2
 56 499 124 556 212 556 c 0
 257 556 293 539 318 509 c 1
 318 590 l 1
 318 595 l 1
 233 572 l 1
 233 630 l 1
 301 649 l 1
 286 671 260 684 227 684 c 2
 204 684 l 1
 204 750 l 1
 245 750 l 2
 307 750 356 720 381 670 c 1
 453 690 l 1xb0
227 68 m 0xb0
 285 68 318 105 318 161 c 2
 318 382 l 2
 318 438 285 476 227 476 c 0
 171 476 136 438 136 382 c 2
 136 162 l 2
 136 106 171 68 227 68 c 0xb0
EndSplineSet
Validated: 1
EndChar

StartChar: dcaron
Encoding: 271 271 152
Width: 651
GlyphClass: 2
Flags: MW
HStem: -12 80<199 234.5> 0 68<199 398 199 318> 476 80<199 234.5 168 256> 730 20G<318 398 398 398 495 575 575 575>
AnchorPoint: "Anchor-1" 235 0 basechar 0
LayerCount: 2
Fore
SplineSet
318 509 m 1xb0
 318 750 l 1
 398 750 l 1
 398 0 l 1
 318 0 l 1x70
 318 34 l 1
 293 5 257 -12 212 -12 c 0
 124 -12 56 45 56 162 c 2
 56 382 l 2
 56 499 124 556 212 556 c 0
 257 556 293 539 318 509 c 1xb0
495 750 m 1
 575 750 l 1
 535 526 l 1
 455 526 l 1
 495 750 l 1
227 68 m 0xb0
 285 68 318 105 318 161 c 2
 318 382 l 2
 318 438 285 476 227 476 c 0
 171 476 136 438 136 382 c 2
 136 162 l 2
 136 106 171 68 227 68 c 0xb0
EndSplineSet
Validated: 1
EndChar

StartChar: dcroat
Encoding: 273 273 153
Width: 468
GlyphClass: 2
Flags: MW
HStem: -12 80<199 234.5> 0 68<199 398 199 318> 476 80<199 234.5 168 256> 608 70<239 318 239 318 398 476> 730 20G<318 398 398 398>
AnchorPoint: "Anchor-1" 235 0 basechar 0
LayerCount: 2
Fore
SplineSet
476 678 m 1xb8
 476 608 l 1
 398 608 l 1
 398 0 l 1
 318 0 l 1x78
 318 34 l 1
 293 5 257 -12 212 -12 c 0
 124 -12 56 45 56 162 c 2
 56 382 l 2
 56 499 124 556 212 556 c 0
 257 556 293 539 318 509 c 1
 318 608 l 1
 239 608 l 1
 239 678 l 1
 318 678 l 1
 318 750 l 1
 398 750 l 1
 398 678 l 1
 476 678 l 1xb8
227 68 m 0xb8
 285 68 318 105 318 161 c 2
 318 382 l 2
 318 438 285 476 227 476 c 0
 171 476 136 438 136 382 c 2
 136 162 l 2
 136 106 171 68 227 68 c 0xb8
EndSplineSet
Validated: 1
EndChar

StartChar: e
Encoding: 101 101 154
Width: 447
GlyphClass: 2
Flags: MW
HStem: -12 80<197.5 254 197.5 277> 258 76<134 316 134 397 134 316> 476 80<197.5 254>
AnchorPoint: "Anchor-1" 226 0 basechar 0
LayerCount: 2
Fore
SplineSet
397 258 m 1
 134 258 l 1
 134 162 l 2
 134 106 169 68 226 68 c 0
 282 68 316 106 316 162 c 2
 316 176 l 1
 397 176 l 1
 397 166 l 2
 397 59 328 -12 226 -12 c 0
 123 -12 53 59 53 166 c 2
 53 379 l 2
 53 485 123 556 226 556 c 0
 328 556 397 485 397 379 c 2
 397 258 l 1
226 476 m 0
 169 476 134 438 134 382 c 2
 134 334 l 1
 316 334 l 1
 316 382 l 2
 316 438 282 476 226 476 c 0
EndSplineSet
Validated: 1
EndChar

StartChar: eacute
Encoding: 233 233 155
Width: 447
GlyphClass: 2
Flags: MW
HStem: -12 80<197.5 254 197.5 277> 258 76<134 316 134 397 134 316> 476 80<197.5 254>
AnchorPoint: "Anchor-1" 226 0 basechar 0
LayerCount: 2
Fore
SplineSet
345 780 m 1
 256 608 l 1
 194 608 l 1
 260 780 l 1
 345 780 l 1
397 258 m 1
 134 258 l 1
 134 162 l 2
 134 106 169 68 226 68 c 0
 282 68 316 106 316 162 c 2
 316 176 l 1
 397 176 l 1
 397 166 l 2
 397 59 328 -12 226 -12 c 0
 123 -12 53 59 53 166 c 2
 53 379 l 2
 53 485 123 556 226 556 c 0
 328 556 397 485 397 379 c 2
 397 258 l 1
226 476 m 0
 169 476 134 438 134 382 c 2
 134 334 l 1
 316 334 l 1
 316 382 l 2
 316 438 282 476 226 476 c 0
EndSplineSet
Validated: 1
EndChar

StartChar: ebreve
Encoding: 277 277 156
Width: 447
GlyphClass: 2
Flags: MW
HStem: -12 80<197.5 254 197.5 277> 258 76<134 316 134 397 134 316> 476 80<197.5 254> 662 52<210.5 241.5 210.5 258.5> 760 20G<113 171 171 171 280 337 337 337>
AnchorPoint: "Anchor-1" 226 0 basechar 0
LayerCount: 2
Fore
SplineSet
226 662 m 0
 161 662 113 705 113 770 c 2
 113 780 l 1
 171 780 l 1
 171 770 l 2
 171 736 195 714 226 714 c 0
 257 714 280 736 280 770 c 2
 280 780 l 1
 337 780 l 1
 337 770 l 2
 337 705 291 662 226 662 c 0
397 258 m 1
 134 258 l 1
 134 162 l 2
 134 106 169 68 226 68 c 0
 282 68 316 106 316 162 c 2
 316 176 l 1
 397 176 l 1
 397 166 l 2
 397 59 328 -12 226 -12 c 0
 123 -12 53 59 53 166 c 2
 53 379 l 2
 53 485 123 556 226 556 c 0
 328 556 397 485 397 379 c 2
 397 258 l 1
226 476 m 0
 169 476 134 438 134 382 c 2
 134 334 l 1
 316 334 l 1
 316 382 l 2
 316 438 282 476 226 476 c 0
EndSplineSet
Validated: 1
EndChar

StartChar: ecaron
Encoding: 283 283 157
Width: 447
GlyphClass: 2
Flags: MW
HStem: -12 80<197.5 254 197.5 277> 258 76<134 316 134 397 134 316> 476 80<197.5 254> 634 54<226 226 226 259 192 226> 634 146<80 259 80 192>
AnchorPoint: "Anchor-1" 226 0 basechar 0
LayerCount: 2
Fore
SplineSet
259 634 m 1xe8
 192 634 l 1
 80 780 l 1
 159 780 l 1xe8
 226 688 l 1xf0
 292 780 l 1
 371 780 l 1
 259 634 l 1xe8
397 258 m 1
 134 258 l 1
 134 162 l 2
 134 106 169 68 226 68 c 0
 282 68 316 106 316 162 c 2
 316 176 l 1
 397 176 l 1
 397 166 l 2
 397 59 328 -12 226 -12 c 0
 123 -12 53 59 53 166 c 2
 53 379 l 2
 53 485 123 556 226 556 c 0
 328 556 397 485 397 379 c 2
 397 258 l 1
226 476 m 0
 169 476 134 438 134 382 c 2
 134 334 l 1
 316 334 l 1
 316 382 l 2
 316 438 282 476 226 476 c 0
EndSplineSet
Validated: 1
EndChar

StartChar: ecircumflex
Encoding: 234 234 158
Width: 447
GlyphClass: 2
Flags: MW
HStem: -12 80<197.5 254 197.5 277> 258 76<134 316 134 397 134 316> 476 80<197.5 254> 634 146<80 259 80 259 192 292 192 371> 726 54<226 226>
AnchorPoint: "Anchor-1" 226 0 basechar 0
LayerCount: 2
Fore
SplineSet
226 726 m 1xe8
 159 634 l 1
 80 634 l 1xf0
 192 780 l 1
 259 780 l 1xe8
 371 634 l 1
 292 634 l 1xf0
 226 726 l 1xe8
397 258 m 1
 134 258 l 1
 134 162 l 2
 134 106 169 68 226 68 c 0
 282 68 316 106 316 162 c 2
 316 176 l 1
 397 176 l 1
 397 166 l 2
 397 59 328 -12 226 -12 c 0
 123 -12 53 59 53 166 c 2
 53 379 l 2
 53 485 123 556 226 556 c 0
 328 556 397 485 397 379 c 2
 397 258 l 1
226 476 m 0
 169 476 134 438 134 382 c 2
 134 334 l 1
 316 334 l 1
 316 382 l 2
 316 438 282 476 226 476 c 0
EndSplineSet
Validated: 1
EndChar

StartChar: edieresis
Encoding: 235 235 159
Width: 447
GlyphClass: 2
Flags: MW
HStem: -12 80<197.5 254 197.5 277> 258 76<134 316 134 397 134 316> 476 80<197.5 254> 663 117<121 193 121 193 121 264 264 335>
AnchorPoint: "Anchor-1" 226 0 basechar 0
LayerCount: 2
Fore
SplineSet
193 780 m 1
 193 663 l 1
 121 663 l 1
 121 780 l 1
 193 780 l 1
335 780 m 1
 335 663 l 1
 264 663 l 1
 264 780 l 1
 335 780 l 1
397 258 m 1
 134 258 l 1
 134 162 l 2
 134 106 169 68 226 68 c 0
 282 68 316 106 316 162 c 2
 316 176 l 1
 397 176 l 1
 397 166 l 2
 397 59 328 -12 226 -12 c 0
 123 -12 53 59 53 166 c 2
 53 379 l 2
 53 485 123 556 226 556 c 0
 328 556 397 485 397 379 c 2
 397 258 l 1
226 476 m 0
 169 476 134 438 134 382 c 2
 134 334 l 1
 316 334 l 1
 316 382 l 2
 316 438 282 476 226 476 c 0
EndSplineSet
Validated: 1
EndChar

StartChar: edotaccent
Encoding: 279 279 160
Width: 447
GlyphClass: 2
Flags: MW
HStem: -12 80<197.5 254 197.5 277> 258 76<134 316 134 397 134 316> 476 80<197.5 254> 633 117<190 262 190 262>
AnchorPoint: "Anchor-1" 226 0 basechar 0
LayerCount: 2
Fore
SplineSet
262 750 m 1
 262 633 l 1
 190 633 l 1
 190 750 l 1
 262 750 l 1
397 258 m 1
 134 258 l 1
 134 162 l 2
 134 106 169 68 226 68 c 0
 282 68 316 106 316 162 c 2
 316 176 l 1
 397 176 l 1
 397 166 l 2
 397 59 328 -12 226 -12 c 0
 123 -12 53 59 53 166 c 2
 53 379 l 2
 53 485 123 556 226 556 c 0
 328 556 397 485 397 379 c 2
 397 258 l 1
226 476 m 0
 169 476 134 438 134 382 c 2
 134 334 l 1
 316 334 l 1
 316 382 l 2
 316 438 282 476 226 476 c 0
EndSplineSet
Validated: 1
EndChar

StartChar: egrave
Encoding: 232 232 161
Width: 447
GlyphClass: 2
Flags: MW
HStem: -12 80<197.5 254 197.5 277> 258 76<134 316 134 397 134 316> 476 80<197.5 254>
AnchorPoint: "Anchor-1" 226 0 basechar 0
LayerCount: 2
Fore
SplineSet
259 608 m 1
 197 608 l 1
 107 780 l 1
 193 780 l 1
 259 608 l 1
397 258 m 1
 134 258 l 1
 134 162 l 2
 134 106 169 68 226 68 c 0
 282 68 316 106 316 162 c 2
 316 176 l 1
 397 176 l 1
 397 166 l 2
 397 59 328 -12 226 -12 c 0
 123 -12 53 59 53 166 c 2
 53 379 l 2
 53 485 123 556 226 556 c 0
 328 556 397 485 397 379 c 2
 397 258 l 1
226 476 m 0
 169 476 134 438 134 382 c 2
 134 334 l 1
 316 334 l 1
 316 382 l 2
 316 438 282 476 226 476 c 0
EndSplineSet
Validated: 1
EndChar

StartChar: emacron
Encoding: 275 275 162
Width: 447
GlyphClass: 2
Flags: MW
HStem: -12 80<197.5 254 197.5 277> 258 76<134 316 134 397 134 316> 476 80<197.5 254> 625 63<115 336 115 336>
AnchorPoint: "Anchor-1" 226 0 basechar 0
LayerCount: 2
Fore
SplineSet
336 688 m 1
 336 625 l 1
 115 625 l 1
 115 688 l 1
 336 688 l 1
397 258 m 1
 134 258 l 1
 134 162 l 2
 134 106 169 68 226 68 c 0
 282 68 316 106 316 162 c 2
 316 176 l 1
 397 176 l 1
 397 166 l 2
 397 59 328 -12 226 -12 c 0
 123 -12 53 59 53 166 c 2
 53 379 l 2
 53 485 123 556 226 556 c 0
 328 556 397 485 397 379 c 2
 397 258 l 1
226 476 m 0
 169 476 134 438 134 382 c 2
 134 334 l 1
 316 334 l 1
 316 382 l 2
 316 438 282 476 226 476 c 0
EndSplineSet
Validated: 1
EndChar

StartChar: eogonek
Encoding: 281 281 163
Width: 447
GlyphClass: 2
Flags: MW
HStem: -213 62<248 306 291 306 291 306> -12 80 -4 23 258 76<134 316 134 397 134 316> 476 80<197.5 254>
AnchorPoint: "Anchor-1" 226 0 basechar 0
LayerCount: 2
Fore
SplineSet
397 258 m 1xd8
 134 258 l 1
 134 162 l 2
 134 106 169 68 226 68 c 0xd8
 282 68 316 106 316 162 c 2
 316 176 l 1
 397 176 l 1
 397 166 l 2
 397 79 352 16 281 -4 c 1xb8
 246 -34 227 -64 227 -99 c 0
 227 -130 250 -151 291 -151 c 2
 306 -151 l 1
 306 -213 l 1
 287 -213 l 2
 209 -213 164 -172 164 -112 c 0
 164 -73 180 -41 211 -12 c 1
 116 -5 53 64 53 166 c 2
 53 379 l 2
 53 485 123 556 226 556 c 0
 328 556 397 485 397 379 c 2
 397 258 l 1xd8
226 476 m 0
 169 476 134 438 134 382 c 2
 134 334 l 1
 316 334 l 1
 316 382 l 2
 316 438 282 476 226 476 c 0
EndSplineSet
Validated: 1
EndChar

StartChar: f
Encoding: 102 102 164
Width: 322
Flags: MW
HStem: 0 21G<105 105 105 185> 468 76<4 105 4 105 185 318> 680 80<249.5 318 278 318>
LayerCount: 2
Fore
SplineSet
105 0 m 1
 105 468 l 1
 4 468 l 1
 4 544 l 1
 105 544 l 1
 105 579 l 2
 105 685 173 760 278 760 c 2
 318 760 l 1
 318 680 l 1
 278 680 l 2
 221 680 185 639 185 579 c 2
 185 544 l 1
 318 544 l 1
 318 468 l 1
 185 468 l 1
 185 0 l 1
 105 0 l 1
EndSplineSet
Validated: 1
EndChar

StartChar: g
Encoding: 103 103 165
Width: 458
GlyphClass: 2
Flags: MW
HStem: -183 80<189 245 189 268> 58 80<190 225> 476 68<190 389> 476 80<190 225 158.5 247>
AnchorPoint: "Anchor-1" 217 -183 basechar 0
LayerCount: 2
Fore
SplineSet
309 544 m 1xe0
 389 544 l 1xe0
 389 -6 l 2
 389 -112 319 -183 217 -183 c 0
 114 -183 46 -112 46 -5 c 2
 46 9 l 1
 126 9 l 1
 126 -9 l 2
 126 -65 161 -103 217 -103 c 0
 273 -103 309 -65 309 -9 c 2
 309 104 l 1
 284 75 248 58 202 58 c 0
 115 58 47 115 47 232 c 2
 47 382 l 2
 47 499 115 556 202 556 c 0xd0
 248 556 284 539 309 509 c 1
 309 544 l 1xe0
218 138 m 0
 276 138 309 175 309 231 c 2
 309 382 l 2
 309 438 276 476 218 476 c 0xd0
 162 476 127 438 127 382 c 2
 127 232 l 2
 127 176 162 138 218 138 c 0
EndSplineSet
Validated: 1
EndChar

StartChar: gbreve
Encoding: 287 287 166
Width: 458
GlyphClass: 2
Flags: MW
HStem: -183 80<189 245 189 268> 58 80<190 225> 476 68<190 389> 476 80<190 225 158.5 247> 662 52<202.5 233.5 202.5 250.5> 760 20G<105 163 163 163 272 329 329 329>
AnchorPoint: "Anchor-1" 217 -183 basechar 0
LayerCount: 2
Fore
SplineSet
218 662 m 0xdc
 153 662 105 705 105 770 c 2
 105 780 l 1
 163 780 l 1
 163 770 l 2
 163 736 187 714 218 714 c 0
 249 714 272 736 272 770 c 2
 272 780 l 1
 329 780 l 1
 329 770 l 2
 329 705 283 662 218 662 c 0xdc
309 544 m 1xec
 389 544 l 1xec
 389 -6 l 2
 389 -112 319 -183 217 -183 c 0
 114 -183 46 -112 46 -5 c 2
 46 9 l 1
 126 9 l 1
 126 -9 l 2
 126 -65 161 -103 217 -103 c 0
 273 -103 309 -65 309 -9 c 2
 309 104 l 1
 284 75 248 58 202 58 c 0
 115 58 47 115 47 232 c 2
 47 382 l 2
 47 499 115 556 202 556 c 0xdc
 248 556 284 539 309 509 c 1
 309 544 l 1xec
218 138 m 0
 276 138 309 175 309 231 c 2
 309 382 l 2
 309 438 276 476 218 476 c 0xdc
 162 476 127 438 127 382 c 2
 127 232 l 2
 127 176 162 138 218 138 c 0
EndSplineSet
Validated: 1
EndChar

StartChar: gcircumflex
Encoding: 285 285 167
Width: 458
GlyphClass: 2
Flags: MW
HStem: -183 80<189 245 189 268> 58 80<190 225> 476 68<190 389> 476 80<190 225 158.5 247> 634 146<72 251 72 251 184 284 184 363> 726 54<218 218>
AnchorPoint: "Anchor-1" 217 -183 basechar 0
LayerCount: 2
Fore
SplineSet
218 726 m 1xd4
 151 634 l 1
 72 634 l 1
 184 780 l 1
 251 780 l 1
 363 634 l 1
 284 634 l 1xd8
 218 726 l 1xd4
309 544 m 1xe8
 389 544 l 1xe8
 389 -6 l 2
 389 -112 319 -183 217 -183 c 0
 114 -183 46 -112 46 -5 c 2
 46 9 l 1
 126 9 l 1
 126 -9 l 2
 126 -65 161 -103 217 -103 c 0
 273 -103 309 -65 309 -9 c 2
 309 104 l 1
 284 75 248 58 202 58 c 0
 115 58 47 115 47 232 c 2
 47 382 l 2
 47 499 115 556 202 556 c 0xd8
 248 556 284 539 309 509 c 1
 309 544 l 1xe8
218 138 m 0
 276 138 309 175 309 231 c 2
 309 382 l 2
 309 438 276 476 218 476 c 0xd8
 162 476 127 438 127 382 c 2
 127 232 l 2
 127 176 162 138 218 138 c 0
EndSplineSet
Validated: 1
EndChar

StartChar: gcommaaccent
Encoding: 291 291 168
Width: 458
GlyphClass: 2
Flags: MW
HStem: -403 159<155 271 179 210> -183 80<189 245 189 268> 58 80<190 225> 476 68<190 389> 476 80<190 225 158.5 247>
AnchorPoint: "Anchor-1" 217 -183 basechar 0
LayerCount: 2
Fore
SplineSet
309 544 m 1xf0
 389 544 l 1xf0
 389 -6 l 2
 389 -112 319 -183 217 -183 c 0
 114 -183 46 -112 46 -5 c 2
 46 9 l 1
 126 9 l 1
 126 -9 l 2
 126 -65 161 -103 217 -103 c 0
 273 -103 309 -65 309 -9 c 2
 309 104 l 1
 284 75 248 58 202 58 c 0
 115 58 47 115 47 232 c 2
 47 382 l 2
 47 499 115 556 202 556 c 0xe8
 248 556 284 539 309 509 c 1
 309 544 l 1xf0
218 138 m 0
 276 138 309 175 309 231 c 2
 309 382 l 2
 309 438 276 476 218 476 c 0xe8
 162 476 127 438 127 382 c 2
 127 232 l 2
 127 176 162 138 218 138 c 0
155 -403 m 1
 179 -244 l 1
 271 -244 l 1
 210 -403 l 1
 155 -403 l 1
EndSplineSet
Validated: 1
EndChar

StartChar: gdotaccent
Encoding: 289 289 169
Width: 458
GlyphClass: 2
Flags: MW
HStem: -183 80<189 245 189 268> 58 80<190 225> 476 68<190 389> 476 80<190 225 158.5 247> 633 117<182 254 182 254>
AnchorPoint: "Anchor-1" 217 -183 basechar 0
LayerCount: 2
Fore
SplineSet
254 750 m 1xd8
 254 633 l 1
 182 633 l 1
 182 750 l 1
 254 750 l 1xd8
309 544 m 1xe8
 389 544 l 1xe8
 389 -6 l 2
 389 -112 319 -183 217 -183 c 0
 114 -183 46 -112 46 -5 c 2
 46 9 l 1
 126 9 l 1
 126 -9 l 2
 126 -65 161 -103 217 -103 c 0
 273 -103 309 -65 309 -9 c 2
 309 104 l 1
 284 75 248 58 202 58 c 0
 115 58 47 115 47 232 c 2
 47 382 l 2
 47 499 115 556 202 556 c 0xd8
 248 556 284 539 309 509 c 1
 309 544 l 1xe8
218 138 m 0
 276 138 309 175 309 231 c 2
 309 382 l 2
 309 438 276 476 218 476 c 0xd8
 162 476 127 438 127 382 c 2
 127 232 l 2
 127 176 162 138 218 138 c 0
EndSplineSet
Validated: 1
EndChar

StartChar: h
Encoding: 104 104 170
Width: 470
GlyphClass: 2
Flags: MW
HStem: 0 21G<69 150 69 69 326 406 326 326> 476 81<235 265> 730 20G<69 150 150 150>
AnchorPoint: "Anchor-1" 236 0 basechar 0
LayerCount: 2
Fore
SplineSet
258 557 m 0
 342 557 406 500 406 394 c 2
 406 0 l 1
 326 0 l 1
 326 383 l 2
 326 439 292 476 238 476 c 0
 184 476 150 439 150 383 c 2
 150 0 l 1
 69 0 l 1
 69 750 l 1
 150 750 l 1
 150 509 l 1
 175 540 212 557 258 557 c 0
EndSplineSet
Validated: 1
EndChar

StartChar: hbar
Encoding: 295 295 171
Width: 470
GlyphClass: 2
Flags: MW
HStem: 0 21G<69 150 69 69 326 406 326 326> 476 81<235 265> 617 70<-10 69 -10 69 150 227> 730 20G<69 150 150 150>
AnchorPoint: "Anchor-1" 236 0 basechar 0
LayerCount: 2
Fore
SplineSet
258 557 m 0
 342 557 406 500 406 394 c 2
 406 0 l 1
 326 0 l 1
 326 383 l 2
 326 439 292 476 238 476 c 0
 184 476 150 439 150 383 c 2
 150 0 l 1
 69 0 l 1
 69 617 l 1
 -10 617 l 1
 -10 687 l 1
 69 687 l 1
 69 750 l 1
 150 750 l 1
 150 687 l 1
 227 687 l 1
 227 617 l 1
 150 617 l 1
 150 509 l 1
 175 540 212 557 258 557 c 0
EndSplineSet
Validated: 1
EndChar

StartChar: hcircumflex
Encoding: 293 293 172
Width: 470
GlyphClass: 2
Flags: MW
HStem: 0 21G<69 150 69 69 326 406 326 326> 476 81<235 265> 730 20G<69 150 150 150> 840 146<-37 142 -37 142 75 254 75 175> 932 54<109 109>
AnchorPoint: "Anchor-1" 236 0 basechar 0
LayerCount: 2
Fore
SplineSet
175 840 m 1xf0
 109 932 l 1xe8
 42 840 l 1
 -37 840 l 1
 75 986 l 1
 142 986 l 1
 254 840 l 1
 175 840 l 1xf0
258 557 m 0
 342 557 406 500 406 394 c 2
 406 0 l 1
 326 0 l 1
 326 383 l 2
 326 439 292 476 238 476 c 0
 184 476 150 439 150 383 c 2
 150 0 l 1
 69 0 l 1
 69 750 l 1
 150 750 l 1
 150 509 l 1
 175 540 212 557 258 557 c 0
EndSplineSet
Validated: 1
EndChar

StartChar: i
Encoding: 105 105 173
Width: 219
Flags: MW
HStem: 0 21G<69 69 69 150> 524 20G<69 150 150 150> 601 119<69 150 69 150>
LayerCount: 2
Fore
SplineSet
69 601 m 1
 69 720 l 1
 150 720 l 1
 150 601 l 1
 69 601 l 1
69 0 m 1
 69 544 l 1
 150 544 l 1
 150 0 l 1
 69 0 l 1
EndSplineSet
Validated: 1
EndChar

StartChar: dotlessi
Encoding: 305 305 174
Width: 219
GlyphClass: 2
Flags: MW
HStem: 0 21G<69 69 69 150> 524 20G<69 150 150 150>
AnchorPoint: "Anchor-1" 110 0 basechar 0
LayerCount: 2
Fore
SplineSet
69 0 m 1
 69 544 l 1
 150 544 l 1
 150 0 l 1
 69 0 l 1
EndSplineSet
Validated: 1
EndChar

StartChar: iacute
Encoding: 237 237 175
Width: 219
GlyphClass: 2
Flags: MW
HStem: 0 21G<69 69 69 150> 524 20G<69 150 150 150>
AnchorPoint: "Anchor-1" 110 0 basechar 0
LayerCount: 2
Fore
SplineSet
78 608 m 1
 144 780 l 1
 229 780 l 1
 140 608 l 1
 78 608 l 1
69 0 m 1
 69 544 l 1
 150 544 l 1
 150 0 l 1
 69 0 l 1
EndSplineSet
Validated: 1
EndChar

StartChar: icircumflex
Encoding: 238 238 176
Width: 219
GlyphClass: 2
Flags: MW
HStem: 0 21G<69 69 69 150> 524 20G<69 150 150 150> 634 146<-36 143 -36 143 76 176 76 255> 726 54<110 110>
AnchorPoint: "Anchor-1" 110 0 basechar 0
LayerCount: 2
Fore
SplineSet
-36 634 m 1xe0
 76 780 l 1
 143 780 l 1xd0
 255 634 l 1
 176 634 l 1xe0
 110 726 l 1xd0
 43 634 l 1
 -36 634 l 1xe0
69 0 m 1
 69 544 l 1
 150 544 l 1
 150 0 l 1
 69 0 l 1
EndSplineSet
Validated: 1
EndChar

StartChar: idieresis
Encoding: 239 239 177
Width: 219
GlyphClass: 2
Flags: MW
HStem: 0 21G<69 69 69 150> 524 20G<69 150 150 150> 663 117<5 77 5 77 148 219 5 148>
AnchorPoint: "Anchor-1" 110 0 basechar 0
LayerCount: 2
Fore
SplineSet
5 663 m 1
 5 780 l 1
 77 780 l 1
 77 663 l 1
 5 663 l 1
148 663 m 1
 148 780 l 1
 219 780 l 1
 219 663 l 1
 148 663 l 1
69 0 m 1
 69 544 l 1
 150 544 l 1
 150 0 l 1
 69 0 l 1
EndSplineSet
Validated: 1
EndChar

StartChar: igrave
Encoding: 236 236 178
Width: 219
GlyphClass: 2
Flags: MW
HStem: 0 21G<69 69 69 150> 524 20G<69 150 150 150>
AnchorPoint: "Anchor-1" 110 0 basechar 0
LayerCount: 2
Fore
SplineSet
81 608 m 1
 -9 780 l 1
 77 780 l 1
 143 608 l 1
 81 608 l 1
69 0 m 1
 69 544 l 1
 150 544 l 1
 150 0 l 1
 69 0 l 1
EndSplineSet
Validated: 1
EndChar

StartChar: ij
Encoding: 307 307 179
Width: 438
Flags: MW
HStem: -183 80<165 197 165 197> 0 21G<69 69 69 150> 524 20G<69 150 150 150 288 369 369 369> 601 119<69 150 69 150 288 369>
LayerCount: 2
Fore
SplineSet
69 601 m 1
 69 720 l 1
 150 720 l 1
 150 601 l 1
 69 601 l 1
288 601 m 1
 288 720 l 1
 369 720 l 1
 369 601 l 1
 288 601 l 1
69 0 m 1
 69 544 l 1
 150 544 l 1
 150 0 l 1
 69 0 l 1
165 -183 m 1
 165 -103 l 1
 197 -103 l 2
 252 -103 288 -62 288 -2 c 2
 288 544 l 1
 369 544 l 1
 369 2 l 2
 369 -109 301 -183 197 -183 c 2
 165 -183 l 1
EndSplineSet
Validated: 1
EndChar

StartChar: imacron
Encoding: 299 299 180
Width: 219
GlyphClass: 2
Flags: MW
HStem: 0 21G<69 69 69 150> 524 20G<69 150 150 150> 625 63<-1 220 -1 220>
AnchorPoint: "Anchor-1" 110 0 basechar 0
LayerCount: 2
Fore
SplineSet
-1 688 m 1
 220 688 l 1
 220 625 l 1
 -1 625 l 1
 -1 688 l 1
69 0 m 1
 69 544 l 1
 150 544 l 1
 150 0 l 1
 69 0 l 1
EndSplineSet
Validated: 1
EndChar

StartChar: iogonek
Encoding: 303 303 181
Width: 219
GlyphClass: 2
Flags: MW
HStem: -213 62<88 146 131 146 131 146> 0 23 3 21G<69 69> 524 20G<69 150 150 150> 633 117<74 146 74 146>
AnchorPoint: "Anchor-1" 110 0 basechar 0
LayerCount: 2
Fore
SplineSet
146 750 m 1xb8
 146 633 l 1
 74 633 l 1
 74 750 l 1
 146 750 l 1xb8
126 0 m 1xd8
 88 -31 67 -62 67 -99 c 0
 67 -130 90 -151 131 -151 c 2
 146 -151 l 1
 146 -213 l 1
 127 -213 l 2
 49 -213 4 -172 4 -112 c 0
 4 -66 26 -30 69 3 c 1xb8
 69 544 l 1
 150 544 l 1
 150 0 l 1
 126 0 l 1xd8
EndSplineSet
Validated: 1
EndChar

StartChar: itilde
Encoding: 297 297 182
Width: 219
GlyphClass: 2
Flags: MW
HStem: 0 21G<69 69 69 150> 524 20G<69 150 150 150> 629 54<157.5 161.5 147 191.5> 679 54<55 58.5 24.5 69>
AnchorPoint: "Anchor-1" 110 0 basechar 0
LayerCount: 2
Fore
SplineSet
173 629 m 0xe0
 142 629 124 641 107 653 c 0
 89 666 76 679 62 679 c 0
 48 679 43 665 43 653 c 2
 43 634 l 1
 -22 634 l 1
 -22 657 l 2
 -22 708 6 733 43 733 c 0xd0
 74 733 96 719 111 708 c 0
 127 695 139 683 155 683 c 0
 168 683 174 697 174 710 c 2
 174 731 l 1
 238 731 l 1
 238 704 l 2
 238 654 210 629 173 629 c 0xe0
69 0 m 1
 69 544 l 1
 150 544 l 1
 150 0 l 1
 69 0 l 1
EndSplineSet
Validated: 1
EndChar

StartChar: j
Encoding: 106 106 183
Width: 219
Flags: MW
HStem: -183 80<-54 -22 -54 -22> 524 20G<69 150 150 150> 601 119<69 150 69 150>
LayerCount: 2
Fore
SplineSet
69 601 m 1
 69 720 l 1
 150 720 l 1
 150 601 l 1
 69 601 l 1
-54 -183 m 1
 -54 -103 l 1
 -22 -103 l 2
 33 -103 69 -62 69 -2 c 2
 69 544 l 1
 150 544 l 1
 150 2 l 2
 150 -109 82 -183 -22 -183 c 2
 -54 -183 l 1
EndSplineSet
Validated: 1
EndChar

StartChar: uni0237
Encoding: 567 567 184
Width: 219
GlyphClass: 2
Flags: MW
HStem: -183 80<-54 -22 -54 -22> 524 20G<69 150 150 150>
AnchorPoint: "Anchor-1" 110 0 basechar 0
LayerCount: 2
Fore
SplineSet
-54 -183 m 1
 -54 -103 l 1
 -22 -103 l 2
 33 -103 69 -62 69 -2 c 2
 69 544 l 1
 150 544 l 1
 150 2 l 2
 150 -109 82 -183 -22 -183 c 2
 -54 -183 l 1
EndSplineSet
Validated: 1
EndChar

StartChar: jcircumflex
Encoding: 309 309 185
Width: 219
GlyphClass: 2
Flags: MW
HStem: -183 80<-54 -22 -54 -22> 524 20G<69 150 150 150> 634 146<-36 143 -36 143 76 176 76 255> 726 54<110 110>
AnchorPoint: "Anchor-1" 110 0 basechar 0
LayerCount: 2
Fore
SplineSet
-36 634 m 1xe0
 76 780 l 1
 143 780 l 1xd0
 255 634 l 1
 176 634 l 1xe0
 110 726 l 1xd0
 43 634 l 1
 -36 634 l 1xe0
-54 -183 m 1
 -54 -103 l 1
 -22 -103 l 2
 33 -103 69 -62 69 -2 c 2
 69 544 l 1
 150 544 l 1
 150 2 l 2
 150 -109 82 -183 -22 -183 c 2
 -54 -183 l 1
EndSplineSet
Validated: 1
EndChar

StartChar: k
Encoding: 107 107 186
Width: 429
GlyphClass: 2
Flags: MW
HStem: 0 21G<69 150 69 69 341 426 341 341> 524 20G<310 396 396 396> 730 20G<69 150 150 150>
AnchorPoint: "Anchor-1" 208 0 basechar 0
LayerCount: 2
Fore
SplineSet
252 358 m 1
 426 0 l 1
 341 0 l 1
 199 288 l 1
 150 224 l 1
 150 0 l 1
 69 0 l 1
 69 750 l 1
 150 750 l 1
 150 344 l 1
 310 544 l 1
 396 544 l 1
 252 358 l 1
EndSplineSet
Validated: 1
EndChar

StartChar: kcommaaccent
Encoding: 311 311 187
Width: 429
GlyphClass: 2
Flags: MW
HStem: -220 159<146 262 170 201> 0 21G<69 150 69 69 341 426 341 341> 524 20G<310 396 396 396> 730 20G<69 150 150 150>
AnchorPoint: "Anchor-1" 208 0 basechar 0
LayerCount: 2
Fore
SplineSet
252 358 m 1
 426 0 l 1
 341 0 l 1
 199 288 l 1
 150 224 l 1
 150 0 l 1
 69 0 l 1
 69 750 l 1
 150 750 l 1
 150 344 l 1
 310 544 l 1
 396 544 l 1
 252 358 l 1
146 -220 m 1
 170 -61 l 1
 262 -61 l 1
 201 -220 l 1
 146 -220 l 1
EndSplineSet
Validated: 1
EndChar

StartChar: kgreenlandic
Encoding: 312 312 188
Width: 428
Flags: MW
HStem: 0 21G<69 150 69 69 341 426 341 341> 524 20G<69 150 150 150 310 396 396 396>
LayerCount: 2
Fore
SplineSet
426 0 m 1
 341 0 l 1
 150 336 l 1
 150 0 l 1
 69 0 l 1
 69 544 l 1
 150 544 l 1
 150 348 l 1
 310 544 l 1
 396 544 l 1
 229 339 l 1
 426 0 l 1
EndSplineSet
Validated: 1
EndChar

StartChar: l
Encoding: 108 108 189
Width: 219
GlyphClass: 2
Flags: MW
HStem: 0 21G<69 69 69 150> 730 20G<69 150 150 150>
AnchorPoint: "Anchor-1" 110 0 basechar 0
LayerCount: 2
Fore
SplineSet
69 0 m 1
 69 750 l 1
 150 750 l 1
 150 0 l 1
 69 0 l 1
EndSplineSet
Validated: 1
EndChar

StartChar: lacute
Encoding: 314 314 190
Width: 219
GlyphClass: 2
Flags: MW
HStem: 0 21G<69 69 69 150> 730 20G<69 150 150 150>
AnchorPoint: "Anchor-1" 110 0 basechar 0
LayerCount: 2
Fore
SplineSet
78 814 m 1
 144 986 l 1
 229 986 l 1
 140 814 l 1
 78 814 l 1
69 0 m 1
 69 750 l 1
 150 750 l 1
 150 0 l 1
 69 0 l 1
EndSplineSet
Validated: 1
EndChar

StartChar: lcaron
Encoding: 318 318 191
Width: 440
GlyphClass: 2
Flags: MW
HStem: 0 21G<69 69 69 150> 730 20G<69 150 150 150 284 364 364 364>
AnchorPoint: "Anchor-1" 110 0 basechar 0
LayerCount: 2
Fore
SplineSet
69 0 m 1
 69 750 l 1
 150 750 l 1
 150 0 l 1
 69 0 l 1
244 526 m 1
 284 750 l 1
 364 750 l 1
 324 526 l 1
 244 526 l 1
EndSplineSet
Validated: 1
EndChar

StartChar: lcommaaccent
Encoding: 316 316 192
Width: 219
GlyphClass: 2
Flags: MW
HStem: -220 159<48 164 72 103> 0 21G<69 69 69 150> 730 20G<69 150 150 150>
AnchorPoint: "Anchor-1" 110 0 basechar 0
LayerCount: 2
Fore
SplineSet
69 0 m 1
 69 750 l 1
 150 750 l 1
 150 0 l 1
 69 0 l 1
48 -220 m 1
 72 -61 l 1
 164 -61 l 1
 103 -220 l 1
 48 -220 l 1
EndSplineSet
Validated: 1
EndChar

StartChar: ldot
Encoding: 320 320 193
Width: 368
GlyphClass: 2
Flags: MW
HStem: 0 21G<69 69 69 150> 315 120<222 299 222 299> 730 20G<69 150 150 150>
AnchorPoint: "Anchor-1" 110 0 basechar 0
LayerCount: 2
Fore
SplineSet
69 0 m 1
 69 750 l 1
 150 750 l 1
 150 0 l 1
 69 0 l 1
222 315 m 1
 222 435 l 1
 299 435 l 1
 299 315 l 1
 222 315 l 1
EndSplineSet
Validated: 1
Ligature2: "Ligature Substitution lookup 27 subtable" l periodcentered
EndChar

StartChar: lslash
Encoding: 322 322 194
Width: 219
GlyphClass: 2
Flags: MW
HStem: 0 21G<69 150 69 69> 301 148 730 20G<69 150 150 150>
AnchorPoint: "Anchor-1" 110 0 basechar 0
LayerCount: 2
Fore
SplineSet
237 449 m 1
 237 368 l 1
 150 345 l 1
 150 0 l 1
 69 0 l 1
 69 324 l 1
 -17 301 l 1
 -17 381 l 1
 69 404 l 1
 69 750 l 1
 150 750 l 1
 150 426 l 1
 237 449 l 1
EndSplineSet
Validated: 1
EndChar

StartChar: m
Encoding: 109 109 195
Width: 727
Flags: MW
HStem: 0 21G<69 150 69 69 326 406 326 326 583 663 583 583> 476 68<69 265> 476 80<235 265 485 521.5>
LayerCount: 2
Fore
SplineSet
515 556 m 0xa0
 599 556 663 500 663 393 c 2
 663 0 l 1
 583 0 l 1
 583 382 l 2
 583 438 548 476 495 476 c 0
 441 476 406 438 406 382 c 2
 406 0 l 1
 326 0 l 1
 326 382 l 2
 326 438 292 476 238 476 c 0xa0
 184 476 150 438 150 382 c 2
 150 0 l 1
 69 0 l 1
 69 544 l 1
 150 544 l 1xc0
 150 508 l 1
 175 539 212 556 258 556 c 0
 315 556 364 531 388 479 c 1
 412 527 455 556 515 556 c 0xa0
EndSplineSet
Validated: 1
EndChar

StartChar: n
Encoding: 110 110 196
Width: 469
GlyphClass: 2
Flags: MW
HStem: 0 21G<69 150 69 69 326 406 326 326> 476 68<69 265> 476 80<235 265>
AnchorPoint: "Anchor-1" 238 0 basechar 0
LayerCount: 2
Fore
SplineSet
258 556 m 0xa0
 349 556 406 488 406 382 c 2
 406 0 l 1
 326 0 l 1
 326 382 l 2
 326 438 292 476 238 476 c 0
 184 476 150 438 150 382 c 2
 150 0 l 1
 69 0 l 1
 69 544 l 1
 150 544 l 1xc0
 150 507 l 1
 175 539 212 556 258 556 c 0xa0
EndSplineSet
Validated: 1
EndChar

StartChar: nacute
Encoding: 324 324 197
Width: 469
GlyphClass: 2
Flags: MW
HStem: 0 21G<69 150 69 69 326 406 326 326> 476 68<69 265> 476 80<235 265>
AnchorPoint: "Anchor-1" 238 0 basechar 0
LayerCount: 2
Fore
SplineSet
357 780 m 1xc0
 268 608 l 1
 206 608 l 1
 272 780 l 1
 357 780 l 1xc0
258 556 m 0xa0
 349 556 406 488 406 382 c 2
 406 0 l 1
 326 0 l 1
 326 382 l 2
 326 438 292 476 238 476 c 0
 184 476 150 438 150 382 c 2
 150 0 l 1
 69 0 l 1
 69 544 l 1
 150 544 l 1xc0
 150 507 l 1
 175 539 212 556 258 556 c 0xa0
EndSplineSet
Validated: 1
EndChar

StartChar: napostrophe
Encoding: 329 329 198
Width: 651
GlyphClass: 2
Flags: MW
HStem: 0 21G<251 332 251 251 508 588 508 508> 476 68<251 447> 476 80<417 447> 612 138<76 160 76 110 76 160>
AnchorPoint: "Anchor-1" 420 0 basechar 0
LayerCount: 2
Fore
SplineSet
76 612 m 1xd0
 76 750 l 1
 160 750 l 1
 160 612 l 1
 134 526 l 1
 84 526 l 1
 110 612 l 1
 76 612 l 1xd0
440 556 m 0xb0
 531 556 588 488 588 382 c 2
 588 0 l 1
 508 0 l 1
 508 382 l 2
 508 438 474 476 420 476 c 0
 366 476 332 438 332 382 c 2
 332 0 l 1
 251 0 l 1
 251 544 l 1
 332 544 l 1xd0
 332 507 l 1
 357 539 394 556 440 556 c 0xb0
EndSplineSet
Validated: 1
EndChar

StartChar: ncaron
Encoding: 328 328 199
Width: 469
GlyphClass: 2
Flags: MW
HStem: 0 21G<69 150 69 69 326 406 326 326> 476 68<69 265> 476 80<235 265> 634 54<238 238 238 271 204 238> 634 146<92 271 92 204>
AnchorPoint: "Anchor-1" 238 0 basechar 0
LayerCount: 2
Fore
SplineSet
271 634 m 1xc8
 204 634 l 1
 92 780 l 1
 171 780 l 1xc8
 238 688 l 1xd0
 304 780 l 1
 383 780 l 1
 271 634 l 1xc8
258 556 m 0xa8
 349 556 406 488 406 382 c 2
 406 0 l 1
 326 0 l 1
 326 382 l 2
 326 438 292 476 238 476 c 0
 184 476 150 438 150 382 c 2
 150 0 l 1
 69 0 l 1
 69 544 l 1
 150 544 l 1xc8
 150 507 l 1
 175 539 212 556 258 556 c 0xa8
EndSplineSet
Validated: 1
EndChar

StartChar: ncommaaccent
Encoding: 326 326 200
Width: 469
GlyphClass: 2
Flags: MW
HStem: -220 159<176 292 200 231> 0 21G<69 150 69 69 326 406 326 326> 476 68<69 265> 476 80<235 265>
AnchorPoint: "Anchor-1" 238 0 basechar 0
LayerCount: 2
Fore
SplineSet
258 556 m 0xd0
 349 556 406 488 406 382 c 2
 406 0 l 1
 326 0 l 1
 326 382 l 2
 326 438 292 476 238 476 c 0
 184 476 150 438 150 382 c 2
 150 0 l 1
 69 0 l 1
 69 544 l 1
 150 544 l 1xe0
 150 507 l 1
 175 539 212 556 258 556 c 0xd0
176 -220 m 1
 200 -61 l 1
 292 -61 l 1
 231 -220 l 1
 176 -220 l 1
EndSplineSet
Validated: 1
EndChar

StartChar: ntilde
Encoding: 241 241 201
Width: 469
GlyphClass: 2
Flags: MW
HStem: 0 21G<69 150 69 69 326 406 326 326> 476 68<69 265> 476 80<235 265> 629 54<285.5 289.5 275 319.5> 679 54<183 186.5 152.5 197>
AnchorPoint: "Anchor-1" 238 0 basechar 0
LayerCount: 2
Fore
SplineSet
171 653 m 2xd0
 171 634 l 1
 106 634 l 1
 106 657 l 2
 106 708 134 733 171 733 c 0xc8
 202 733 224 719 239 708 c 0
 255 695 267 683 283 683 c 0
 296 683 302 697 302 710 c 2
 302 731 l 1
 366 731 l 1
 366 704 l 2
 366 654 338 629 301 629 c 0xd0
 270 629 252 641 235 653 c 0
 217 666 204 679 190 679 c 0xc8
 176 679 171 665 171 653 c 2xd0
258 556 m 0xb0
 349 556 406 488 406 382 c 2
 406 0 l 1
 326 0 l 1
 326 382 l 2
 326 438 292 476 238 476 c 0
 184 476 150 438 150 382 c 2
 150 0 l 1
 69 0 l 1
 69 544 l 1
 150 544 l 1xd0
 150 507 l 1
 175 539 212 556 258 556 c 0xb0
EndSplineSet
Validated: 1
EndChar

StartChar: o
Encoding: 111 111 202
Width: 451
GlyphClass: 2
Flags: MW
HStem: -12 80<197.5 254 197.5 277> 476 80<197.5 254>
AnchorPoint: "Anchor-1" 226 0 basechar 0
LayerCount: 2
Fore
SplineSet
226 -12 m 0
 123 -12 53 59 53 166 c 2
 53 379 l 2
 53 485 123 556 226 556 c 0
 328 556 397 485 397 379 c 2
 397 166 l 2
 397 59 328 -12 226 -12 c 0
226 68 m 0
 282 68 316 106 316 162 c 2
 316 382 l 2
 316 438 282 476 226 476 c 0
 169 476 134 438 134 382 c 2
 134 162 l 2
 134 106 169 68 226 68 c 0
EndSplineSet
Validated: 1
Substitution2: "Single Substitution lookup 28 subtable" ordmasculine
Substitution2: "'aalt' Access All Alternates in Latin lookup 0 subtable" ordmasculine
EndChar

StartChar: oacute
Encoding: 243 243 203
Width: 451
GlyphClass: 2
Flags: MW
HStem: -12 80<197.5 254 197.5 277> 476 80<197.5 254>
AnchorPoint: "Anchor-1" 226 0 basechar 0
LayerCount: 2
Fore
SplineSet
194 608 m 1
 260 780 l 1
 345 780 l 1
 256 608 l 1
 194 608 l 1
226 -12 m 0
 123 -12 53 59 53 166 c 2
 53 379 l 2
 53 485 123 556 226 556 c 0
 328 556 397 485 397 379 c 2
 397 166 l 2
 397 59 328 -12 226 -12 c 0
226 68 m 0
 282 68 316 106 316 162 c 2
 316 382 l 2
 316 438 282 476 226 476 c 0
 169 476 134 438 134 382 c 2
 134 162 l 2
 134 106 169 68 226 68 c 0
EndSplineSet
Validated: 1
EndChar

StartChar: obreve
Encoding: 335 335 204
Width: 451
GlyphClass: 2
Flags: MW
HStem: -12 80<197.5 254 197.5 277> 476 80<197.5 254> 662 52<210.5 241.5 210.5 258.5> 760 20G<113 171 171 171 280 337 337 337>
AnchorPoint: "Anchor-1" 226 0 basechar 0
LayerCount: 2
Fore
SplineSet
226 662 m 0
 161 662 113 705 113 770 c 2
 113 780 l 1
 171 780 l 1
 171 770 l 2
 171 736 195 714 226 714 c 0
 257 714 280 736 280 770 c 2
 280 780 l 1
 337 780 l 1
 337 770 l 2
 337 705 291 662 226 662 c 0
226 -12 m 0
 123 -12 53 59 53 166 c 2
 53 379 l 2
 53 485 123 556 226 556 c 0
 328 556 397 485 397 379 c 2
 397 166 l 2
 397 59 328 -12 226 -12 c 0
226 68 m 0
 282 68 316 106 316 162 c 2
 316 382 l 2
 316 438 282 476 226 476 c 0
 169 476 134 438 134 382 c 2
 134 162 l 2
 134 106 169 68 226 68 c 0
EndSplineSet
Validated: 1
EndChar

StartChar: ocircumflex
Encoding: 244 244 205
Width: 451
GlyphClass: 2
Flags: MW
HStem: -12 80<197.5 254 197.5 277> 476 80<197.5 254> 634 146<80 259 80 259 192 292 192 371> 726 54<226 226>
AnchorPoint: "Anchor-1" 226 0 basechar 0
LayerCount: 2
Fore
SplineSet
80 634 m 1xe0
 192 780 l 1
 259 780 l 1
 371 634 l 1
 292 634 l 1xe0
 226 726 l 1xd0
 159 634 l 1
 80 634 l 1xe0
226 -12 m 0
 123 -12 53 59 53 166 c 2
 53 379 l 2
 53 485 123 556 226 556 c 0
 328 556 397 485 397 379 c 2
 397 166 l 2
 397 59 328 -12 226 -12 c 0
226 68 m 0
 282 68 316 106 316 162 c 2
 316 382 l 2
 316 438 282 476 226 476 c 0
 169 476 134 438 134 382 c 2
 134 162 l 2
 134 106 169 68 226 68 c 0
EndSplineSet
Validated: 1
EndChar

StartChar: odieresis
Encoding: 246 246 206
Width: 451
GlyphClass: 2
Flags: MW
HStem: -12 80<197.5 254 197.5 277> 476 80<197.5 254> 663 117<121 193 121 193 264 335 121 264>
AnchorPoint: "Anchor-1" 226 0 basechar 0
LayerCount: 2
Fore
SplineSet
121 663 m 1
 121 780 l 1
 193 780 l 1
 193 663 l 1
 121 663 l 1
264 663 m 1
 264 780 l 1
 335 780 l 1
 335 663 l 1
 264 663 l 1
226 -12 m 0
 123 -12 53 59 53 166 c 2
 53 379 l 2
 53 485 123 556 226 556 c 0
 328 556 397 485 397 379 c 2
 397 166 l 2
 397 59 328 -12 226 -12 c 0
226 68 m 0
 282 68 316 106 316 162 c 2
 316 382 l 2
 316 438 282 476 226 476 c 0
 169 476 134 438 134 382 c 2
 134 162 l 2
 134 106 169 68 226 68 c 0
EndSplineSet
Validated: 1
EndChar

StartChar: ograve
Encoding: 242 242 207
Width: 451
GlyphClass: 2
Flags: MW
HStem: -12 80<197.5 254 197.5 277> 476 80<197.5 254>
AnchorPoint: "Anchor-1" 226 0 basechar 0
LayerCount: 2
Fore
SplineSet
197 608 m 1
 107 780 l 1
 193 780 l 1
 259 608 l 1
 197 608 l 1
226 -12 m 0
 123 -12 53 59 53 166 c 2
 53 379 l 2
 53 485 123 556 226 556 c 0
 328 556 397 485 397 379 c 2
 397 166 l 2
 397 59 328 -12 226 -12 c 0
226 68 m 0
 282 68 316 106 316 162 c 2
 316 382 l 2
 316 438 282 476 226 476 c 0
 169 476 134 438 134 382 c 2
 134 162 l 2
 134 106 169 68 226 68 c 0
EndSplineSet
Validated: 1
EndChar

StartChar: ohungarumlaut
Encoding: 337 337 208
Width: 451
GlyphClass: 2
Flags: MW
HStem: -12 80<197.5 254 197.5 277> 476 80<197.5 254>
AnchorPoint: "Anchor-1" 226 0 basechar 0
LayerCount: 2
Fore
SplineSet
116 608 m 1
 182 780 l 1
 267 780 l 1
 178 608 l 1
 116 608 l 1
266 608 m 1
 332 780 l 1
 417 780 l 1
 328 608 l 1
 266 608 l 1
226 -12 m 0
 123 -12 53 59 53 166 c 2
 53 379 l 2
 53 485 123 556 226 556 c 0
 328 556 397 485 397 379 c 2
 397 166 l 2
 397 59 328 -12 226 -12 c 0
226 68 m 0
 282 68 316 106 316 162 c 2
 316 382 l 2
 316 438 282 476 226 476 c 0
 169 476 134 438 134 382 c 2
 134 162 l 2
 134 106 169 68 226 68 c 0
EndSplineSet
Validated: 1
EndChar

StartChar: omacron
Encoding: 333 333 209
Width: 451
GlyphClass: 2
Flags: MW
HStem: -12 80<197.5 254 197.5 277> 476 80<197.5 254> 625 63<115 336 115 336>
AnchorPoint: "Anchor-1" 226 0 basechar 0
LayerCount: 2
Fore
SplineSet
115 688 m 1
 336 688 l 1
 336 625 l 1
 115 625 l 1
 115 688 l 1
226 -12 m 0
 123 -12 53 59 53 166 c 2
 53 379 l 2
 53 485 123 556 226 556 c 0
 328 556 397 485 397 379 c 2
 397 166 l 2
 397 59 328 -12 226 -12 c 0
226 68 m 0
 282 68 316 106 316 162 c 2
 316 382 l 2
 316 438 282 476 226 476 c 0
 169 476 134 438 134 382 c 2
 134 162 l 2
 134 106 169 68 226 68 c 0
EndSplineSet
Validated: 1
EndChar

StartChar: oslash
Encoding: 248 248 210
Width: 451
GlyphClass: 2
Flags: MW
HStem: -20 21G<38 96 38 38> -12 80<211.5 254 211.5 277> 476 80<197.5 240.5>
AnchorPoint: "Anchor-1" 226 0 basechar 0
LayerCount: 2
Fore
SplineSet
414 564 m 1xa0
 369 482 l 1
 387 454 397 419 397 379 c 2
 397 166 l 2
 397 59 328 -12 226 -12 c 0x60
 184 -12 147 0 119 21 c 1
 96 -20 l 1
 38 -20 l 1
 82 61 l 1
 63 89 53 125 53 166 c 2
 53 379 l 2
 53 485 123 556 226 556 c 0
 268 556 305 544 333 522 c 1
 356 564 l 1
 414 564 l 1xa0
134 162 m 1
 134 157 l 1
 293 449 l 1
 278 466 255 476 226 476 c 0
 169 476 134 438 134 382 c 2
 134 162 l 1
316 382 m 1
 316 384 l 1
 158 94 l 1
 174 78 197 68 226 68 c 0
 282 68 316 106 316 162 c 2
 316 382 l 1
EndSplineSet
Validated: 1
EndChar

StartChar: otilde
Encoding: 245 245 211
Width: 451
GlyphClass: 2
Flags: MW
HStem: -12 80<197.5 254 197.5 277> 476 80<197.5 254> 629 54<273.5 277.5 263 307.5> 679 54<171 174.5 140.5 185>
AnchorPoint: "Anchor-1" 226 0 basechar 0
LayerCount: 2
Fore
SplineSet
289 629 m 0xe0
 258 629 240 641 223 653 c 0
 205 666 192 679 178 679 c 0
 164 679 159 665 159 653 c 2
 159 634 l 1
 94 634 l 1
 94 657 l 2
 94 708 122 733 159 733 c 0xd0
 190 733 212 719 227 708 c 0
 243 695 255 683 271 683 c 0
 284 683 290 697 290 710 c 2
 290 731 l 1
 354 731 l 1
 354 704 l 2
 354 654 326 629 289 629 c 0xe0
226 -12 m 0
 123 -12 53 59 53 166 c 2
 53 379 l 2
 53 485 123 556 226 556 c 0
 328 556 397 485 397 379 c 2
 397 166 l 2
 397 59 328 -12 226 -12 c 0
226 68 m 0
 282 68 316 106 316 162 c 2
 316 382 l 2
 316 438 282 476 226 476 c 0
 169 476 134 438 134 382 c 2
 134 162 l 2
 134 106 169 68 226 68 c 0
EndSplineSet
Validated: 1
EndChar

StartChar: oe
Encoding: 339 339 212
Width: 710
Flags: MW
HStem: -12 80<197.5 253.5 461.5 517> 258 76<397 580 397 660 397 580> 476 80<197.5 253.5 174.5 254 461.5 517>
LayerCount: 2
Fore
SplineSet
660 258 m 1
 397 258 l 1
 397 162 l 2
 397 106 433 68 489 68 c 0
 545 68 580 106 580 162 c 2
 580 176 l 1
 660 176 l 1
 660 166 l 2
 660 59 591 -12 489 -12 c 0
 434 -12 387 9 357 46 c 1
 327 9 281 -12 226 -12 c 0
 123 -12 53 59 53 166 c 2
 53 379 l 2
 53 485 123 556 226 556 c 0
 281 556 327 535 357 498 c 1
 387 535 434 556 489 556 c 0
 591 556 660 485 660 379 c 2
 660 258 l 1
316 162 m 2
 316 382 l 2
 316 438 282 476 226 476 c 0
 169 476 134 438 134 382 c 2
 134 162 l 2
 134 106 169 68 226 68 c 0
 282 68 316 106 316 162 c 2
397 382 m 2
 397 334 l 1
 580 334 l 1
 580 382 l 2
 580 438 545 476 489 476 c 0
 433 476 397 438 397 382 c 2
EndSplineSet
Validated: 1
EndChar

StartChar: p
Encoding: 112 112 213
Width: 467
GlyphClass: 2
Flags: MW
HStem: -12 80<233.5 268.5 211 299.5> 476 68<69 268.5> 476 80<233.5 268.5>
AnchorPoint: "Anchor-1" 240 0 basechar 0
LayerCount: 2
Fore
SplineSet
256 556 m 0xa0
 343 556 412 499 412 382 c 2
 412 162 l 2
 412 45 343 -12 256 -12 c 0
 211 -12 174 5 150 34 c 1
 150 -180 l 1
 69 -180 l 1
 69 544 l 1
 150 544 l 1xc0
 150 510 l 1
 174 539 211 556 256 556 c 0xa0
331 162 m 2
 331 382 l 2
 331 438 297 476 240 476 c 0xc0
 182 476 150 438 150 382 c 2
 150 161 l 2
 150 105 182 68 240 68 c 0
 297 68 331 106 331 162 c 2
EndSplineSet
Validated: 1
EndChar

StartChar: thorn
Encoding: 254 254 214
Width: 467
GlyphClass: 2
Flags: MW
HStem: -12 80<233.5 268.5 211 299.5> 476 80<233.5 268.5> 730 20G<69 150 150 150>
AnchorPoint: "Anchor-1" 240 0 basechar 0
LayerCount: 2
Fore
SplineSet
256 556 m 0
 343 556 412 499 412 382 c 2
 412 162 l 2
 412 45 343 -12 256 -12 c 0
 211 -12 174 5 150 34 c 1
 150 -180 l 1
 69 -180 l 1
 69 750 l 1
 150 750 l 1
 150 510 l 1
 174 539 211 556 256 556 c 0
331 162 m 2
 331 382 l 2
 331 438 297 476 240 476 c 0
 182 476 150 438 150 382 c 2
 150 161 l 2
 150 105 182 68 240 68 c 0
 297 68 331 106 331 162 c 2
EndSplineSet
Validated: 1
EndChar

StartChar: q
Encoding: 113 113 215
Width: 467
Flags: MW
HStem: -12 80<198.5 233.5> 476 68<198.5 398> 476 80<198.5 233.5 167.5 256>
LayerCount: 2
Fore
SplineSet
317 544 m 1xc0
 398 544 l 1xc0
 398 -176 l 1
 317 -176 l 1
 317 34 l 1
 293 5 256 -12 211 -12 c 0
 124 -12 55 45 55 162 c 2
 55 382 l 2
 55 499 124 556 211 556 c 0xa0
 256 556 293 539 317 510 c 1
 317 544 l 1xc0
227 68 m 0
 285 68 317 105 317 161 c 2
 317 382 l 2
 317 438 285 476 227 476 c 0xa0
 170 476 136 438 136 382 c 2
 136 162 l 2
 136 106 170 68 227 68 c 0
EndSplineSet
Validated: 1
EndChar

StartChar: r
Encoding: 114 114 216
Width: 285
GlyphClass: 2
Flags: MW
HStem: 0 21G<69 150 69 69> 470 80<211 282 258 282 258 282> 524 20G<69 150 150 150>
AnchorPoint: "Anchor-1" 109 0 basechar 0
LayerCount: 2
Fore
SplineSet
258 550 m 2xc0
 282 550 l 1
 282 470 l 1
 238 470 l 2xc0
 184 470 150 435 150 378 c 2
 150 0 l 1
 69 0 l 1
 69 544 l 1
 150 544 l 1xa0
 150 502 l 1
 175 534 212 550 258 550 c 2xc0
EndSplineSet
Validated: 1
EndChar

StartChar: racute
Encoding: 341 341 217
Width: 285
GlyphClass: 2
Flags: MW
HStem: 0 21G<69 150 69 69> 470 80<211 282 258 282 258 282> 524 20G<69 150 150 150>
AnchorPoint: "Anchor-1" 109 0 basechar 0
LayerCount: 2
Fore
SplineSet
296 780 m 1xa0
 207 608 l 1
 145 608 l 1
 211 780 l 1
 296 780 l 1xa0
150 502 m 1
 175 534 212 550 258 550 c 2
 282 550 l 1
 282 470 l 1
 238 470 l 2xc0
 184 470 150 435 150 378 c 2
 150 0 l 1
 69 0 l 1
 69 544 l 1
 150 544 l 1
 150 502 l 1
EndSplineSet
Validated: 1
EndChar

StartChar: rcaron
Encoding: 345 345 218
Width: 285
GlyphClass: 2
Flags: MW
HStem: 0 21G<69 150 69 69> 470 80<211 282 258 282 258 282> 524 20G<69 150 150 150> 634 54<177 177 177 210 143 177> 634 146<31 210 31 143>
AnchorPoint: "Anchor-1" 109 0 basechar 0
LayerCount: 2
Fore
SplineSet
210 634 m 1xa8
 143 634 l 1
 31 780 l 1
 110 780 l 1xa8
 177 688 l 1xb0
 243 780 l 1
 322 780 l 1
 210 634 l 1xa8
150 502 m 1
 175 534 212 550 258 550 c 2
 282 550 l 1
 282 470 l 1
 238 470 l 2xc8
 184 470 150 435 150 378 c 2
 150 0 l 1
 69 0 l 1
 69 544 l 1
 150 544 l 1
 150 502 l 1
EndSplineSet
Validated: 1
EndChar

StartChar: rcommaaccent
Encoding: 343 343 219
Width: 285
GlyphClass: 2
Flags: MW
HStem: -220 159<47 163 71 102> 0 21G<69 150 69 69> 470 80<211 282 258 282 258 282> 524 20G<69 150 150 150>
AnchorPoint: "Anchor-1" 109 0 basechar 0
LayerCount: 2
Fore
SplineSet
258 550 m 2xe0
 282 550 l 1
 282 470 l 1
 238 470 l 2xe0
 184 470 150 435 150 378 c 2
 150 0 l 1
 69 0 l 1
 69 544 l 1
 150 544 l 1xd0
 150 502 l 1
 175 534 212 550 258 550 c 2xe0
47 -220 m 1
 71 -61 l 1
 163 -61 l 1
 102 -220 l 1
 47 -220 l 1
EndSplineSet
Validated: 1
EndChar

StartChar: s
Encoding: 115 115 220
Width: 423
GlyphClass: 2
Flags: MW
HStem: -12 80<187 240.5 187 264.5> 234 76<185.5 239.5> 476 80<185.5 239.5>
AnchorPoint: "Anchor-1" 212 0 basechar 0
LayerCount: 2
Fore
SplineSet
214 -12 m 0
 111 -12 43 54 43 154 c 2
 43 171 l 1
 124 171 l 1
 124 150 l 2
 124 101 160 68 214 68 c 0
 267 68 300 102 300 150 c 0
 300 199 266 234 213 234 c 0
 110 234 43 298 43 394 c 0
 43 491 110 556 213 556 c 0
 314 556 381 490 381 390 c 2
 381 374 l 1
 300 374 l 1
 300 394 l 2
 300 444 266 476 213 476 c 0
 158 476 124 442 124 394 c 0
 124 344 158 310 213 310 c 0
 314 310 381 246 381 150 c 0
 381 53 315 -12 214 -12 c 0
EndSplineSet
Validated: 1
EndChar

StartChar: sacute
Encoding: 347 347 221
Width: 423
GlyphClass: 2
Flags: MW
HStem: -12 80<187 240.5 187 264.5> 234 76<185.5 239.5> 476 80<185.5 239.5>
AnchorPoint: "Anchor-1" 212 0 basechar 0
LayerCount: 2
Fore
SplineSet
180 608 m 1
 246 780 l 1
 331 780 l 1
 242 608 l 1
 180 608 l 1
214 -12 m 0
 111 -12 43 54 43 154 c 2
 43 171 l 1
 124 171 l 1
 124 150 l 2
 124 101 160 68 214 68 c 0
 267 68 300 102 300 150 c 0
 300 199 266 234 213 234 c 0
 110 234 43 298 43 394 c 0
 43 491 110 556 213 556 c 0
 314 556 381 490 381 390 c 2
 381 374 l 1
 300 374 l 1
 300 394 l 2
 300 444 266 476 213 476 c 0
 158 476 124 442 124 394 c 0
 124 344 158 310 213 310 c 0
 314 310 381 246 381 150 c 0
 381 53 315 -12 214 -12 c 0
EndSplineSet
Validated: 1
EndChar

StartChar: scaron
Encoding: 353 353 222
Width: 423
GlyphClass: 2
Flags: MW
HStem: -12 80<187 240.5 187 264.5> 234 76<185.5 239.5> 476 80<185.5 239.5> 634 54<178 212 212 212 212 245> 634 146<66 178 66 245>
AnchorPoint: "Anchor-1" 212 0 basechar 0
LayerCount: 2
Fore
SplineSet
178 634 m 1xe8
 66 780 l 1
 145 780 l 1xe8
 212 688 l 1xf0
 278 780 l 1
 357 780 l 1
 245 634 l 1
 178 634 l 1xe8
214 -12 m 0
 111 -12 43 54 43 154 c 2
 43 171 l 1
 124 171 l 1
 124 150 l 2
 124 101 160 68 214 68 c 0
 267 68 300 102 300 150 c 0
 300 199 266 234 213 234 c 0
 110 234 43 298 43 394 c 0
 43 491 110 556 213 556 c 0
 314 556 381 490 381 390 c 2
 381 374 l 1
 300 374 l 1
 300 394 l 2
 300 444 266 476 213 476 c 0
 158 476 124 442 124 394 c 0
 124 344 158 310 213 310 c 0
 314 310 381 246 381 150 c 0
 381 53 315 -12 214 -12 c 0
EndSplineSet
Validated: 1
EndChar

StartChar: scedilla
Encoding: 351 351 223
Width: 423
GlyphClass: 2
Flags: MW
HStem: -225 61<183 251 183 251> -10 78<185 240.5 187 247> 234 76<185.5 239.5> 476 80<185.5 239.5>
AnchorPoint: "Anchor-1" 212 0 basechar 0
LayerCount: 2
Fore
SplineSet
381 374 m 1
 300 374 l 1
 300 394 l 2
 300 444 266 476 213 476 c 0
 158 476 124 442 124 394 c 0
 124 344 158 310 213 310 c 0
 314 310 381 246 381 150 c 0
 381 64 329 3 247 -10 c 1
 247 -47 l 1
 309 -40 349 -84 349 -132 c 0
 349 -188 310 -225 251 -225 c 2
 183 -225 l 1
 183 -164 l 1
 251 -164 l 2
 272 -164 287 -151 287 -132 c 0
 287 -113 272 -99 251 -99 c 2
 213 -99 l 1
 185 -81 l 1
 185 -10 l 1
 98 1 43 64 43 154 c 2
 43 171 l 1
 124 171 l 1
 124 150 l 2
 124 101 160 68 214 68 c 0
 267 68 300 102 300 150 c 0
 300 199 266 234 213 234 c 0
 110 234 43 298 43 394 c 0
 43 491 110 556 213 556 c 0
 314 556 381 490 381 390 c 2
 381 374 l 1
EndSplineSet
Validated: 33
Substitution2: "'locl' Localized Forms in Latin lookup 5 subtable" scommaaccent
Substitution2: "'locl' Localized Forms in Latin lookup 4 subtable" scommaaccent
Substitution2: "'aalt' Access All Alternates in Latin lookup 0 subtable" scommaaccent
EndChar

StartChar: scircumflex
Encoding: 349 349 224
Width: 423
GlyphClass: 2
Flags: MW
HStem: -12 80<187 240.5 187 264.5> 234 76<185.5 239.5> 476 80<185.5 239.5> 634 146<66 245 66 245 178 278 178 357> 726 54<212 212>
AnchorPoint: "Anchor-1" 212 0 basechar 0
LayerCount: 2
Fore
SplineSet
66 634 m 1xf0
 178 780 l 1
 245 780 l 1xe8
 357 634 l 1
 278 634 l 1xf0
 212 726 l 1xe8
 145 634 l 1
 66 634 l 1xf0
214 -12 m 0
 111 -12 43 54 43 154 c 2
 43 171 l 1
 124 171 l 1
 124 150 l 2
 124 101 160 68 214 68 c 0
 267 68 300 102 300 150 c 0
 300 199 266 234 213 234 c 0
 110 234 43 298 43 394 c 0
 43 491 110 556 213 556 c 0
 314 556 381 490 381 390 c 2
 381 374 l 1
 300 374 l 1
 300 394 l 2
 300 444 266 476 213 476 c 0
 158 476 124 442 124 394 c 0
 124 344 158 310 213 310 c 0
 314 310 381 246 381 150 c 0
 381 53 315 -12 214 -12 c 0
EndSplineSet
Validated: 1
EndChar

StartChar: scommaaccent
Encoding: 537 537 225
Width: 423
GlyphClass: 2
Flags: MW
HStem: -220 159<150 266 174 205> -12 80<187 240.5 187 264.5> 234 76<185.5 239.5> 476 80<185.5 239.5>
AnchorPoint: "Anchor-1" 212 0 basechar 0
LayerCount: 2
Fore
SplineSet
214 -12 m 0
 111 -12 43 54 43 154 c 2
 43 171 l 1
 124 171 l 1
 124 150 l 2
 124 101 160 68 214 68 c 0
 267 68 300 102 300 150 c 0
 300 199 266 234 213 234 c 0
 110 234 43 298 43 394 c 0
 43 491 110 556 213 556 c 0
 314 556 381 490 381 390 c 2
 381 374 l 1
 300 374 l 1
 300 394 l 2
 300 444 266 476 213 476 c 0
 158 476 124 442 124 394 c 0
 124 344 158 310 213 310 c 0
 314 310 381 246 381 150 c 0
 381 53 315 -12 214 -12 c 0
150 -220 m 1
 174 -61 l 1
 266 -61 l 1
 205 -220 l 1
 150 -220 l 1
EndSplineSet
Validated: 1
EndChar

StartChar: germandbls
Encoding: 223 223 226
Width: 494
Flags: MW
HStem: -5 84<227 278 227 278> 341 84<227 268 268 278 227 268> 682 84<222 280.5>
LayerCount: 2
Fore
SplineSet
387 388 m 1
 422 358 444 311 444 253 c 2
 444 167 l 2
 444 63 378 -5 278 -5 c 2
 227 -5 l 1
 227 79 l 1
 278 79 l 2
 328 79 360 114 360 167 c 2
 360 253 l 2
 360 306 328 341 278 341 c 2
 227 341 l 1
 227 425 l 1
 268 425 l 2
 318 425 350 461 350 514 c 2
 350 577 l 2
 350 640 310 682 251 682 c 0
 193 682 153 640 153 577 c 2
 153 -120 l 1
 69 -120 l 1
 69 577 l 2
 69 691 142 766 251 766 c 0
 361 766 434 691 434 577 c 2
 434 514 l 2
 434 462 416 419 387 388 c 1
EndSplineSet
Validated: 1
EndChar

StartChar: longs
Encoding: 383 383 227
Width: 281
Flags: MW
HStem: 0 21G<105 105 105 185> 468 76<4 105 4 105> 680 80<249.5 318 278 318>
LayerCount: 2
Fore
SplineSet
105 0 m 1
 105 468 l 1
 4 468 l 1
 4 544 l 1
 105 544 l 1
 105 579 l 2
 105 685 173 760 278 760 c 2
 318 760 l 1
 318 680 l 1
 278 680 l 2
 221 680 185 639 185 579 c 2
 185 0 l 1
 105 0 l 1
EndSplineSet
Validated: 1
EndChar

StartChar: t
Encoding: 116 116 228
Width: 334
GlyphClass: 2
Flags: MW
HStem: -6 80<221 312 273 312> 469 75<5 101 5 101 181 312>
AnchorPoint: "Anchor-1" 241 0 basechar 0
LayerCount: 2
Fore
SplineSet
273 -6 m 2
 169 -6 101 63 101 174 c 2
 101 469 l 1
 5 469 l 1
 5 544 l 1
 101 544 l 1
 101 680 l 1
 181 680 l 1
 181 544 l 1
 312 544 l 1
 312 469 l 1
 181 469 l 1
 181 174 l 2
 181 114 217 74 273 74 c 2
 312 74 l 1
 312 -6 l 1
 273 -6 l 2
EndSplineSet
Validated: 1
EndChar

StartChar: tbar
Encoding: 359 359 229
Width: 334
GlyphClass: 2
Flags: MW
HStem: -6 80<221 312 273 312> 235 75<16 101 16 101 181 316> 469 75<5 101 5 101 181 312>
AnchorPoint: "Anchor-1" 241 0 basechar 0
LayerCount: 2
Fore
SplineSet
316 235 m 1
 181 235 l 1
 181 174 l 2
 181 114 217 74 273 74 c 2
 312 74 l 1
 312 -6 l 1
 273 -6 l 2
 169 -6 101 63 101 174 c 2
 101 235 l 1
 16 235 l 1
 16 310 l 1
 101 310 l 1
 101 469 l 1
 5 469 l 1
 5 544 l 1
 101 544 l 1
 101 680 l 1
 181 680 l 1
 181 544 l 1
 312 544 l 1
 312 469 l 1
 181 469 l 1
 181 310 l 1
 316 310 l 1
 316 235 l 1
EndSplineSet
Validated: 1
EndChar

StartChar: tcaron
Encoding: 357 357 230
Width: 561
GlyphClass: 2
Flags: MW
HStem: -6 80<221 312 273 312> 469 75<5 101 5 101 181 312>
AnchorPoint: "Anchor-1" 241 0 basechar 0
LayerCount: 2
Fore
SplineSet
365 526 m 1
 405 750 l 1
 485 750 l 1
 445 526 l 1
 365 526 l 1
273 -6 m 2
 169 -6 101 63 101 174 c 2
 101 469 l 1
 5 469 l 1
 5 544 l 1
 101 544 l 1
 101 680 l 1
 181 680 l 1
 181 544 l 1
 312 544 l 1
 312 469 l 1
 181 469 l 1
 181 174 l 2
 181 114 217 74 273 74 c 2
 312 74 l 1
 312 -6 l 1
 273 -6 l 2
EndSplineSet
Validated: 1
EndChar

StartChar: uni0163
Encoding: 355 355 231
Width: 334
GlyphClass: 2
Flags: MW
HStem: -225 61<212 280 212 280> -6 80<276 312 276 276> 469 75<5 101 5 101 181 312>
AnchorPoint: "Anchor-1" 241 0 basechar 0
LayerCount: 2
Fore
SplineSet
276 -47 m 1
 338 -40 378 -84 378 -132 c 0
 378 -188 339 -225 280 -225 c 2
 212 -225 l 1
 212 -164 l 1
 280 -164 l 2
 301 -164 316 -151 316 -132 c 0
 316 -113 301 -99 280 -99 c 2
 242 -99 l 1
 214 -81 l 1
 214 2 l 1
 144 24 101 86 101 174 c 2
 101 469 l 1
 5 469 l 1
 5 544 l 1
 101 544 l 1
 101 680 l 1
 181 680 l 1
 181 544 l 1
 312 544 l 1
 312 469 l 1
 181 469 l 1
 181 174 l 2
 181 114 217 74 273 74 c 2
 312 74 l 1
 312 -6 l 1
 276 -6 l 1
 276 -47 l 1
EndSplineSet
Validated: 33
Substitution2: "'locl' Localized Forms in Latin lookup 5 subtable" uni021B
Substitution2: "'locl' Localized Forms in Latin lookup 4 subtable" uni021B
Substitution2: "'aalt' Access All Alternates in Latin lookup 0 subtable" uni021B
EndChar

StartChar: uni021B
Encoding: 539 539 232
Width: 334
GlyphClass: 2
Flags: MW
HStem: -220 159<179 295 203 234> -6 80<221 312 273 312> 469 75<5 101 5 101 181 312>
AnchorPoint: "Anchor-1" 241 0 basechar 0
LayerCount: 2
Fore
SplineSet
273 -6 m 2
 169 -6 101 63 101 174 c 2
 101 469 l 1
 5 469 l 1
 5 544 l 1
 101 544 l 1
 101 680 l 1
 181 680 l 1
 181 544 l 1
 312 544 l 1
 312 469 l 1
 181 469 l 1
 181 174 l 2
 181 114 217 74 273 74 c 2
 312 74 l 1
 312 -6 l 1
 273 -6 l 2
179 -220 m 1
 203 -61 l 1
 295 -61 l 1
 234 -220 l 1
 179 -220 l 1
EndSplineSet
Validated: 1
EndChar

StartChar: u
Encoding: 117 117 233
Width: 469
GlyphClass: 2
Flags: MW
HStem: -12 80<204.5 235.5> 0 68<204.5 400 204.5 320> 524 20G<63 143 143 143 320 400 400 400>
AnchorPoint: "Anchor-1" 231 0 basechar 0
LayerCount: 2
Fore
SplineSet
320 544 m 1x60
 400 544 l 1
 400 0 l 1
 320 0 l 1x60
 320 36 l 1
 295 5 259 -12 212 -12 c 0xa0
 127 -12 63 44 63 161 c 2
 63 544 l 1
 143 544 l 1
 143 161 l 2
 143 105 178 68 231 68 c 0
 285 68 320 105 320 161 c 2
 320 544 l 1x60
EndSplineSet
Validated: 1
EndChar

StartChar: uacute
Encoding: 250 250 234
Width: 469
GlyphClass: 2
Flags: MW
HStem: -12 80<204.5 235.5> 0 68<204.5 400 204.5 320> 524 20G<63 143 143 143 320 400 400 400>
AnchorPoint: "Anchor-1" 231 0 basechar 0
LayerCount: 2
Fore
SplineSet
350 780 m 1x60
 261 608 l 1
 199 608 l 1
 265 780 l 1
 350 780 l 1x60
320 544 m 1
 400 544 l 1
 400 0 l 1
 320 0 l 1x60
 320 36 l 1
 295 5 259 -12 212 -12 c 0xa0
 127 -12 63 44 63 161 c 2
 63 544 l 1
 143 544 l 1
 143 161 l 2
 143 105 178 68 231 68 c 0
 285 68 320 105 320 161 c 2
 320 544 l 1
EndSplineSet
Validated: 1
EndChar

StartChar: ubreve
Encoding: 365 365 235
Width: 469
GlyphClass: 2
Flags: MW
HStem: -12 80<204.5 235.5> 0 68<204.5 400 204.5 320> 524 20G<63 143 143 143 320 400 400 400> 662 52<215.5 246.5 215.5 263.5> 760 20G<118 176 176 176 285 342 342 342>
AnchorPoint: "Anchor-1" 231 0 basechar 0
LayerCount: 2
Fore
SplineSet
231 662 m 0x78
 166 662 118 705 118 770 c 2
 118 780 l 1
 176 780 l 1
 176 770 l 2
 176 736 200 714 231 714 c 0
 262 714 285 736 285 770 c 2
 285 780 l 1
 342 780 l 1
 342 770 l 2
 342 705 296 662 231 662 c 0x78
320 544 m 1
 400 544 l 1
 400 0 l 1
 320 0 l 1x78
 320 36 l 1
 295 5 259 -12 212 -12 c 0xb8
 127 -12 63 44 63 161 c 2
 63 544 l 1
 143 544 l 1
 143 161 l 2
 143 105 178 68 231 68 c 0
 285 68 320 105 320 161 c 2
 320 544 l 1
EndSplineSet
Validated: 1
EndChar

StartChar: ucircumflex
Encoding: 251 251 236
Width: 469
GlyphClass: 2
Flags: MW
HStem: -12 80<204.5 235.5> 0 68<204.5 400 204.5 320> 524 20G<63 143 143 143 320 400 400 400> 634 146<85 264 85 264 197 297 197 376> 726 54<231 231>
AnchorPoint: "Anchor-1" 231 0 basechar 0
LayerCount: 2
Fore
SplineSet
231 726 m 1x68
 164 634 l 1
 85 634 l 1
 197 780 l 1
 264 780 l 1
 376 634 l 1
 297 634 l 1x70
 231 726 l 1x68
320 544 m 1
 400 544 l 1
 400 0 l 1
 320 0 l 1x70
 320 36 l 1
 295 5 259 -12 212 -12 c 0xb0
 127 -12 63 44 63 161 c 2
 63 544 l 1
 143 544 l 1
 143 161 l 2
 143 105 178 68 231 68 c 0
 285 68 320 105 320 161 c 2
 320 544 l 1
EndSplineSet
Validated: 1
EndChar

StartChar: udieresis
Encoding: 252 252 237
Width: 469
GlyphClass: 2
Flags: MW
HStem: -12 80<204.5 235.5> 0 68<204.5 400 204.5 320> 524 20G<63 143 143 143 320 400 400 400> 663 117<126 198 126 198 126 269 269 340>
AnchorPoint: "Anchor-1" 231 0 basechar 0
LayerCount: 2
Fore
SplineSet
198 780 m 1x70
 198 663 l 1
 126 663 l 1
 126 780 l 1
 198 780 l 1x70
340 780 m 1
 340 663 l 1
 269 663 l 1
 269 780 l 1
 340 780 l 1
320 544 m 1
 400 544 l 1
 400 0 l 1
 320 0 l 1x70
 320 36 l 1
 295 5 259 -12 212 -12 c 0xb0
 127 -12 63 44 63 161 c 2
 63 544 l 1
 143 544 l 1
 143 161 l 2
 143 105 178 68 231 68 c 0
 285 68 320 105 320 161 c 2
 320 544 l 1
EndSplineSet
Validated: 1
EndChar

StartChar: ugrave
Encoding: 249 249 238
Width: 469
GlyphClass: 2
Flags: MW
HStem: -12 80<204.5 235.5> 0 68<204.5 400 204.5 320> 524 20G<63 143 143 143 320 400 400 400>
AnchorPoint: "Anchor-1" 231 0 basechar 0
LayerCount: 2
Fore
SplineSet
264 608 m 1x60
 202 608 l 1
 112 780 l 1
 198 780 l 1
 264 608 l 1x60
320 544 m 1
 400 544 l 1
 400 0 l 1
 320 0 l 1x60
 320 36 l 1
 295 5 259 -12 212 -12 c 0xa0
 127 -12 63 44 63 161 c 2
 63 544 l 1
 143 544 l 1
 143 161 l 2
 143 105 178 68 231 68 c 0
 285 68 320 105 320 161 c 2
 320 544 l 1
EndSplineSet
Validated: 1
EndChar

StartChar: uhungarumlaut
Encoding: 369 369 239
Width: 469
GlyphClass: 2
Flags: MW
HStem: -12 80<204.5 235.5> 0 68<204.5 400 204.5 320> 524 20G<63 143 143 143 320 400 400 400>
AnchorPoint: "Anchor-1" 231 0 basechar 0
LayerCount: 2
Fore
SplineSet
272 780 m 1x60
 183 608 l 1
 121 608 l 1
 187 780 l 1
 272 780 l 1x60
333 608 m 1
 271 608 l 1
 337 780 l 1
 422 780 l 1
 333 608 l 1
320 161 m 2
 320 544 l 1
 400 544 l 1
 400 0 l 1
 320 0 l 1x60
 320 36 l 1
 295 5 259 -12 212 -12 c 0xa0
 127 -12 63 44 63 161 c 2
 63 544 l 1
 143 544 l 1
 143 161 l 2
 143 105 178 68 231 68 c 0
 285 68 320 105 320 161 c 2
EndSplineSet
Validated: 1
EndChar

StartChar: umacron
Encoding: 363 363 240
Width: 469
GlyphClass: 2
Flags: MW
HStem: -12 80<204.5 235.5> 0 68<204.5 400 204.5 320> 524 20G<63 143 143 143 320 400 400 400> 625 63<120 341 120 341>
AnchorPoint: "Anchor-1" 231 0 basechar 0
LayerCount: 2
Fore
SplineSet
341 688 m 1x70
 341 625 l 1
 120 625 l 1
 120 688 l 1
 341 688 l 1x70
320 544 m 1
 400 544 l 1
 400 0 l 1
 320 0 l 1x70
 320 36 l 1
 295 5 259 -12 212 -12 c 0xb0
 127 -12 63 44 63 161 c 2
 63 544 l 1
 143 544 l 1
 143 161 l 2
 143 105 178 68 231 68 c 0
 285 68 320 105 320 161 c 2
 320 544 l 1
EndSplineSet
Validated: 1
EndChar

StartChar: uogonek
Encoding: 371 371 241
Width: 469
GlyphClass: 2
Flags: MW
HStem: -213 62<336 394 379 394 379 394> -12 80<204.5 235.5> 0 36 6 62 524 20G<63 143 143 143 320 400 400 400>
AnchorPoint: "Anchor-1" 231 0 basechar 0
LayerCount: 2
Fore
SplineSet
374 0 m 1xa8
 336 -31 315 -62 315 -99 c 0
 315 -130 338 -151 379 -151 c 2
 394 -151 l 1
 394 -213 l 1
 375 -213 l 2
 297 -213 252 -172 252 -112 c 0
 252 -65 276 -28 320 6 c 1x98
 320 36 l 1xa8
 295 5 259 -12 212 -12 c 0xc8
 127 -12 63 44 63 161 c 2
 63 544 l 1
 143 544 l 1
 143 161 l 2
 143 105 178 68 231 68 c 0x98
 285 68 320 105 320 161 c 2
 320 544 l 1
 400 544 l 1
 400 0 l 1
 374 0 l 1xa8
EndSplineSet
Validated: 1
EndChar

StartChar: uring
Encoding: 367 367 242
Width: 469
GlyphClass: 2
Flags: MW
HStem: -12 80<204.5 235.5> 0 68<204.5 400 204.5 320> 524 20G<63 143 143 143 320 400 400 400> 573 53<221 241.5 221 256.5> 708 53<221 241.5>
AnchorPoint: "Anchor-1" 231 0 basechar 0
LayerCount: 2
Fore
SplineSet
231 573 m 0x78
 181 573 137 611 137 667 c 0
 137 723 181 761 231 761 c 0
 282 761 325 723 325 667 c 0
 325 611 282 573 231 573 c 0x78
231 708 m 0
 211 708 190 692 190 667 c 0
 190 642 211 626 231 626 c 0
 252 626 273 642 273 667 c 0
 273 692 252 708 231 708 c 0
320 544 m 1
 400 544 l 1
 400 0 l 1
 320 0 l 1x78
 320 36 l 1
 295 5 259 -12 212 -12 c 0xb8
 127 -12 63 44 63 161 c 2
 63 544 l 1
 143 544 l 1
 143 161 l 2
 143 105 178 68 231 68 c 0
 285 68 320 105 320 161 c 2
 320 544 l 1
EndSplineSet
Validated: 1
EndChar

StartChar: utilde
Encoding: 361 361 243
Width: 469
GlyphClass: 2
Flags: MW
HStem: -12 80<204.5 235.5> 0 68<204.5 400 204.5 320> 524 20G<63 143 143 143 320 400 400 400> 629 54<278.5 282.5 268 312.5> 679 54<176 179.5 145.5 190>
AnchorPoint: "Anchor-1" 231 0 basechar 0
LayerCount: 2
Fore
SplineSet
164 653 m 2x70
 164 634 l 1
 99 634 l 1
 99 657 l 2
 99 708 127 733 164 733 c 0x68
 195 733 217 719 232 708 c 0
 248 695 260 683 276 683 c 0
 289 683 295 697 295 710 c 2
 295 731 l 1
 359 731 l 1
 359 704 l 2
 359 654 331 629 294 629 c 0x70
 263 629 245 641 228 653 c 0
 210 666 197 679 183 679 c 0x68
 169 679 164 665 164 653 c 2x70
320 544 m 1
 400 544 l 1
 400 0 l 1
 320 0 l 1x70
 320 36 l 1
 295 5 259 -12 212 -12 c 0xb0
 127 -12 63 44 63 161 c 2
 63 544 l 1
 143 544 l 1
 143 161 l 2
 143 105 178 68 231 68 c 0
 285 68 320 105 320 161 c 2
 320 544 l 1
EndSplineSet
Validated: 1
EndChar

StartChar: v
Encoding: 118 118 244
Width: 419
Flags: MW
HStem: 0 21G<162 259 162 162> 524 20G<9 95 95 95 324 410 410 410>
LayerCount: 2
Fore
SplineSet
324 544 m 1
 410 544 l 1
 259 0 l 1
 162 0 l 1
 9 544 l 1
 95 544 l 1
 210 121 l 1
 324 544 l 1
EndSplineSet
Validated: 1
EndChar

StartChar: w
Encoding: 119 119 245
Width: 559
GlyphClass: 2
Flags: MW
HStem: 524 20G<25 108 108 108 242 317 317 317 450 534 534 534>
AnchorPoint: "Anchor-1" 280 0 basechar 0
LayerCount: 2
Fore
SplineSet
450 544 m 1
 534 544 l 1
 446 0 l 1
 357 0 l 1
 280 372 l 1
 202 0 l 1
 113 0 l 1
 25 544 l 1
 108 544 l 1
 162 128 l 1
 242 544 l 1
 317 544 l 1
 397 128 l 1
 450 544 l 1
EndSplineSet
Validated: 1
EndChar

StartChar: wacute
Encoding: 7811 7811 246
Width: 559
GlyphClass: 2
Flags: MW
HStem: 524 20G<25 108 108 108 242 317 317 317 450 534 534 534>
AnchorPoint: "Anchor-1" 280 0 basechar 0
LayerCount: 2
Fore
SplineSet
399 780 m 1
 310 608 l 1
 248 608 l 1
 314 780 l 1
 399 780 l 1
450 544 m 1
 534 544 l 1
 446 0 l 1
 357 0 l 1
 280 372 l 1
 202 0 l 1
 113 0 l 1
 25 544 l 1
 108 544 l 1
 162 128 l 1
 242 544 l 1
 317 544 l 1
 397 128 l 1
 450 544 l 1
EndSplineSet
Validated: 1
EndChar

StartChar: wcircumflex
Encoding: 373 373 247
Width: 559
GlyphClass: 2
Flags: MW
HStem: 524 20G<25 108 108 108 242 317 317 317 450 534 534 534> 634 146<134 313 134 313 246 346 246 425> 726 54<280 280>
AnchorPoint: "Anchor-1" 280 0 basechar 0
LayerCount: 2
Fore
SplineSet
280 726 m 1xa0
 213 634 l 1
 134 634 l 1
 246 780 l 1
 313 780 l 1
 425 634 l 1
 346 634 l 1xc0
 280 726 l 1xa0
450 544 m 1
 534 544 l 1
 446 0 l 1
 357 0 l 1
 280 372 l 1
 202 0 l 1
 113 0 l 1
 25 544 l 1
 108 544 l 1
 162 128 l 1
 242 544 l 1
 317 544 l 1
 397 128 l 1
 450 544 l 1
EndSplineSet
Validated: 1
EndChar

StartChar: wdieresis
Encoding: 7813 7813 248
Width: 559
GlyphClass: 2
Flags: MW
HStem: 524 20G<25 108 108 108 242 317 317 317 450 534 534 534> 663 117<175 247 175 247 175 318 318 389>
AnchorPoint: "Anchor-1" 280 0 basechar 0
LayerCount: 2
Fore
SplineSet
247 780 m 1
 247 663 l 1
 175 663 l 1
 175 780 l 1
 247 780 l 1
389 780 m 1
 389 663 l 1
 318 663 l 1
 318 780 l 1
 389 780 l 1
450 544 m 1
 534 544 l 1
 446 0 l 1
 357 0 l 1
 280 372 l 1
 202 0 l 1
 113 0 l 1
 25 544 l 1
 108 544 l 1
 162 128 l 1
 242 544 l 1
 317 544 l 1
 397 128 l 1
 450 544 l 1
EndSplineSet
Validated: 1
EndChar

StartChar: wgrave
Encoding: 7809 7809 249
Width: 559
GlyphClass: 2
Flags: MW
HStem: 524 20G<25 108 108 108 242 317 317 317 450 534 534 534>
AnchorPoint: "Anchor-1" 280 0 basechar 0
LayerCount: 2
Fore
SplineSet
313 608 m 1
 251 608 l 1
 161 780 l 1
 247 780 l 1
 313 608 l 1
450 544 m 1
 534 544 l 1
 446 0 l 1
 357 0 l 1
 280 372 l 1
 202 0 l 1
 113 0 l 1
 25 544 l 1
 108 544 l 1
 162 128 l 1
 242 544 l 1
 317 544 l 1
 397 128 l 1
 450 544 l 1
EndSplineSet
Validated: 1
EndChar

StartChar: x
Encoding: 120 120 250
Width: 396
Flags: MW
HStem: 0 21G<10 95 10 10 301 387 301 301> 524 20G<10 95 95 95 301 387 387 387>
LayerCount: 2
Fore
SplineSet
387 544 m 1
 239 272 l 1
 387 0 l 1
 301 0 l 1
 198 189 l 1
 95 0 l 1
 10 0 l 1
 158 272 l 1
 10 544 l 1
 95 544 l 1
 198 356 l 1
 301 544 l 1
 387 544 l 1
EndSplineSet
Validated: 1
EndChar

StartChar: y
Encoding: 121 121 251
Width: 419
GlyphClass: 2
Flags: MW
HStem: 524 20G<9 97 97 97 322 410 410 410>
AnchorPoint: "Anchor-1" 210 0 basechar 0
LayerCount: 2
Fore
SplineSet
322 544 m 1
 410 544 l 1
 203 -180 l 1
 117 -180 l 1
 166 -10 l 1
 9 544 l 1
 97 544 l 1
 210 130 l 1
 322 544 l 1
EndSplineSet
Validated: 1
Substitution2: "'ss02' Style Set 2 in Latin lookup 23 subtable" y.ss02
Substitution2: "'salt' Stylistic Alternatives in Latin lookup 21 subtable" y.ss02
Substitution2: "'aalt' Access All Alternates in Latin lookup 0 subtable" y.ss02
EndChar

StartChar: yacute
Encoding: 253 253 252
Width: 419
GlyphClass: 2
Flags: MW
HStem: 524 20G<9 97 97 97 322 410 410 410>
AnchorPoint: "Anchor-1" 210 0 basechar 0
LayerCount: 2
Fore
SplineSet
329 780 m 1
 240 608 l 1
 178 608 l 1
 244 780 l 1
 329 780 l 1
322 544 m 1
 410 544 l 1
 203 -180 l 1
 117 -180 l 1
 166 -10 l 1
 9 544 l 1
 97 544 l 1
 210 130 l 1
 322 544 l 1
EndSplineSet
Validated: 1
Substitution2: "'ss02' Style Set 2 in Latin lookup 23 subtable" yacute.ss02
Substitution2: "'salt' Stylistic Alternatives in Latin lookup 21 subtable" yacute.ss02
Substitution2: "'aalt' Access All Alternates in Latin lookup 0 subtable" yacute.ss02
EndChar

StartChar: ycircumflex
Encoding: 375 375 253
Width: 419
GlyphClass: 2
Flags: MW
HStem: 524 20G<9 97 97 97 322 410 410 410> 634 146<64 243 64 243 176 276 176 355> 726 54<210 210>
AnchorPoint: "Anchor-1" 210 0 basechar 0
LayerCount: 2
Fore
SplineSet
210 726 m 1xa0
 143 634 l 1
 64 634 l 1
 176 780 l 1
 243 780 l 1
 355 634 l 1
 276 634 l 1xc0
 210 726 l 1xa0
322 544 m 1
 410 544 l 1
 203 -180 l 1
 117 -180 l 1
 166 -10 l 1
 9 544 l 1
 97 544 l 1
 210 130 l 1
 322 544 l 1
EndSplineSet
Validated: 1
Substitution2: "'ss02' Style Set 2 in Latin lookup 23 subtable" ycircumflex.ss02
Substitution2: "'salt' Stylistic Alternatives in Latin lookup 21 subtable" ycircumflex.ss02
Substitution2: "'aalt' Access All Alternates in Latin lookup 0 subtable" ycircumflex.ss02
EndChar

StartChar: ydieresis
Encoding: 255 255 254
Width: 419
GlyphClass: 2
Flags: MW
HStem: 524 20G<9 97 97 97 322 410 410 410> 663 117<105 177 105 177 105 248 248 319>
AnchorPoint: "Anchor-1" 210 0 basechar 0
LayerCount: 2
Fore
SplineSet
177 780 m 1
 177 663 l 1
 105 663 l 1
 105 780 l 1
 177 780 l 1
319 780 m 1
 319 663 l 1
 248 663 l 1
 248 780 l 1
 319 780 l 1
322 544 m 1
 410 544 l 1
 203 -180 l 1
 117 -180 l 1
 166 -10 l 1
 9 544 l 1
 97 544 l 1
 210 130 l 1
 322 544 l 1
EndSplineSet
Validated: 1
Substitution2: "'ss02' Style Set 2 in Latin lookup 23 subtable" ydieresis.ss02
Substitution2: "'salt' Stylistic Alternatives in Latin lookup 21 subtable" ydieresis.ss02
Substitution2: "'aalt' Access All Alternates in Latin lookup 0 subtable" ydieresis.ss02
EndChar

StartChar: z
Encoding: 122 122 255
Width: 382
GlyphClass: 2
Flags: MW
HStem: 0 80<126 352 126 352> 463 81<29 260 29 358>
AnchorPoint: "Anchor-1" 192 0 basechar 0
LayerCount: 2
Fore
SplineSet
358 544 m 1
 358 481 l 1
 126 80 l 1
 352 80 l 1
 352 0 l 1
 24 0 l 1
 24 63 l 1
 260 463 l 1
 29 463 l 1
 29 544 l 1
 358 544 l 1
EndSplineSet
Validated: 1
EndChar

StartChar: zacute
Encoding: 378 378 256
Width: 382
GlyphClass: 2
Flags: MW
HStem: 0 80<126 352 126 352> 463 81<29 260 29 358>
AnchorPoint: "Anchor-1" 192 0 basechar 0
LayerCount: 2
Fore
SplineSet
311 780 m 1
 222 608 l 1
 160 608 l 1
 226 780 l 1
 311 780 l 1
358 544 m 1
 358 481 l 1
 126 80 l 1
 352 80 l 1
 352 0 l 1
 24 0 l 1
 24 63 l 1
 260 463 l 1
 29 463 l 1
 29 544 l 1
 358 544 l 1
EndSplineSet
Validated: 1
EndChar

StartChar: zcaron
Encoding: 382 382 257
Width: 382
GlyphClass: 2
Flags: MW
HStem: 0 80<126 352 126 352> 463 81<29 260 29 358> 634 54<192 192 192 225 158 192> 634 146<46 225 46 158>
AnchorPoint: "Anchor-1" 192 0 basechar 0
LayerCount: 2
Fore
SplineSet
225 634 m 1xd0
 158 634 l 1
 46 780 l 1
 125 780 l 1xd0
 192 688 l 1xe0
 258 780 l 1
 337 780 l 1
 225 634 l 1xd0
358 544 m 1
 358 481 l 1
 126 80 l 1
 352 80 l 1
 352 0 l 1
 24 0 l 1
 24 63 l 1
 260 463 l 1
 29 463 l 1
 29 544 l 1
 358 544 l 1
EndSplineSet
Validated: 1
EndChar

StartChar: zdotaccent
Encoding: 380 380 258
Width: 382
GlyphClass: 2
Flags: MW
HStem: 0 80<126 352 126 352> 463 81<29 260 29 358> 633 117<156 228 156 228>
AnchorPoint: "Anchor-1" 192 0 basechar 0
LayerCount: 2
Fore
SplineSet
228 750 m 1
 228 633 l 1
 156 633 l 1
 156 750 l 1
 228 750 l 1
358 544 m 1
 358 481 l 1
 126 80 l 1
 352 80 l 1
 352 0 l 1
 24 0 l 1
 24 63 l 1
 260 463 l 1
 29 463 l 1
 29 544 l 1
 358 544 l 1
EndSplineSet
Validated: 1
EndChar

StartChar: a.ss01
Encoding: 65545 -1 259
Width: 468
GlyphClass: 2
Flags: MW
HStem: -12 80<199 234.5> 0 68<199 398 199 318> 476 68<199 398> 476 80<199 234.5 168 256>
AnchorPoint: "Anchor-1" 235 0 basechar 0
LayerCount: 2
Fore
SplineSet
318 544 m 1xa0
 398 544 l 1xa0
 398 0 l 1
 318 0 l 1x50
 318 34 l 1
 293 5 257 -12 212 -12 c 0
 124 -12 56 45 56 162 c 2
 56 382 l 2
 56 499 124 556 212 556 c 0x90
 257 556 293 539 318 509 c 1
 318 544 l 1xa0
227 68 m 0
 285 68 318 105 318 161 c 2
 318 382 l 2
 318 438 285 476 227 476 c 0x90
 171 476 136 438 136 382 c 2
 136 162 l 2
 136 106 171 68 227 68 c 0
EndSplineSet
Validated: 1
EndChar

StartChar: aacute.ss01
Encoding: 65546 -1 260
Width: 468
GlyphClass: 2
Flags: MW
HStem: -12 80<199 234.5> 0 68<199 398 199 318> 476 68<199 398> 476 80<199 234.5 168 256>
AnchorPoint: "Anchor-1" 235 0 basechar 0
LayerCount: 2
Fore
SplineSet
354 780 m 1x90
 265 608 l 1
 203 608 l 1
 269 780 l 1
 354 780 l 1x90
318 544 m 1xa0
 398 544 l 1xa0
 398 0 l 1
 318 0 l 1x50
 318 34 l 1
 293 5 257 -12 212 -12 c 0
 124 -12 56 45 56 162 c 2
 56 382 l 2
 56 499 124 556 212 556 c 0x90
 257 556 293 539 318 509 c 1
 318 544 l 1xa0
227 68 m 0
 285 68 318 105 318 161 c 2
 318 382 l 2
 318 438 285 476 227 476 c 0x90
 171 476 136 438 136 382 c 2
 136 162 l 2
 136 106 171 68 227 68 c 0
EndSplineSet
Validated: 1
EndChar

StartChar: abreve.ss01
Encoding: 65547 -1 261
Width: 468
GlyphClass: 2
Flags: MW
HStem: -12 80<199 234.5> 0 68<199 398 199 318> 476 68<199 398> 476 80<199 234.5 168 256> 662 52<219.5 250.5 219.5 267.5> 760 20G<122 180 180 180 289 346 346 346>
AnchorPoint: "Anchor-1" 235 0 basechar 0
LayerCount: 2
Fore
SplineSet
235 662 m 0x9c
 170 662 122 705 122 770 c 2
 122 780 l 1
 180 780 l 1
 180 770 l 2
 180 736 204 714 235 714 c 0
 266 714 289 736 289 770 c 2
 289 780 l 1
 346 780 l 1
 346 770 l 2
 346 705 300 662 235 662 c 0x9c
318 544 m 1xac
 398 544 l 1xac
 398 0 l 1
 318 0 l 1x5c
 318 34 l 1
 293 5 257 -12 212 -12 c 0
 124 -12 56 45 56 162 c 2
 56 382 l 2
 56 499 124 556 212 556 c 0x9c
 257 556 293 539 318 509 c 1
 318 544 l 1xac
227 68 m 0
 285 68 318 105 318 161 c 2
 318 382 l 2
 318 438 285 476 227 476 c 0x9c
 171 476 136 438 136 382 c 2
 136 162 l 2
 136 106 171 68 227 68 c 0
EndSplineSet
Validated: 1
EndChar

StartChar: acircumflex.ss01
Encoding: 65548 -1 262
Width: 468
GlyphClass: 2
Flags: MW
HStem: -12 80<199 234.5> 0 68<199 398 199 318> 476 68<199 398> 476 80<199 234.5 168 256> 634 146<89 268 89 268 201 301 201 380> 726 54<235 235>
AnchorPoint: "Anchor-1" 235 0 basechar 0
LayerCount: 2
Fore
SplineSet
235 726 m 1x94
 168 634 l 1
 89 634 l 1x98
 201 780 l 1
 268 780 l 1x94
 380 634 l 1
 301 634 l 1x98
 235 726 l 1x94
318 544 m 1xa4
 398 544 l 1xa4
 398 0 l 1
 318 0 l 1x54
 318 34 l 1
 293 5 257 -12 212 -12 c 0
 124 -12 56 45 56 162 c 2
 56 382 l 2
 56 499 124 556 212 556 c 0x94
 257 556 293 539 318 509 c 1
 318 544 l 1xa4
227 68 m 0
 285 68 318 105 318 161 c 2
 318 382 l 2
 318 438 285 476 227 476 c 0x94
 171 476 136 438 136 382 c 2
 136 162 l 2
 136 106 171 68 227 68 c 0
EndSplineSet
Validated: 1
EndChar

StartChar: adieresis.ss01
Encoding: 65549 -1 263
Width: 468
GlyphClass: 2
Flags: MW
HStem: -12 80<199 234.5> 0 68<199 398 199 318> 476 68<199 398> 476 80<199 234.5 168 256> 663 117<130 202 130 202 130 273 273 344>
AnchorPoint: "Anchor-1" 235 0 basechar 0
LayerCount: 2
Fore
SplineSet
202 780 m 1x98
 202 663 l 1
 130 663 l 1
 130 780 l 1
 202 780 l 1x98
344 780 m 1
 344 663 l 1
 273 663 l 1
 273 780 l 1
 344 780 l 1
318 544 m 1xa8
 398 544 l 1xa8
 398 0 l 1
 318 0 l 1x58
 318 34 l 1
 293 5 257 -12 212 -12 c 0
 124 -12 56 45 56 162 c 2
 56 382 l 2
 56 499 124 556 212 556 c 0x98
 257 556 293 539 318 509 c 1
 318 544 l 1xa8
227 68 m 0
 285 68 318 105 318 161 c 2
 318 382 l 2
 318 438 285 476 227 476 c 0x98
 171 476 136 438 136 382 c 2
 136 162 l 2
 136 106 171 68 227 68 c 0
EndSplineSet
Validated: 1
EndChar

StartChar: agrave.ss01
Encoding: 65550 -1 264
Width: 468
GlyphClass: 2
Flags: MW
HStem: -12 80<199 234.5> 0 68<199 398 199 318> 476 68<199 398> 476 80<199 234.5 168 256>
AnchorPoint: "Anchor-1" 235 0 basechar 0
LayerCount: 2
Fore
SplineSet
268 608 m 1x90
 206 608 l 1
 116 780 l 1
 202 780 l 1
 268 608 l 1x90
318 544 m 1xa0
 398 544 l 1xa0
 398 0 l 1
 318 0 l 1x50
 318 34 l 1
 293 5 257 -12 212 -12 c 0
 124 -12 56 45 56 162 c 2
 56 382 l 2
 56 499 124 556 212 556 c 0x90
 257 556 293 539 318 509 c 1
 318 544 l 1xa0
227 68 m 0
 285 68 318 105 318 161 c 2
 318 382 l 2
 318 438 285 476 227 476 c 0x90
 171 476 136 438 136 382 c 2
 136 162 l 2
 136 106 171 68 227 68 c 0
EndSplineSet
Validated: 1
EndChar

StartChar: amacron.ss01
Encoding: 65551 -1 265
Width: 468
GlyphClass: 2
Flags: MW
HStem: -12 80<199 234.5> 0 68<199 398 199 318> 476 68<199 398> 476 80<199 234.5 168 256> 625 63<124 345 124 345>
AnchorPoint: "Anchor-1" 235 0 basechar 0
LayerCount: 2
Fore
SplineSet
345 688 m 1x98
 345 625 l 1
 124 625 l 1
 124 688 l 1
 345 688 l 1x98
318 544 m 1xa8
 398 544 l 1xa8
 398 0 l 1
 318 0 l 1x58
 318 34 l 1
 293 5 257 -12 212 -12 c 0
 124 -12 56 45 56 162 c 2
 56 382 l 2
 56 499 124 556 212 556 c 0x98
 257 556 293 539 318 509 c 1
 318 544 l 1xa8
227 68 m 0
 285 68 318 105 318 161 c 2
 318 382 l 2
 318 438 285 476 227 476 c 0x98
 171 476 136 438 136 382 c 2
 136 162 l 2
 136 106 171 68 227 68 c 0
EndSplineSet
Validated: 1
EndChar

StartChar: aogonek.ss01
Encoding: 65552 -1 266
Width: 452
GlyphClass: 2
Flags: MW
HStem: -213 62<335 393 378 393 378 393> -20 20G<373 373 373 398> -12 80<199 234.5> 0 34 5 63<199 318> 476 68<199 398> 476 80<199 234.5 168 256>
AnchorPoint: "Anchor-1" 235 0 basechar 0
LayerCount: 2
Fore
SplineSet
373 0 m 1xc4
 335 -31 314 -62 314 -99 c 0
 314 -130 337 -151 378 -151 c 2
 393 -151 l 1
 393 -213 l 1
 374 -213 l 2
 296 -213 251 -172 251 -112 c 0
 251 -65 274 -29 318 5 c 1x8c
 318 34 l 1x94
 293 5 257 -12 212 -12 c 0
 124 -12 56 45 56 162 c 2
 56 382 l 2
 56 499 124 556 212 556 c 0xa2
 257 556 293 539 318 509 c 1
 318 544 l 1
 398 544 l 1
 398 0 l 1
 373 0 l 1xc4
227 68 m 0xa4
 285 68 318 105 318 161 c 2
 318 382 l 2
 318 438 285 476 227 476 c 0
 171 476 136 438 136 382 c 2
 136 162 l 2
 136 106 171 68 227 68 c 0xa4
EndSplineSet
Validated: 1
EndChar

StartChar: aring.ss01
Encoding: 65553 -1 267
Width: 468
GlyphClass: 2
Flags: MW
HStem: -12 80<199 234.5> 0 68<199 398 199 318> 476 68<199 398> 476 80<199 234.5 168 256> 573 53<225 245.5 225 260.5> 708 53<225 245.5>
AnchorPoint: "Anchor-1" 235 0 basechar 0
LayerCount: 2
Fore
SplineSet
235 573 m 0x9c
 185 573 141 611 141 667 c 0
 141 723 185 761 235 761 c 0
 286 761 329 723 329 667 c 0
 329 611 286 573 235 573 c 0x9c
235 708 m 0
 215 708 194 692 194 667 c 0
 194 642 215 626 235 626 c 0
 256 626 277 642 277 667 c 0
 277 692 256 708 235 708 c 0
318 544 m 1xac
 398 544 l 1xac
 398 0 l 1
 318 0 l 1x5c
 318 34 l 1
 293 5 257 -12 212 -12 c 0
 124 -12 56 45 56 162 c 2
 56 382 l 2
 56 499 124 556 212 556 c 0x9c
 257 556 293 539 318 509 c 1
 318 544 l 1xac
227 68 m 0
 285 68 318 105 318 161 c 2
 318 382 l 2
 318 438 285 476 227 476 c 0x9c
 171 476 136 438 136 382 c 2
 136 162 l 2
 136 106 171 68 227 68 c 0
EndSplineSet
Validated: 1
EndChar

StartChar: atilde.ss01
Encoding: 65554 -1 268
Width: 468
GlyphClass: 2
Flags: MW
HStem: -12 80<199 234.5> 0 68<199 398 199 318> 476 68<199 398> 476 80<199 234.5 168 256> 629 54<282.5 286.5 272 316.5> 679 54<180 183.5 149.5 194>
AnchorPoint: "Anchor-1" 235 0 basechar 0
LayerCount: 2
Fore
SplineSet
168 653 m 2x98
 168 634 l 1
 103 634 l 1
 103 657 l 2
 103 708 131 733 168 733 c 0x94
 199 733 221 719 236 708 c 0
 252 695 264 683 280 683 c 0
 293 683 299 697 299 710 c 2
 299 731 l 1
 363 731 l 1
 363 704 l 2
 363 654 335 629 298 629 c 0x98
 267 629 249 641 232 653 c 0
 214 666 201 679 187 679 c 0x94
 173 679 168 665 168 653 c 2x98
318 544 m 1xa8
 398 544 l 1xa8
 398 0 l 1
 318 0 l 1x58
 318 34 l 1
 293 5 257 -12 212 -12 c 0
 124 -12 56 45 56 162 c 2
 56 382 l 2
 56 499 124 556 212 556 c 0x98
 257 556 293 539 318 509 c 1
 318 544 l 1xa8
227 68 m 0
 285 68 318 105 318 161 c 2
 318 382 l 2
 318 438 285 476 227 476 c 0x98
 171 476 136 438 136 382 c 2
 136 162 l 2
 136 106 171 68 227 68 c 0
EndSplineSet
Validated: 1
EndChar

StartChar: y.ss02
Encoding: 65555 -1 269
Width: 463
GlyphClass: 2
Flags: MW
HStem: -183 80<193 249 193 272> 58 80<194 229.5> 524 20G<51 132 132 132 313 394 394 394>
AnchorPoint: "Anchor-1" 221 -183 basechar 0
LayerCount: 2
Fore
SplineSet
313 544 m 1
 394 544 l 1
 394 -6 l 2
 394 -112 323 -183 221 -183 c 0
 119 -183 50 -112 50 -5 c 2
 50 9 l 1
 130 9 l 1
 130 -9 l 2
 130 -65 165 -103 221 -103 c 0
 277 -103 313 -65 313 -9 c 2
 313 104 l 1
 288 75 252 58 207 58 c 0
 120 58 51 115 51 232 c 2
 51 544 l 1
 132 544 l 1
 132 232 l 2
 132 176 166 138 222 138 c 0
 281 138 313 175 313 231 c 2
 313 544 l 1
EndSplineSet
Validated: 1
EndChar

StartChar: yacute.ss02
Encoding: 65556 -1 270
Width: 463
GlyphClass: 2
Flags: MW
HStem: -183 80<193 249 193 272> 58 80<194 229.5> 524 20G<51 132 132 132 313 394 394 394>
AnchorPoint: "Anchor-1" 221 -183 basechar 0
LayerCount: 2
Fore
SplineSet
341 780 m 1
 252 608 l 1
 190 608 l 1
 256 780 l 1
 341 780 l 1
313 544 m 1
 394 544 l 1
 394 -6 l 2
 394 -112 323 -183 221 -183 c 0
 119 -183 50 -112 50 -5 c 2
 50 9 l 1
 130 9 l 1
 130 -9 l 2
 130 -65 165 -103 221 -103 c 0
 277 -103 313 -65 313 -9 c 2
 313 104 l 1
 288 75 252 58 207 58 c 0
 120 58 51 115 51 232 c 2
 51 544 l 1
 132 544 l 1
 132 232 l 2
 132 176 166 138 222 138 c 0
 281 138 313 175 313 231 c 2
 313 544 l 1
EndSplineSet
Validated: 1
EndChar

StartChar: ycircumflex.ss02
Encoding: 65557 -1 271
Width: 463
GlyphClass: 2
Flags: MW
HStem: -183 80<193 249 193 272> 58 80<194 229.5> 524 20G<51 132 132 132 313 394 394 394> 634 146<76 255 76 255 188 288 188 367> 726 54<222 222>
AnchorPoint: "Anchor-1" 221 -183 basechar 0
LayerCount: 2
Fore
SplineSet
222 726 m 1xe8
 155 634 l 1
 76 634 l 1
 188 780 l 1
 255 780 l 1
 367 634 l 1
 288 634 l 1xf0
 222 726 l 1xe8
313 544 m 1
 394 544 l 1
 394 -6 l 2
 394 -112 323 -183 221 -183 c 0
 119 -183 50 -112 50 -5 c 2
 50 9 l 1
 130 9 l 1
 130 -9 l 2
 130 -65 165 -103 221 -103 c 0
 277 -103 313 -65 313 -9 c 2
 313 104 l 1
 288 75 252 58 207 58 c 0
 120 58 51 115 51 232 c 2
 51 544 l 1
 132 544 l 1
 132 232 l 2
 132 176 166 138 222 138 c 0
 281 138 313 175 313 231 c 2
 313 544 l 1
EndSplineSet
Validated: 1
EndChar

StartChar: ydieresis.ss02
Encoding: 65558 -1 272
Width: 463
GlyphClass: 2
Flags: MW
HStem: -183 80<193 249 193 272> 58 80<194 229.5> 524 20G<51 132 132 132 313 394 394 394> 663 117<117 189 117 189 117 260 260 331>
AnchorPoint: "Anchor-1" 221 -183 basechar 0
LayerCount: 2
Fore
SplineSet
189 780 m 1
 189 663 l 1
 117 663 l 1
 117 780 l 1
 189 780 l 1
331 780 m 1
 331 663 l 1
 260 663 l 1
 260 780 l 1
 331 780 l 1
313 544 m 1
 394 544 l 1
 394 -6 l 2
 394 -112 323 -183 221 -183 c 0
 119 -183 50 -112 50 -5 c 2
 50 9 l 1
 130 9 l 1
 130 -9 l 2
 130 -65 165 -103 221 -103 c 0
 277 -103 313 -65 313 -9 c 2
 313 104 l 1
 288 75 252 58 207 58 c 0
 120 58 51 115 51 232 c 2
 51 544 l 1
 132 544 l 1
 132 232 l 2
 132 176 166 138 222 138 c 0
 281 138 313 175 313 231 c 2
 313 544 l 1
EndSplineSet
Validated: 1
EndChar

StartChar: f_f
Encoding: 65559 -1 273
Width: 644
Flags: MW
HStem: 0 21G<105 105 105 185 427 507 427 427> 468 76<4 105 4 105 185 318 326 427 507 640> 680 80<249.5 318 278 318 600 640>
LayerCount: 2
Fore
SplineSet
105 0 m 1
 105 468 l 1
 4 468 l 1
 4 544 l 1
 105 544 l 1
 105 579 l 2
 105 685 173 760 278 760 c 2
 318 760 l 1
 318 680 l 1
 278 680 l 2
 221 680 185 639 185 579 c 2
 185 544 l 1
 318 544 l 1
 318 468 l 1
 185 468 l 1
 185 0 l 1
 105 0 l 1
427 0 m 1
 427 468 l 1
 326 468 l 1
 326 544 l 1
 427 544 l 1
 427 579 l 2
 427 685 495 760 600 760 c 2
 640 760 l 1
 640 680 l 1
 600 680 l 2
 543 680 507 639 507 579 c 2
 507 544 l 1
 640 544 l 1
 640 468 l 1
 507 468 l 1
 507 0 l 1
 427 0 l 1
EndSplineSet
Validated: 1
Ligature2: "'liga' Standard Ligatures in Latin lookup 20 subtable" f f
EndChar

StartChar: f_f_i
Encoding: 65560 -1 274
Width: 863
Flags: MW
HStem: 0 21G<105 105 105 185 427 507 427 427 713 794 713 713> 468 76<4 105 4 105 185 318 326 427 507 640> 601 119<713 794 713 794> 680 80<249.5 318 278 318 600 640>
LayerCount: 2
Fore
SplineSet
105 0 m 1xd0
 105 468 l 1
 4 468 l 1
 4 544 l 1
 105 544 l 1
 105 579 l 2
 105 685 173 760 278 760 c 2
 318 760 l 1
 318 680 l 1
 278 680 l 2
 221 680 185 639 185 579 c 2
 185 544 l 1
 318 544 l 1
 318 468 l 1
 185 468 l 1
 185 0 l 1
 105 0 l 1xd0
427 0 m 1
 427 468 l 1
 326 468 l 1
 326 544 l 1
 427 544 l 1
 427 579 l 2
 427 685 495 760 600 760 c 2
 640 760 l 1
 640 680 l 1
 600 680 l 2
 543 680 507 639 507 579 c 2
 507 544 l 1
 640 544 l 1
 640 468 l 1
 507 468 l 1
 507 0 l 1
 427 0 l 1
713 601 m 1xe0
 713 720 l 1
 794 720 l 1
 794 601 l 1
 713 601 l 1xe0
713 0 m 1
 713 544 l 1
 794 544 l 1
 794 0 l 1
 713 0 l 1
EndSplineSet
Validated: 1
Ligature2: "'liga' Standard Ligatures in Latin lookup 20 subtable" f f i
EndChar

StartChar: f_f_l
Encoding: 65561 -1 275
Width: 863
Flags: MW
HStem: 0 21G<105 105 105 185 427 507 427 427 713 794 713 713> 468 76<4 105 4 105 185 318 326 427 507 640> 680 80<249.5 318 278 318 600 640> 730 20G<713 794 794 794>
LayerCount: 2
Fore
SplineSet
105 0 m 1xe0
 105 468 l 1
 4 468 l 1
 4 544 l 1
 105 544 l 1
 105 579 l 2
 105 685 173 760 278 760 c 2
 318 760 l 1
 318 680 l 1
 278 680 l 2
 221 680 185 639 185 579 c 2
 185 544 l 1
 318 544 l 1
 318 468 l 1
 185 468 l 1
 185 0 l 1
 105 0 l 1xe0
427 0 m 1
 427 468 l 1
 326 468 l 1
 326 544 l 1
 427 544 l 1
 427 579 l 2
 427 685 495 760 600 760 c 2
 640 760 l 1
 640 680 l 1
 600 680 l 2
 543 680 507 639 507 579 c 2
 507 544 l 1
 640 544 l 1
 640 468 l 1
 507 468 l 1
 507 0 l 1
 427 0 l 1
713 0 m 1
 713 750 l 1
 794 750 l 1xd0
 794 0 l 1
 713 0 l 1
EndSplineSet
Validated: 1
Ligature2: "'liga' Standard Ligatures in Latin lookup 20 subtable" f f l
EndChar

StartChar: fi
Encoding: 64257 64257 276
Width: 541
Flags: MW
HStem: 0 21G<105 105 105 185 391 472 391 391> 468 76<4 105 4 105 185 318> 601 119<391 472 391 472> 680 80<249.5 318 278 318>
LayerCount: 2
Fore
SplineSet
105 0 m 1xd0
 105 468 l 1
 4 468 l 1
 4 544 l 1
 105 544 l 1
 105 579 l 2
 105 685 173 760 278 760 c 2
 318 760 l 1
 318 680 l 1
 278 680 l 2
 221 680 185 639 185 579 c 2
 185 544 l 1
 318 544 l 1
 318 468 l 1
 185 468 l 1
 185 0 l 1
 105 0 l 1xd0
391 601 m 1xe0
 391 720 l 1
 472 720 l 1
 472 601 l 1
 391 601 l 1xe0
391 0 m 1
 391 544 l 1
 472 544 l 1
 472 0 l 1
 391 0 l 1
EndSplineSet
Validated: 1
Ligature2: "'liga' Standard Ligatures in Latin lookup 20 subtable" f i
EndChar

StartChar: fl
Encoding: 64258 64258 277
Width: 541
Flags: MW
HStem: 0 21G<105 105 105 185 391 472 391 391> 468 76<4 105 4 105 185 318> 680 80<249.5 318 278 318> 730 20G<391 472 472 472>
LayerCount: 2
Fore
SplineSet
105 0 m 1xe0
 105 468 l 1
 4 468 l 1
 4 544 l 1
 105 544 l 1
 105 579 l 2
 105 685 173 760 278 760 c 2
 318 760 l 1
 318 680 l 1
 278 680 l 2
 221 680 185 639 185 579 c 2
 185 544 l 1
 318 544 l 1
 318 468 l 1
 185 468 l 1
 185 0 l 1
 105 0 l 1xe0
391 0 m 1
 391 750 l 1
 472 750 l 1xd0
 472 0 l 1
 391 0 l 1
EndSplineSet
Validated: 1
Ligature2: "'liga' Standard Ligatures in Latin lookup 20 subtable" f l
EndChar

StartChar: longs_t
Encoding: 65562 -1 278
Width: 615
Flags: MW
HStem: -6 80<502 593 554 593> 0 21G<105 105 105 185> 468 76<4 105 4 105> 680 80<249.5 318 278 318 278 462>
LayerCount: 2
Fore
SplineSet
105 0 m 1x70
 105 468 l 1
 4 468 l 1
 4 544 l 1
 105 544 l 1
 105 579 l 2
 105 685 173 760 278 760 c 2
 318 760 l 1
 318 680 l 1
 278 680 l 2
 221 680 185 639 185 579 c 2
 185 0 l 1
 105 0 l 1x70
554 -6 m 2xb0
 450 -6 382 63 382 174 c 2
 382 469 l 1
 286 469 l 1
 286 544 l 1
 382 544 l 1
 382 680 l 1
 462 680 l 1
 462 544 l 1
 593 544 l 1
 593 469 l 1
 462 469 l 1
 462 174 l 2
 462 114 498 74 554 74 c 2
 593 74 l 1
 593 -6 l 1
 554 -6 l 2xb0
EndSplineSet
Validated: 1
Ligature2: "'dlig' Discretionary Ligatures in Latin lookup 19 subtable" longs t
Ligature2: "'hlig' Historic Ligatures in Latin lookup 18 subtable" longs t
EndChar

StartChar: ordfeminine
Encoding: 170 170 279
Width: 363
Flags: MW
HStem: 418 52<156.5 171> 704 56<162.5 191.5>
LayerCount: 2
Fore
SplineSet
177 760 m 0
 240 760 281 716 281 652 c 2
 281 425 l 1
 225 425 l 1
 225 445 l 1
 209 427 185 418 157 418 c 0
 100 418 67 455 67 507 c 0
 67 553 94 575 124 588 c 0
 169 609 225 609 225 648 c 2
 225 656 l 2
 225 684 206 704 177 704 c 0
 148 704 130 684 130 656 c 2
 130 643 l 1
 73 643 l 1
 73 652 l 2
 73 717 115 760 177 760 c 0
172 470 m 0
 204 470 225 489 225 524 c 2
 225 577 l 1
 206 564 179 561 158 553 c 0
 138 545 124 534 124 512 c 0
 124 489 141 470 172 470 c 0
EndSplineSet
Validated: 1
EndChar

StartChar: ordmasculine
Encoding: 186 186 280
Width: 346
Flags: MW
HStem: 418 56<158.5 187.5 158.5 204> 704 56<158.5 187.5>
LayerCount: 2
Fore
SplineSet
173 418 m 0
 111 418 69 462 69 526 c 2
 69 652 l 2
 69 717 111 760 173 760 c 0
 235 760 276 717 276 652 c 2
 276 526 l 2
 276 461 235 418 173 418 c 0
173 474 m 0
 202 474 220 493 220 522 c 2
 220 656 l 2
 220 684 202 704 173 704 c 0
 144 704 126 684 126 656 c 2
 126 522 l 2
 126 494 144 474 173 474 c 0
EndSplineSet
Validated: 1
EndChar

StartChar: uni0394
Encoding: 916 916 281
Width: 459
Flags: MW
HStem: 0 84<127 332 127 434> 730 20G<185 275 275 275>
LayerCount: 2
Fore
SplineSet
25 0 m 1
 185 750 l 1
 275 750 l 1
 434 0 l 1
 25 0 l 1
127 84 m 1
 332 84 l 1
 230 591 l 1
 127 84 l 1
EndSplineSet
Validated: 1
EndChar

StartChar: uni03A9
Encoding: 937 937 282
Width: 597
Flags: MW
HStem: 0 84<33 115 239.5 268 33 115 328 357 482 563> 682 84<261 335.5>
LayerCount: 2
Fore
SplineSet
482 84 m 1
 563 84 l 1
 563 0 l 1
 328 0 l 1
 328 84 l 1
 386 84 423 124 423 185 c 2
 423 551 l 2
 423 630 373 682 298 682 c 0
 224 682 174 630 174 551 c 2
 174 185 l 2
 174 124 211 84 268 84 c 1
 268 0 l 1
 33 0 l 1
 33 84 l 1
 115 84 l 1
 99 113 90 146 90 185 c 2
 90 551 l 2
 90 680 173 766 298 766 c 0
 424 766 507 680 507 551 c 2
 507 185 l 2
 507 146 498 113 482 84 c 1
EndSplineSet
Validated: 1
EndChar

StartChar: pi
Encoding: 960 960 283
Width: 530
Flags: MW
HStem: -6 80<425 508 477 508> 0 21G<101 181 101 101> 469 75<5 101 5 508 181 305 181 181 385 385 385 508>
LayerCount: 2
Fore
SplineSet
477 -6 m 2xa0
 373 -6 305 63 305 174 c 2
 305 469 l 1
 181 469 l 1
 181 0 l 1
 101 0 l 1x60
 101 469 l 1
 5 469 l 1
 5 544 l 1
 508 544 l 1
 508 469 l 1
 385 469 l 1
 385 174 l 2
 385 114 421 74 477 74 c 2
 508 74 l 1
 508 -6 l 1
 477 -6 l 2xa0
EndSplineSet
Validated: 1
EndChar

StartChar: zero
Encoding: 48 48 284
Width: 457
Flags: HMW
HStem: -16 84<218.5 257.5 218.5 283> 682 84<200 239.5>
LayerCount: 2
Fore
SplineSet
229 766 m 0
 337 766 407 692 407 581 c 2
 407 169 l 2
 407 58 337 -16 229 -16 c 0
 121 -16 50 58 50 169 c 2
 50 581 l 2
 50 692 121 766 229 766 c 0
134 581 m 2
 134 169 l 2
 134 158 135 147 138 137 c 1
 282 667 l 1
 267 677 250 682 229 682 c 0
 171 682 134 642 134 581 c 2
323 169 m 2
 323 581 l 2
 323 592 322 602 320 611 c 1
 175 83 l 1
 190 73 208 68 229 68 c 0
 286 68 323 108 323 169 c 2
EndSplineSet
Validated: 1
Substitution2: "'tnum' Tabular Numbers in Latin lookup 16 subtable" zero.tf
Substitution2: "'frac' Diagonal Fractions in Latin lookup 12 subtable" zero.numr
Substitution2: "'dnom' Denominators in Latin lookup 10 subtable" zero.dnom
Substitution2: "'numr' Numerators in Latin lookup 9 subtable" zero.numr
Substitution2: "'sups' Superscript in Latin lookup 8 subtable" uni2070
Substitution2: "'subs' Subscript in Latin lookup 7 subtable" uni2080
AlternateSubs2: "'aalt' Access All Alternates in Latin lookup 1 subtable" uni2080 uni2070 zero.numr zero.dnom zero.tf
EndChar

StartChar: one
Encoding: 49 49 285
Width: 328
Flags: HMW
HStem: 0 21G<174 174 174 258> 580 84<70 90 90 116.5 70 174 70 90>
LayerCount: 2
Fore
SplineSet
174 0 m 1
 174 580 l 1
 70 580 l 1
 70 664 l 1
 90 664 l 2
 143 664 174 692 174 739 c 2
 174 750 l 1
 258 750 l 1
 258 0 l 1
 174 0 l 1
EndSplineSet
Validated: 1
Substitution2: "'tnum' Tabular Numbers in Latin lookup 16 subtable" one.tf
Substitution2: "'frac' Diagonal Fractions in Latin lookup 12 subtable" one.numr
Substitution2: "'dnom' Denominators in Latin lookup 10 subtable" one.dnom
Substitution2: "'numr' Numerators in Latin lookup 9 subtable" one.numr
Substitution2: "'sups' Superscript in Latin lookup 8 subtable" uni00B9
Substitution2: "'subs' Subscript in Latin lookup 7 subtable" uni2081
AlternateSubs2: "'aalt' Access All Alternates in Latin lookup 1 subtable" uni2081 uni00B9 one.numr one.dnom one.tf
EndChar

StartChar: two
Encoding: 50 50 286
Width: 457
Flags: HMW
HStem: 0 84<138 407 138 407> 682 84<200 257.5>
LayerCount: 2
Fore
SplineSet
407 507 m 2
 407 329 138 249 138 94 c 2
 138 84 l 1
 407 84 l 1
 407 0 l 1
 50 0 l 1
 50 72 l 2
 50 299 323 362 323 507 c 2
 323 581 l 2
 323 642 286 682 229 682 c 0
 171 682 134 642 134 581 c 2
 134 554 l 1
 50 554 l 1
 50 581 l 2
 50 692 121 766 229 766 c 0
 337 766 407 691 407 581 c 2
 407 507 l 2
EndSplineSet
Validated: 1
Substitution2: "'tnum' Tabular Numbers in Latin lookup 16 subtable" two.tf
Substitution2: "'frac' Diagonal Fractions in Latin lookup 12 subtable" two.numr
Substitution2: "'dnom' Denominators in Latin lookup 10 subtable" two.dnom
Substitution2: "'numr' Numerators in Latin lookup 9 subtable" two.numr
Substitution2: "'sups' Superscript in Latin lookup 8 subtable" uni00B2
Substitution2: "'subs' Subscript in Latin lookup 7 subtable" uni2082
AlternateSubs2: "'aalt' Access All Alternates in Latin lookup 1 subtable" uni2082 uni00B2 two.numr two.dnom two.tf
EndChar

StartChar: three
Encoding: 51 51 287
Width: 457
Flags: HMW
HStem: -16 84<200 257.5 200 283> 342 84<167 229 167 229> 682 84<200 257.5>
LayerCount: 2
Fore
SplineSet
407 527 m 2
 407 465 386 416 348 385 c 1
 386 352 407 303 407 241 c 2
 407 169 l 2
 407 58 337 -16 229 -16 c 0
 121 -16 50 58 50 169 c 2
 50 196 l 1
 134 196 l 1
 134 169 l 2
 134 108 171 68 229 68 c 0
 286 68 323 108 323 169 c 2
 323 241 l 2
 323 302 286 342 229 342 c 2
 167 342 l 1
 167 426 l 1
 229 426 l 2
 286 426 323 466 323 527 c 2
 323 581 l 2
 323 642 286 682 229 682 c 0
 171 682 134 642 134 581 c 2
 134 554 l 1
 50 554 l 1
 50 581 l 2
 50 692 121 766 229 766 c 0
 337 766 407 692 407 581 c 2
 407 527 l 2
EndSplineSet
Validated: 1
Substitution2: "'tnum' Tabular Numbers in Latin lookup 16 subtable" three.tf
Substitution2: "'frac' Diagonal Fractions in Latin lookup 12 subtable" three.numr
Substitution2: "'dnom' Denominators in Latin lookup 10 subtable" three.dnom
Substitution2: "'numr' Numerators in Latin lookup 9 subtable" three.numr
Substitution2: "'sups' Superscript in Latin lookup 8 subtable" uni00B3
Substitution2: "'subs' Subscript in Latin lookup 7 subtable" uni2083
AlternateSubs2: "'aalt' Access All Alternates in Latin lookup 1 subtable" uni2083 uni00B3 three.numr three.dnom three.tf
EndChar

StartChar: four
Encoding: 52 52 288
Width: 518
Flags: HMW
HStem: 0 21G<326 410 326 326> 158 76<50 326 50 50> 730 20G<329 410 410 410>
LayerCount: 2
Fore
SplineSet
410 241 m 1
 478 241 l 1
 478 158 l 1
 410 158 l 1
 410 0 l 1
 326 0 l 1
 326 158 l 1
 50 158 l 1
 50 234 l 1
 329 750 l 1
 410 750 l 1
 410 241 l 1
326 241 m 1
 326 596 l 1
 138 241 l 1
 326 241 l 1
EndSplineSet
Validated: 1
Substitution2: "'tnum' Tabular Numbers in Latin lookup 16 subtable" four.tf
Substitution2: "'frac' Diagonal Fractions in Latin lookup 12 subtable" four.numr
Substitution2: "'dnom' Denominators in Latin lookup 10 subtable" four.dnom
Substitution2: "'numr' Numerators in Latin lookup 9 subtable" four.numr
Substitution2: "'sups' Superscript in Latin lookup 8 subtable" uni2074
Substitution2: "'subs' Subscript in Latin lookup 7 subtable" uni2084
AlternateSubs2: "'aalt' Access All Alternates in Latin lookup 1 subtable" uni2084 uni2074 four.numr four.dnom four.tf
EndChar

StartChar: five
Encoding: 53 53 289
Width: 467
Flags: HMW
HStem: -16 84<209.5 267 209.5 292> 416 84<221.5 265.5> 666 84<144 406 144 144>
LayerCount: 2
Fore
SplineSet
242 500 m 0
 346 500 417 426 417 315 c 2
 417 169 l 2
 417 58 346 -16 238 -16 c 0
 131 -16 60 58 60 169 c 2
 60 196 l 1
 144 196 l 1
 144 169 l 2
 144 108 181 68 238 68 c 0
 296 68 333 108 333 169 c 2
 333 315 l 2
 333 375 296 416 235 416 c 0
 179 416 144 376 144 315 c 2
 144 305 l 1
 60 305 l 1
 60 750 l 1
 406 750 l 1
 406 666 l 1
 144 666 l 1
 144 460 l 1
 167 486 201 500 242 500 c 0
EndSplineSet
Validated: 1
Substitution2: "'tnum' Tabular Numbers in Latin lookup 16 subtable" five.tf
Substitution2: "'frac' Diagonal Fractions in Latin lookup 12 subtable" five.numr
Substitution2: "'dnom' Denominators in Latin lookup 10 subtable" five.dnom
Substitution2: "'numr' Numerators in Latin lookup 9 subtable" five.numr
Substitution2: "'sups' Superscript in Latin lookup 8 subtable" uni2075
Substitution2: "'subs' Subscript in Latin lookup 7 subtable" uni2085
AlternateSubs2: "'aalt' Access All Alternates in Latin lookup 1 subtable" uni2085 uni2075 five.numr five.dnom five.tf
EndChar

StartChar: six
Encoding: 54 54 290
Width: 457
Flags: HMW
HStem: -16 84<200 257.5 200 283> 416 84<212 255.5> 682 84<200 257.5>
LayerCount: 2
Fore
SplineSet
407 554 m 1
 323 554 l 1
 323 581 l 2
 323 642 286 682 229 682 c 0
 171 682 134 642 134 581 c 2
 134 459 l 1
 158 486 192 500 232 500 c 0
 337 500 407 426 407 315 c 2
 407 169 l 2
 407 58 337 -16 229 -16 c 0
 121 -16 50 58 50 169 c 2
 50 581 l 2
 50 692 121 766 229 766 c 0
 337 766 407 692 407 581 c 2
 407 554 l 1
225 416 m 0
 169 416 134 376 134 315 c 2
 134 169 l 2
 134 108 171 68 229 68 c 0
 286 68 323 108 323 169 c 2
 323 315 l 2
 323 375 286 416 225 416 c 0
EndSplineSet
Validated: 1
Substitution2: "'tnum' Tabular Numbers in Latin lookup 16 subtable" six.tf
Substitution2: "'frac' Diagonal Fractions in Latin lookup 12 subtable" six.numr
Substitution2: "'dnom' Denominators in Latin lookup 10 subtable" six.dnom
Substitution2: "'numr' Numerators in Latin lookup 9 subtable" six.numr
Substitution2: "'sups' Superscript in Latin lookup 8 subtable" uni2076
Substitution2: "'subs' Subscript in Latin lookup 7 subtable" uni2086
AlternateSubs2: "'aalt' Access All Alternates in Latin lookup 1 subtable" uni2086 uni2076 six.numr six.dnom six.tf
EndChar

StartChar: seven
Encoding: 55 55 291
Width: 429
Flags: HMW
HStem: 0 21G<112 201 112 112> 666 84<40 302 40 389>
LayerCount: 2
Fore
SplineSet
40 750 m 1
 389 750 l 1
 389 675 l 1
 201 0 l 1
 112 0 l 1
 302 666 l 1
 40 666 l 1
 40 750 l 1
EndSplineSet
Validated: 1
Substitution2: "'tnum' Tabular Numbers in Latin lookup 16 subtable" seven.tf
Substitution2: "'frac' Diagonal Fractions in Latin lookup 12 subtable" seven.numr
Substitution2: "'dnom' Denominators in Latin lookup 10 subtable" seven.dnom
Substitution2: "'numr' Numerators in Latin lookup 9 subtable" seven.numr
Substitution2: "'sups' Superscript in Latin lookup 8 subtable" uni2077
Substitution2: "'subs' Subscript in Latin lookup 7 subtable" uni2087
AlternateSubs2: "'aalt' Access All Alternates in Latin lookup 1 subtable" uni2087 uni2077 seven.numr seven.dnom seven.tf
EndChar

StartChar: eight
Encoding: 56 56 292
Width: 477
Flags: HMW
HStem: -16 84<209.5 267 209.5 292> 341 84<209.5 267> 682 84<209.5 267>
LayerCount: 2
Fore
SplineSet
417 526 m 2
 417 464 395 415 357 384 c 1
 395 351 417 301 417 240 c 2
 417 169 l 2
 417 58 346 -16 238 -16 c 0
 130 -16 60 58 60 169 c 2
 60 240 l 2
 60 301 81 351 119 384 c 1
 81 415 60 464 60 526 c 2
 60 581 l 2
 60 692 130 766 238 766 c 0
 346 766 417 692 417 581 c 2
 417 526 l 2
333 526 m 2
 333 581 l 2
 333 642 296 682 238 682 c 0
 181 682 144 642 144 581 c 2
 144 526 l 2
 144 465 181 425 238 425 c 0
 296 425 333 465 333 526 c 2
333 169 m 2
 333 240 l 2
 333 300 296 341 238 341 c 0
 181 341 144 300 144 240 c 2
 144 169 l 2
 144 108 181 68 238 68 c 0
 296 68 333 108 333 169 c 2
EndSplineSet
Validated: 1
Substitution2: "'tnum' Tabular Numbers in Latin lookup 16 subtable" eight.tf
Substitution2: "'frac' Diagonal Fractions in Latin lookup 12 subtable" eight.numr
Substitution2: "'dnom' Denominators in Latin lookup 10 subtable" eight.dnom
Substitution2: "'numr' Numerators in Latin lookup 9 subtable" eight.numr
Substitution2: "'sups' Superscript in Latin lookup 8 subtable" uni2078
Substitution2: "'subs' Subscript in Latin lookup 7 subtable" uni2088
AlternateSubs2: "'aalt' Access All Alternates in Latin lookup 1 subtable" uni2088 uni2078 eight.numr eight.dnom eight.tf
EndChar

StartChar: nine
Encoding: 57 57 293
Width: 478
Flags: HMW
HStem: -16 84<210.5 268 210.5 293> 250 84<212.5 255.5> 682 84<210.5 268>
LayerCount: 2
Fore
SplineSet
239 766 m 0
 347 766 418 692 418 581 c 2
 418 169 l 2
 418 58 347 -16 239 -16 c 0
 131 -16 60 58 60 169 c 2
 60 196 l 1
 144 196 l 1
 144 169 l 2
 144 108 182 68 239 68 c 0
 297 68 334 108 334 169 c 2
 334 291 l 1
 310 264 276 250 235 250 c 0
 131 250 60 324 60 435 c 2
 60 581 l 2
 60 692 131 766 239 766 c 0
243 334 m 0
 299 334 334 374 334 435 c 2
 334 581 l 2
 334 642 297 682 239 682 c 0
 182 682 144 642 144 581 c 2
 144 435 l 2
 144 375 182 334 243 334 c 0
EndSplineSet
Validated: 1
Substitution2: "'tnum' Tabular Numbers in Latin lookup 16 subtable" nine.tf
Substitution2: "'frac' Diagonal Fractions in Latin lookup 12 subtable" nine.numr
Substitution2: "'dnom' Denominators in Latin lookup 10 subtable" nine.dnom
Substitution2: "'numr' Numerators in Latin lookup 9 subtable" nine.numr
Substitution2: "'sups' Superscript in Latin lookup 8 subtable" uni2079
Substitution2: "'subs' Subscript in Latin lookup 7 subtable" uni2089
AlternateSubs2: "'aalt' Access All Alternates in Latin lookup 1 subtable" uni2089 uni2079 nine.numr nine.dnom nine.tf
EndChar

StartChar: zero.tf
Encoding: 65563 -1 294
Width: 480
Flags: MW
HStem: -16 84<230 267 230 292.5> 682 84<212.5 250>
LayerCount: 2
Fore
SplineSet
240 766 m 0
 345 766 414 692 414 581 c 2
 414 169 l 2
 414 58 345 -16 240 -16 c 0
 135 -16 65 58 65 169 c 2
 65 581 l 2
 65 692 135 766 240 766 c 0
149 581 m 2
 149 169 l 2
 149 159 150 149 152 140 c 1
 291 667 l 1
 277 677 260 682 240 682 c 0
 185 682 149 642 149 581 c 2
331 169 m 2
 331 581 l 2
 331 591 330 601 328 610 c 1
 189 83 l 1
 203 73 220 68 240 68 c 0
 294 68 331 108 331 169 c 2
EndSplineSet
Validated: 1
Substitution2: "'pnum' Proportional Numbers in Latin lookup 15 subtable" zero
AlternateSubs2: "'aalt' Access All Alternates in Latin lookup 1 subtable" zero
EndChar

StartChar: one.tf
Encoding: 65564 -1 295
Width: 480
Flags: MW
HStem: 0 84<36 198 36 198 282 443> 580 84<80 101 101 131.5 80 198 80 101>
LayerCount: 2
Fore
SplineSet
36 0 m 1
 36 84 l 1
 198 84 l 1
 198 580 l 1
 80 580 l 1
 80 664 l 1
 101 664 l 2
 162 664 198 692 198 739 c 2
 198 750 l 1
 282 750 l 1
 282 84 l 1
 443 84 l 1
 443 0 l 1
 36 0 l 1
EndSplineSet
Validated: 1
Substitution2: "'pnum' Proportional Numbers in Latin lookup 15 subtable" one
AlternateSubs2: "'aalt' Access All Alternates in Latin lookup 1 subtable" one
EndChar

StartChar: two.tf
Encoding: 65565 -1 296
Width: 480
Flags: MW
HStem: 0 84<140 424 140 424> 682 84<207.5 268.5>
LayerCount: 2
Fore
SplineSet
424 507 m 2
 424 329 140 249 140 94 c 2
 140 84 l 1
 424 84 l 1
 424 0 l 1
 52 0 l 1
 52 72 l 2
 52 299 340 362 340 507 c 2
 340 581 l 2
 340 642 299 682 238 682 c 0
 177 682 136 642 136 581 c 2
 136 554 l 1
 52 554 l 1
 52 581 l 2
 52 692 126 766 238 766 c 0
 350 766 424 691 424 581 c 2
 424 507 l 2
EndSplineSet
Validated: 1
Substitution2: "'pnum' Proportional Numbers in Latin lookup 15 subtable" two
AlternateSubs2: "'aalt' Access All Alternates in Latin lookup 1 subtable" two
EndChar

StartChar: three.tf
Encoding: 65566 -1 297
Width: 480
Flags: MW
HStem: -16 84<198.5 258 198.5 283> 342 84<165 228 165 228> 682 84<198.5 258>
LayerCount: 2
Fore
SplineSet
411 527 m 2
 411 466 389 416 349 385 c 1
 389 352 411 302 411 241 c 2
 411 169 l 2
 411 58 338 -16 228 -16 c 0
 118 -16 45 58 45 169 c 2
 45 196 l 1
 129 196 l 1
 129 169 l 2
 129 108 169 68 228 68 c 0
 288 68 327 108 327 169 c 2
 327 241 l 2
 327 302 288 342 228 342 c 2
 165 342 l 1
 165 426 l 1
 228 426 l 2
 288 426 327 466 327 527 c 2
 327 581 l 2
 327 642 288 682 228 682 c 0
 169 682 129 642 129 581 c 2
 129 554 l 1
 45 554 l 1
 45 581 l 2
 45 692 118 766 228 766 c 0
 338 766 411 692 411 581 c 2
 411 527 l 2
EndSplineSet
Validated: 1
Substitution2: "'pnum' Proportional Numbers in Latin lookup 15 subtable" three
AlternateSubs2: "'aalt' Access All Alternates in Latin lookup 1 subtable" three
EndChar

StartChar: four.tf
Encoding: 65567 -1 298
Width: 480
Flags: MW
HStem: 0 21G<300 384 300 300> 158 76<24 300 24 24> 730 20G<302 384 384 384>
LayerCount: 2
Fore
SplineSet
384 241 m 1
 452 241 l 1
 452 158 l 1
 384 158 l 1
 384 0 l 1
 300 0 l 1
 300 158 l 1
 24 158 l 1
 24 234 l 1
 302 750 l 1
 384 750 l 1
 384 241 l 1
300 241 m 1
 300 596 l 1
 112 241 l 1
 300 241 l 1
EndSplineSet
Validated: 1
Substitution2: "'pnum' Proportional Numbers in Latin lookup 15 subtable" four
AlternateSubs2: "'aalt' Access All Alternates in Latin lookup 1 subtable" four
EndChar

StartChar: five.tf
Encoding: 65568 -1 299
Width: 480
Flags: MW
HStem: -16 84<221.5 278.5 221.5 303.5> 416 84<232.5 276.5> 666 84<156 417 156 156>
LayerCount: 2
Fore
SplineSet
253 500 m 0
 357 500 428 426 428 315 c 2
 428 169 l 2
 428 58 357 -16 250 -16 c 0
 143 -16 72 58 72 169 c 2
 72 196 l 1
 156 196 l 1
 156 169 l 2
 156 108 193 68 250 68 c 0
 307 68 344 108 344 169 c 2
 344 315 l 2
 344 375 307 416 246 416 c 0
 191 416 156 376 156 315 c 2
 156 305 l 1
 72 305 l 1
 72 750 l 1
 417 750 l 1
 417 666 l 1
 156 666 l 1
 156 460 l 1
 179 485 212 500 253 500 c 0
EndSplineSet
Validated: 1
Substitution2: "'pnum' Proportional Numbers in Latin lookup 15 subtable" five
AlternateSubs2: "'aalt' Access All Alternates in Latin lookup 1 subtable" five
EndChar

StartChar: six.tf
Encoding: 65569 -1 300
Width: 480
Flags: MW
HStem: -16 84<217 272.5 217 298> 416 84<228 270.5> 682 84<217 272.5>
LayerCount: 2
Fore
SplineSet
421 554 m 1
 337 554 l 1
 337 581 l 2
 337 642 300 682 245 682 c 0
 189 682 152 642 152 581 c 2
 152 460 l 1
 175 486 208 500 248 500 c 0
 351 500 421 426 421 315 c 2
 421 169 l 2
 421 58 351 -16 245 -16 c 0
 138 -16 68 58 68 169 c 2
 68 581 l 2
 68 692 138 766 245 766 c 0
 351 766 421 692 421 581 c 2
 421 554 l 1
241 416 m 0
 187 416 152 376 152 315 c 2
 152 169 l 2
 152 108 189 68 245 68 c 0
 300 68 337 108 337 169 c 2
 337 315 l 2
 337 375 300 416 241 416 c 0
EndSplineSet
Validated: 1
Substitution2: "'pnum' Proportional Numbers in Latin lookup 15 subtable" six
AlternateSubs2: "'aalt' Access All Alternates in Latin lookup 1 subtable" six
EndChar

StartChar: seven.tf
Encoding: 65570 -1 301
Width: 480
Flags: MW
HStem: 0 21G<127 216 127 127> 666 84<39 341 39 431>
LayerCount: 2
Fore
SplineSet
39 750 m 1
 431 750 l 1
 431 675 l 1
 216 0 l 1
 127 0 l 1
 341 666 l 1
 39 666 l 1
 39 750 l 1
EndSplineSet
Validated: 1
Substitution2: "'pnum' Proportional Numbers in Latin lookup 15 subtable" seven
AlternateSubs2: "'aalt' Access All Alternates in Latin lookup 1 subtable" seven
EndChar

